<svg xmlns="http://www.w3.org/2000/svg" width="15" height="13" viewBox="0 0 15 13"><g><g><path fill="#666" d="M15.169 2.215a6.359 6.359 0 0 1-1.788.477A3.045 3.045 0 0 0 14.75 1.02a6.31 6.31 0 0 1-1.977.733A3.152 3.152 0 0 0 10.5.8C8.784.8 7.39 2.151 7.39 3.82c0 .236.027.467.08.688a8.926 8.926 0 0 1-6.413-3.156A2.934 2.934 0 0 0 .635 2.87c0 1.048.55 1.973 1.384 2.514-.51-.016-.99-.151-1.41-.379v.039c0 1.463 1.073 2.684 2.497 2.962a3.218 3.218 0 0 1-1.405.052c.396 1.2 1.545 2.073 2.907 2.097a6.362 6.362 0 0 1-3.865 1.293c-.251 0-.499-.014-.743-.042a9.006 9.006 0 0 0 4.771 1.357c5.724 0 8.855-4.603 8.855-8.594l-.009-.391a6.21 6.21 0 0 0 1.552-1.563z"/></g></g></svg>