<svg xmlns="http://www.w3.org/2000/svg" width="18" height="14" viewBox="0 0 18 14"><defs><clipPath id="cirxa"><path d="M7.51 4.38h3.77v5.24H7.51z"/></clipPath></defs><g><g><g><g><g><path fill="#666" d="M16.358 9.734c0 1.428-1.136 2.589-2.53 2.589H4.183c-1.396 0-2.53-1.161-2.53-2.59V4.257c0-1.428 1.134-2.589 2.53-2.589h9.643c1.395 0 2.531 1.161 2.531 2.589zM13.82 1H4.183C2.427 1 1 2.462 1 4.258v5.483C1 11.538 2.427 13 4.183 13h9.636C15.573 13 17 11.538 17 9.741V4.258C17 2.462 15.573 1 13.82 1z"/><path fill="none" stroke="#666" stroke-miterlimit="50" stroke-width=".3" d="M16.358 9.734c0 1.428-1.136 2.589-2.53 2.589H4.183c-1.396 0-2.53-1.161-2.53-2.59V4.257c0-1.428 1.134-2.589 2.53-2.589h9.643c1.395 0 2.531 1.161 2.531 2.589zM13.82 1H4.183C2.427 1 1 2.462 1 4.258v5.483C1 11.538 2.427 13 4.183 13h9.636C15.573 13 17 11.538 17 9.741V4.258C17 2.462 15.573 1 13.82 1z"/></g></g></g><g><g/><g clip-path="url(#cirxa)"><path fill="#666" d="M7.636 4.417a.271.271 0 0 1 .271 0l3.233 2.348a.272.272 0 0 1 0 .47l-3.233 2.35a.272.272 0 0 1-.407-.236V4.651c0-.096.052-.186.136-.234z"/></g></g></g></g></svg>