<svg xmlns="http://www.w3.org/2000/svg" width="13" height="13" viewBox="0 0 13 13"><g><g><g><g><path fill="#666" d="M11.6 9.287a2.386 2.386 0 0 1-2.383 2.383H3.513a2.386 2.386 0 0 1-2.384-2.383V3.583a2.386 2.386 0 0 1 2.384-2.384h5.704A2.386 2.386 0 0 1 11.6 3.583zM9.217.07H3.513A3.517 3.517 0 0 0 0 3.583v5.704a3.517 3.517 0 0 0 3.513 3.512h5.704a3.517 3.517 0 0 0 3.512-3.512V3.583A3.517 3.517 0 0 0 9.217.07z"/></g><g><path fill="#666" d="M6.36 8.59a2.153 2.153 0 0 1-2.15-2.15c0-1.186.964-2.151 2.15-2.151s2.151.965 2.151 2.15c0 1.187-.965 2.151-2.15 2.151zm0-5.43a3.284 3.284 0 0 0-3.28 3.28 3.284 3.284 0 0 0 3.28 3.28 3.284 3.284 0 0 0 3.28-3.28 3.284 3.284 0 0 0-3.28-3.28z"/></g><g><path fill="#666" d="M9.778 2.2a.83.83 0 0 0-.828.828c0 .218.089.432.243.586a.833.833 0 0 0 .585.242.835.835 0 0 0 .586-.242.832.832 0 0 0 0-1.172.831.831 0 0 0-.586-.242z"/></g></g></g></g></svg>