<?xml version="1.0" encoding="UTF-8"?>
<svg width="60px" height="61px" viewBox="0 0 60 61" version="1.1" xmlns="http://www.w3.org/2000/svg" xmlns:xlink="http://www.w3.org/1999/xlink">
    <!-- Generator: Sketch 59.1 (86144) - https://sketch.com -->
    <title>Group 34@1.5x</title>
    <desc>Created with Sketch.</desc>
    <defs>
        <polygon id="path-1" points="0.21770841 0.0721612817 47.7288247 0.0721612817 47.7288247 47.583121 0.21770841 47.583121"></polygon>
    </defs>
    <g id="Page-1" stroke="none" stroke-width="1" fill="none" fill-rule="evenodd">
        <g id="screen2--copy-2" transform="translate(-518.000000, -434.000000)">
            <g id="Group-34" transform="translate(519.000000, 435.000000)">
                <path d="M47.7288247,6.618909 C47.5960592,29.3037663 29.2394695,47.6603561 6.55489405,47.7928397 C13.5567934,56.6466907 25.0211352,60.6927963 36.0293951,58.1961851 C47.0382187,55.6984463 55.6344314,47.1022337 58.1316064,36.09341 C60.6287814,25.085432 56.5829576,13.6210902 47.7288247,6.618909" id="Fill-1" fill="#97C2FC"></path>
                <g id="Group-5" transform="translate(0.000000, 0.209719)">
                    <mask id="mask-2" fill="white">
                        <use xlink:href="#path-1"></use>
                    </mask>
                    <g id="Clip-4"></g>
                    <path d="M47.7288247,6.40919027 C36.0646301,-2.8328095 19.3251859,-1.86624296 8.80204146,8.65661957 C-1.72082106,19.179764 -2.68710573,35.9189263 6.55489405,47.583121 C29.2394695,47.4506374 47.5960592,29.0940476 47.7288247,6.40919027" id="Fill-3" fill="#97C2FC" mask="url(#mask-2)"></path>
                </g>
                <path d="M43.6919648,12.4156304 C41.457502,13.426734 40.2245588,12.2338178 38.6367287,13.426734 C36.6756895,14.9026577 35.887553,18.7243868 37.625907,21.5144351 C38.8565951,23.4802663 41.0631518,23.9732744 43.5546892,24.5173028 C46.0761059,19.3445228 47.4880428,13.7018489 47.6997347,7.95121485 C46.9645917,9.88575733 45.5363057,11.4772519 43.6919648,12.4156304" id="Fill-6" fill="#3A7742"></path>
                <path d="M48.0484203,6.86969764 C47.9570912,7.23839669 47.8389834,7.59976686 47.6952246,7.95127123 C47.4840965,13.7019052 46.0715958,19.3445792 43.5507429,24.5170773 L43.6919648,24.5475204 C47.1599345,25.3054957 48.5042203,23.6982159 51.7796659,24.5475204 C53.2409319,24.9663941 54.6117144,25.6522081 55.8235165,26.5694457 C57.2278427,27.7279725 58.2660068,29.2695742 58.8111627,31.0068007 C58.8334312,30.5408531 58.8565571,30.0746235 58.8565571,29.6021927 C58.864438,20.782731 54.8930306,12.4309083 48.0484203,6.86969764" id="Fill-8" fill="#3A7742"></path>
                <path d="M28.5271305,41.7338853 C30.5290423,43.9477709 31.0547485,47.6888823 29.5382341,49.8215865 C28.305009,51.5607861 26.6168297,50.9640461 25.4941016,52.8546153 C24.6453609,54.4328615 24.6453609,56.3318871 25.4941016,57.9098514 C25.6502631,58.1948321 25.836304,58.4620543 26.0496871,58.7072899 C27.2070864,58.8471024 28.3720965,58.9181362 29.5382341,58.9206741 C40.2296608,58.9234919 50.0734744,53.1046429 55.2265228,43.7366428 C53.3875377,42.5065184 50.5148985,40.8789433 47.7358435,40.7230636 C44.8874461,40.4445662 42.0303103,41.1588501 39.6478605,42.7449889 C36.6658519,44.9289952 36.0795415,48.0226283 34.5931882,47.7999431 C33.5414939,47.6482916 32.9656131,45.9496827 32.5712629,44.7669142 C31.6684013,42.0735507 32.1580269,40.2509146 32.1495705,38.7406015 C30.914936,39.7283091 29.6250531,40.644701 28.2858412,41.4841396 C28.3901368,41.5864621 28.4758283,41.6766637 28.5271305,41.7338853" id="Fill-10" fill="#3A7742"></path>
                <path d="M31.560103,36.6790439 C30.5191201,35.2234156 28.5780944,34.9502738 26.5051488,34.6571186 C22.1582772,34.0505128 20.4498025,35.9210686 18.4174477,34.6571186 C16.7614026,33.554404 15.9566352,31.5437539 16.3952405,29.6024463 C17.2451087,27.0649625 20.9552134,27.9244147 25.4940452,24.5474922 C26.960385,23.4659186 30.4480864,20.8678306 30.5492813,17.4703309 C30.6501943,14.1444287 27.4051917,13.1942112 26.5051488,9.38262971 C26.1144631,7.74096055 26.8439686,3.96489598 28.6931014,0.314549899 C17.8097144,0.622080987 7.9940888,6.93703877 3.20241057,16.7132012 L3.20241057,16.7225032 C2.55380467,20.3142182 2.57099935,23.9950074 3.25258521,27.5805211 C3.86990242,31.6548147 4.43535372,35.3547716 7.29671766,38.7012511 C8.55051993,40.1768929 10.481398,42.4215034 13.3624935,42.7451016 C16.5573215,43.0988611 20.7731189,41.0566404 21.4504766,40.7231764 C22.356157,40.1281277 23.40165,39.779724 24.4835054,39.7120728 C25.9284223,39.8042475 27.2862383,40.4367863 28.2857848,41.4842524 C29.6249967,40.6445318 30.9148797,39.7281399 32.1495141,38.7404324 C32.1836216,38.0075444 31.9770035,37.2833946 31.560103,36.6790439" id="Fill-12" fill="#3A7742"></path>
                <path d="M21.4504202,8.37186438 C21.4504202,12.8402262 13.362719,23.536445 13.362719,23.536445 C13.362719,23.536445 8.31791255,16.8637815 6.19479234,11.8598476 C5.67190493,10.7647438 5.36014564,9.58169337 5.274736,8.37186438 C5.274736,3.9051938 8.89604844,0.284163235 13.362719,0.284163235 C17.8293896,0.284163235 21.4504202,3.9051938 21.4504202,8.37186438" id="Fill-14" stroke="#4878ED" stroke-width="1.2" fill="#F1A3A9"></path>
                <path d="M16.3952969,7.3607608 C16.3952969,9.0356918 15.0374809,10.3937897 13.3625499,10.3937897 C11.6876189,10.3937897 10.329521,9.0356918 10.329521,7.3607608 C10.329521,5.6858298 11.6876189,4.32773193 13.3625499,4.32773193 C15.0374809,4.32773193 16.3952969,5.6858298 16.3952969,7.3607608" id="Fill-16" fill="#F1F2F2"></path>
                <path d="M51.7797505,35.6682504 C51.557629,37.5644572 50.9408756,39.3927309 49.969799,41.0366551 C48.1150285,44.447967 46.0169956,47.7220032 43.6920493,50.832831 C43.6920493,50.832831 41.042941,47.3251162 38.7684513,43.4830917 C37.9298582,42.0894769 37.1800574,40.6439963 36.5241227,39.1562336 C36.0012352,38.0611298 35.689476,36.8780794 35.6037844,35.6682504 C35.6037844,31.2015798 39.2253788,27.5805492 43.6920493,27.5805492 C48.1587199,27.5805492 51.7797505,31.2015798 51.7797505,35.6682504" id="Fill-18" stroke="#EB7956" stroke-width="1.2" fill="#FFCD00"></path>
                <path d="M46.7249091,34.657175 C46.7249091,36.332106 45.3668112,37.6902039 43.6918802,37.6902039 C42.0169492,37.6902039 40.6588513,36.332106 40.6588513,34.657175 C40.6588513,32.982244 42.0169492,31.6241461 43.6918802,31.6241461 C45.3668112,31.6241461 46.7249091,32.982244 46.7249091,34.657175" id="Fill-20" fill="#F1F2F2"></path>
                <path d="M3.20252332,16.7225596 C3.20252332,16.7225596 -5.68994525,34.12865 7.55841506,48.7864103 C7.55841506,48.7864103 11.9746291,54.2359965 21.7462814,57.2428105" id="Stroke-22" stroke="#4878ED" stroke-width="1.5" stroke-linecap="round"></path>
                <path d="M35.7464721,0.866809208 C35.7464721,0.866809208 43.2684401,2.88112374 47.7289093,6.61885262" id="Stroke-24" stroke="#4878ED" stroke-width="1.5" stroke-linecap="round"></path>
                <path d="M47.1626124,8.75944939 C47.1626124,8.75944939 45.3303923,13.3166035 40.4445662,12.8467095 C40.4445662,12.8467095 35.323934,13.1285895 36.96814,20.1285157 C36.96814,20.1285157 37.5786921,25.3903698 48.0553263,24.3567158" id="Stroke-26" stroke="#28541A" stroke-width="1.5" stroke-linecap="round"></path>
                <path d="M26.0496871,58.7072617 C26.0496871,58.7072617 44.5790693,61.2830812 54.9144817,43.8065208" id="Stroke-28" stroke="#28541A" stroke-width="1.5" stroke-linecap="round"></path>
                <path d="M46.599106,33.84677 C47.0994431,35.6237415 46.1292121,37.5112101 43.6920775,37.6902039 C41.2546611,37.8691977 40.6796259,35.3500361 40.6796259,35.3500361 C40.6796259,35.3500361 39.904174,31.8031399 43.4276741,31.5212599 C43.4276741,31.5212599 45.8946879,31.3450849 46.599106,33.84677 Z" id="Stroke-30" stroke="#EB7956" stroke-width="1.2" stroke-linecap="round"></path>
                <path d="M16.3440793,6.69228236 C16.8444163,8.46925393 15.8741853,10.3567224 13.4370508,10.5357163 C10.9996344,10.7147101 10.4245992,8.19554844 10.4245992,8.19554844 C10.4245992,8.19554844 9.64914726,4.64865232 13.1726473,4.36677231 C13.1726473,4.36677231 15.6396612,4.19059731 16.3440793,6.69228236 Z" id="Stroke-32" stroke="#4878ED" stroke-width="1.2" stroke-linecap="round"></path>
            </g>
        </g>
    </g>
</svg>