<?xml version="1.0" encoding="UTF-8"?>
<svg width="65px" height="63px" viewBox="0 0 65 63" version="1.1" xmlns="http://www.w3.org/2000/svg" xmlns:xlink="http://www.w3.org/1999/xlink">
    <!-- Generator: Sketch 59.1 (86144) - https://sketch.com -->
    <title>Group 21@1.5x</title>
    <desc>Created with Sketch.</desc>
    <g id="Page-1" stroke="none" stroke-width="1" fill="none" fill-rule="evenodd">
        <g id="screen2--copy-2" transform="translate(-377.000000, -432.000000)">
            <g id="Group-21" transform="translate(377.000000, 432.000000)">
                <path d="M62.5983023,58.6698064 L57.5739021,47.9850061 L57.1696605,48.0524221 C56.9072469,47.5132212 56.6439428,46.9723668 56.3733884,46.4162484 C56.0808284,46.7407356 55.8914276,46.952778 55.6997372,47.1625308 C55.4896028,47.3923812 55.282394,47.625666 55.0646276,47.8480116 C54.320126,48.6087949 54.1934348,48.6571309 53.3971627,47.9787733 C52.2330283,46.9866132 51.1093434,45.944718 50.006901,44.8841243 C49.648197,44.5391579 49.3749714,44.3886803 48.9737826,44.7626483 C48.537741,45.1689252 48.0597233,45.5355156 47.6660393,45.9781716 C47.5216673,46.1404788 47.4567953,46.514574 47.5392209,46.7173308 C49.2209322,50.8447166 50.9352066,54.9591279 52.6241683,59.0835881 C52.8110251,59.5398545 53.0553763,59.7490985 53.5542547,59.6615849 C54.7515884,59.4515777 55.8684044,59.7499889 56.9544381,60.2291513 C57.9028413,60.6472577 58.8536613,61.0600217 59.8043542,61.4724041 C60.424963,61.7416866 61.0280182,61.6967849 61.766287,61.3703897 C61.6437934,61.2840209 61.5327478,61.2022313 61.4275534,61.1245121 L62.5347023,60.4506065 L62.5983023,58.6698064 Z" id="Fill-1" fill="#454E81"></path>
                <polygon id="Fill-3" fill="#7687CE" points="49.7087442 36.5370056 48.9455442 40.0137634 47.4191441 42.2186482 45.9774593 39.9290482 46.4862593 37.3002057 49.1999442 35.349848"></polygon>
                <path d="M48.4343782,38.7336352 C48.017035,39.3445769 47.5752694,39.9388553 47.1130246,40.5842681 C46.453111,40.0317113 46.3883662,39.5169329 46.8386542,38.9031928 C47.2604494,38.3281216 47.6298382,37.714636 48.0230134,37.1170504 C48.947503,37.7605552 48.9897334,37.9204456 48.4343782,38.7336352 M55.9803913,46.0261387 C54.6538225,43.3158882 53.3381928,40.5988961 51.9379752,37.9265512 C51.2056847,36.5292592 50.3324567,35.2028175 49.4723303,33.8771391 C49.0206431,33.1808462 48.7583566,33.1302206 48.2487934,33.7439607 C46.8743974,35.3995959 45.5674173,37.1118352 44.2604373,38.8220392 C44.1276405,38.9960488 44.0650581,39.3642929 44.1572781,39.5487329 C45.4520469,42.1387794 46.7791246,44.7124171 48.1223566,47.3365532 C48.805039,46.7308267 49.4046599,46.2147763 49.9853279,45.6786283 C50.4249311,45.2726059 50.8220495,45.2278315 51.3012119,45.6444115 C52.31436,46.5252715 53.3530752,47.3775116 54.3954792,48.2241548 C54.5605849,48.3582236 54.8361001,48.5173508 54.9980257,48.4663436 C55.6503073,48.2609156 56.2978825,46.6746043 55.9803913,46.0261387" id="Fill-5" fill="#7687CE"></path>
                <path d="M41.9976128,9.33757426 C41.9293064,9.00838065 41.9164592,8.65412863 41.7818816,8.35482702 C41.429156,7.57076619 41.0827904,6.77258616 40.6227079,6.05098054 C40.0927927,5.21985571 40.0800727,4.44508048 40.4582383,3.56205805 C40.7585576,2.86118602 40.9291328,2.1047276 41.1943448,1.25337797 C39.7938727,1.37396357 38.5768231,1.44252437 37.3695678,1.59007638 C34.9499693,1.88581639 32.5363493,2.2286204 30.118786,2.54242281 C29.5993011,2.60996601 29.4015051,2.84897482 29.4222387,3.39491724 C29.4710835,4.68078209 29.5068267,5.96702854 29.5367187,7.25352938 L29.2718883,7.57788939 L29.3142459,10.5458471 L29.7383308,10.5882047 L30.7982884,10.2914471 L32.112646,10.2914471 L34.8263309,10.1218895 L36.0577542,10.1461847 C36.5116038,10.2237767 37.000815,10.2653711 37.5838998,10.3448711 C37.5548982,10.2873767 37.5269142,10.2316631 37.498167,10.1748047 L39.1086463,10.2066047 L40.5926887,10.1642471 L41.9495312,9.52824706 L41.8916552,9.37090066 C41.9268896,9.35970706 41.9623784,9.34864066 41.9976128,9.33757426" id="Fill-7" fill="#F1A3A9"></path>
                <path d="M28.635901,25.3858264 L24.0567009,34.4593844 L20.8767008,37.5970269 L17.654343,34.2898268 L21.1311008,29.4985842 C21.1311008,29.4985842 24.1839009,24.0714688 24.3111009,24.0714688 C24.4383009,24.0714688 25.6679433,23.3506264 25.6679433,23.3506264 L28.635901,25.3858264 Z" id="Fill-9" fill="#7687CE"></path>
                <path d="M52.6616669,59.2178604 C52.4557301,58.6480044 52.296094,58.2741635 52.1855572,57.8850587 C52.0450012,57.3901235 51.8043388,57.0371435 51.4547932,56.7705323 L50.4628876,54.5497474 C50.6784916,54.6352258 50.9145748,54.707857 51.2739148,54.8354386 C50.9234788,53.8207642 50.6089132,53.037721 49.776262,52.6436553 C49.7066836,52.6108377 49.6371052,52.5780201 49.5673996,52.5450753 L48.7918611,50.8087953 C49.1244891,50.9733921 49.4594067,51.1391337 49.7994124,51.3075465 C49.6322716,50.7202641 49.4731443,50.2729017 49.3806699,49.8109112 C49.2496539,49.1564672 48.8892963,48.7850432 48.2955267,48.545144 C48.0834843,48.4595384 47.8729683,48.3698624 47.6623251,48.2800592 L46.8535875,46.4693671 C47.3608611,46.7191879 47.8673715,46.9706623 48.3747723,47.2198471 C47.9787987,46.0810255 47.4759771,45.0364591 46.9138803,44.027763 C46.7253698,43.689411 46.4333186,43.3464798 46.1070506,43.1705622 C44.3857802,42.2432742 42.6464473,41.3518565 40.89096,40.4983445 C40.6820976,40.3968389 40.2507624,40.5066125 40.0689936,40.6829117 C39.3930528,41.3386277 38.8003008,42.0869454 38.1351719,42.7558902 C37.2711023,43.6244118 36.3758687,44.4598614 35.4788542,45.2918767 C34.8946246,45.8337487 34.2605326,45.8062735 33.6376342,45.3575119 C33.2583238,45.0840319 32.8590429,44.8212367 32.5374813,44.482503 C31.4483949,43.3355406 30.3685941,42.1773846 29.32619,40.9843757 C28.2808604,39.7881869 28.292054,39.7520621 26.9991931,40.6871093 C24.9105691,42.1976094 22.8247434,43.7130702 20.7648665,45.2655463 C20.1157649,45.7548847 19.6030217,45.7092199 19.0755232,45.1286791 C17.8672504,43.7996934 16.6491832,42.480375 15.4461255,41.1461741 C14.7994407,40.4291477 14.1757791,39.6898613 13.3880294,38.7836884 C9.05407089,45.1983847 5.49628676,51.9155625 1.62062982,58.559982 C2.34592424,58.6228188 2.93753147,58.6934148 3.53079229,58.7217804 C5.54831156,58.8180708 7.49281803,59.106942 9.3573157,60.0688284 C11.498219,61.1733061 13.8123687,61.3160245 16.1155791,60.6176964 C17.753152,60.1212348 19.3643945,59.5251756 20.9708033,58.925046 C22.8456042,58.2246827 24.7223131,58.1301731 26.5999123,58.834098 C28.6833212,59.6154876 30.7584621,60.422826 32.8180845,61.2690877 C33.6116854,61.5948469 34.3565686,61.6664605 35.1669598,61.3716109 C36.9097271,60.7375188 38.6677584,60.1497276 40.4153592,59.5301364 C40.870608,59.3687196 41.3272561,59.2567836 41.7846673,59.1933108 L41.9071609,59.772198 L48.0127611,61.6377133 L50.100622,60.5937828 C50.403358,60.5306916 50.7066028,60.4513188 51.011374,60.3653316 C50.963038,60.3092364 50.9138116,60.2586108 50.863822,60.2121828 L51.7439188,59.772198 L51.710338,58.7659188 C51.7460812,58.7839812 51.7816972,58.8021708 51.8173132,58.8202332 C52.0479268,58.9368756 52.2843916,59.0405436 52.6616669,59.2178604" id="Fill-11" fill="#454E81"></path>
                <path d="M25.5839659,25.8384168 C24.1841298,28.3984441 22.7963778,30.9654674 21.3689393,33.5101035 C20.7333209,34.6432011 20.5920017,34.6395123 19.4404601,33.7667931 C21.1217897,30.9042842 22.798413,28.0687417 24.4504866,25.2189528 C24.7398667,24.7196927 25.1009875,24.7484399 25.5096811,24.9469991 C26.0000371,25.1851175 25.7517427,25.5314832 25.5839659,25.8384168 M44.197397,42.0794406 C43.5360841,40.6816397 42.8853289,39.2776061 42.1779697,37.9030828 C38.9183424,31.570049 35.4900478,25.3340688 31.3786893,19.5014397 C30.8574237,18.7618989 30.2779005,18.0591189 29.6790428,17.3802525 C29.163374,16.7956412 28.98275,16.8003476 28.4686076,17.4065829 C27.8686052,18.1139421 27.2837395,18.8408901 26.7615835,19.6067613 C22.4350026,25.9494624 18.5308528,32.5530506 14.6932287,39.1977245 C14.4739359,39.5775437 14.5352463,39.8113373 14.8133055,40.1148365 C16.4125912,41.8606566 17.9908888,43.6254294 19.5822881,45.3783727 C20.2432193,46.1063383 20.2714577,46.1301247 21.0801953,45.5488207 C23.1810306,44.0384478 25.2491755,42.4820286 27.3552259,40.9785245 C28.4352812,40.2073109 28.1672708,40.0553069 29.2889204,41.1186989 C30.7657125,42.5190438 32.2210077,43.942539 33.6704518,45.3712495 C34.1623342,45.8558815 34.5894718,45.8726719 35.0695246,45.3612007 C36.0686807,44.296791 37.0776311,43.2412854 38.0991743,42.1983726 C39.9218232,40.3375637 39.2177712,40.3453229 41.7412921,41.6071469 C42.6231697,42.0480222 43.4763001,42.5460102 44.5167962,43.1128134 C44.3749682,42.6440814 44.322689,42.3443982 44.197397,42.0794406" id="Fill-13" fill="#7687CE"></path>
                <path d="M3.41477316,57.8195253 C4.3898884,56.2176956 5.35889803,54.5843204 6.29598047,53.0048779 C8.76989336,48.8352618 11.3277582,44.5236904 14.21876,40.4241615 L14.4932576,40.0349294 L14.8131656,40.3876551 C15.0475952,40.6458711 15.2661248,40.8888231 15.47486,41.1207087 C15.916244,41.6114463 16.2975896,42.0352767 16.6954712,42.4579623 C17.3597097,43.1635408 18.0403569,43.876624 18.6988713,44.5663024 C19.1405097,45.0289288 19.5821481,45.4916824 20.0222602,45.9555809 C20.2742434,46.2210473 20.4402394,46.2517025 20.5431442,46.2517025 C20.6890426,46.2517025 20.8666138,46.1767817 21.0712786,46.0291025 C23.0087891,44.6299024 24.9606731,43.2726784 26.7936252,42.0024591 C27.3730212,41.6010159 27.722694,41.3586999 28.0997149,41.3586999 C28.5503845,41.3586999 28.8417997,41.6784807 29.3709517,42.2590215 L29.4266653,42.3202047 C30.4480813,43.4402008 31.4827262,44.4964696 32.360279,45.382036 C32.5821158,45.6056536 32.8554686,45.7918745 33.1449758,45.9889073 C33.2018342,46.0275761 33.2585654,46.0663721 33.314915,46.1052953 C33.7690191,46.4188433 34.1508735,46.4157905 34.5327279,46.0762937 C35.3652519,45.3364984 36.1769151,44.6101864 36.95716,43.858816 C37.2326752,43.5932224 37.502212,43.3047328 37.7628448,43.025656 C38.072704,42.6940455 38.3928664,42.3511143 38.7351616,42.0329871 C38.9572528,41.8267959 39.3104873,41.7345759 39.5623433,41.7345759 C39.6934865,41.7345759 39.8103833,41.7579807 39.9098537,41.8044087 C41.5137185,42.5515815 43.127505,43.3437832 44.7064387,44.1587536 C45.0436459,44.3328904 45.3696595,44.6610664 45.6011635,45.0592024 C46.1967139,46.0827809 46.6314835,46.9935329 46.9695811,47.9251457 L47.2850371,48.7943034 L46.4483155,48.4006193 C46.1848843,48.2765993 45.9217075,48.1520705 45.6585307,48.0274145 C45.0248203,47.7272225 44.369613,47.4169817 43.7220378,47.1218777 C43.4642034,47.0043449 43.2011538,46.9042385 42.9224586,46.7984081 C42.7817754,46.7449841 42.6413466,46.6914329 42.501681,46.6358465 C42.3995394,46.5951425 42.3454794,46.5854753 42.3194034,46.5839489 C42.3118986,46.5956513 42.2999418,46.6175297 42.286713,46.6550537 C42.1846986,46.9413809 42.2522418,46.9716545 42.3749898,47.0264777 C42.8313834,47.2310153 43.2791274,47.4274121 43.7061378,47.6101985 C43.971477,47.7237881 44.2363074,47.8387769 44.5010106,47.9537657 C45.2112955,48.2622257 45.9456211,48.5812434 46.6760035,48.8637546 C47.37395,49.1340546 47.76509,49.5755658 47.9066636,50.2535418 C47.9599604,50.5081962 48.0412412,50.7645042 48.135242,51.0612618 C48.1824332,51.2099587 48.2322956,51.3671779 48.2829212,51.5376259 L48.5266364,52.3578115 L43.0962138,49.7822658 C43.0074282,49.9851498 43.0076826,50.0748258 43.0202754,50.1134946 C43.0337586,50.1547074 43.1038458,50.2450194 43.421337,50.3864658 C44.9917483,51.0864474 46.5756427,51.8028379 48.0535796,52.4728003 C48.94169,52.8753883 49.2791516,53.6481283 49.6280612,54.6163748 L49.8968348,55.3620212 L49.1463548,55.1071124 C49.018646,55.06361 48.9081092,55.0276124 48.8091476,54.9953036 C48.616694,54.9324668 48.46469,54.8827316 48.3106508,54.8205308 C47.8367036,54.6293492 47.3636468,54.4362596 46.8903355,54.2432972 C45.8929603,53.8363843 44.8617499,53.4157339 43.8422418,53.0196331 C43.7880546,52.9986451 43.7303058,52.9715515 43.6707762,52.9431859 C43.6160802,52.9171099 43.532001,52.8770419 43.4793402,52.8619051 C43.470945,52.8769147 43.4602602,52.8993019 43.4484306,52.9317379 C43.2777282,53.4036499 43.4345658,53.5115155 43.6571658,53.6034811 C44.143197,53.8042027 44.6282107,54.0074684 45.1130971,54.2108612 C46.3606747,54.7339076 47.6507372,55.2748892 48.9341852,55.757486 C49.7709068,56.0720516 50.2447269,56.5528676 50.4708885,57.3165765 C50.5334709,57.5272197 50.6158965,57.7367181 50.7204549,58.0016757 C50.7748965,58.1399421 50.8344261,58.2905469 50.8986621,58.4611221 L51.2228949,59.3207397 L50.3851557,58.9438461 C50.2654605,58.8899133 50.1614109,58.8438669 50.0676644,58.8025269 C49.8872948,58.7226453 49.7448308,58.6595541 49.6010948,58.5898485 C49.09433,58.3440981 48.5883284,58.0975845 48.0821996,57.8508165 C46.7106019,57.1823805 45.2924491,56.4913028 43.8891786,55.8324068 C43.8211266,55.8003524 43.7562546,55.7605388 43.6936722,55.7222516 C43.6440642,55.6915964 43.5678714,55.644914 43.517373,55.6237988 C43.5094866,55.6361372 43.4994378,55.6533092 43.4879898,55.676714 C43.421337,55.813454 43.3535394,56.0102324 43.409253,56.170886 C43.4489394,56.2854932 43.5519714,56.3835644 43.7154234,56.4625556 C45.3543955,57.2545029 46.9926043,58.0481037 48.6292868,58.8450117 C48.907982,58.9807341 49.1249852,59.1407517 49.3120964,59.3485965 L49.7276588,59.8102054 L49.1281652,59.9723854 C48.3867164,60.1727254 47.7588572,60.3062854 47.1049219,60.3062854 C46.6262683,60.3062854 46.1856475,60.2325094 45.7581283,60.0807598 C45.5907331,60.0216118 45.4235923,59.9618278 45.2561971,59.9019166 C44.524161,59.640139 43.7671938,59.3697117 43.0153146,59.1457125 C41.8390962,58.7952765 40.6336217,58.8240237 39.4353977,59.2315725 C38.7806992,59.4539181 38.1243472,59.6716846 37.4681224,59.8893238 C36.5344744,60.1990558 35.5690263,60.5193454 34.6258383,60.8481574 C34.2691695,60.9724318 33.9220407,61.0328518 33.5647359,61.0328518 C33.1297118,61.0328518 32.6855294,60.9412678 32.2068758,60.7530118 C30.4315453,60.0540478 28.5702277,59.3557197 26.5159476,58.6178325 C25.7728452,58.3509669 25.0045571,58.2154989 24.2327075,58.2154989 C23.3878451,58.2154989 22.5060947,58.3779333 21.6120058,58.6978413 C20.034853,59.2623549 18.6097041,59.7644134 17.1380001,60.1918054 C16.2472184,60.4507846 15.3532568,60.5819278 14.4811736,60.5819278 C13.1528239,60.5819278 11.8689943,60.2803366 10.665555,59.6855494 C8.88399176,58.8048165 7.04188129,58.6128717 5.47477724,58.5412581 C5.10004602,58.5240861 4.72289801,58.4894877 4.3237444,58.4528541 C4.12900119,58.4349189 3.92573558,58.4160933 3.70911397,58.3981581 L3.09359315,58.3470237 L3.41477316,57.8195253 Z M14.9930264,38.678087 C19.1082009,31.5527243 22.6508483,25.6318185 26.5641564,19.8947167 C27.0042684,19.2494311 27.5158668,18.5898991 28.2229717,17.756103 C28.4800429,17.4531126 28.7404213,17.181159 29.0995069,17.181159 C29.4498157,17.181159 29.7162997,17.4499326 29.9592517,17.7251934 C30.6331573,18.4892839 31.1583662,19.1449999 31.6124702,19.7890135 C35.7789063,25.6997433 39.1916825,32.0359572 41.9804154,37.454423 C42.551289,38.563607 43.0911258,39.7082798 43.6131546,40.8153015 L43.919961,41.4649119 C44.0126898,41.6610543 44.0678946,41.8657191 44.1318762,42.1024383 C44.1639306,42.2217519 44.1999282,42.3548031 44.2459746,42.5070615 L44.5157658,43.3980976 L43.6981242,42.9527704 C43.3727466,42.7754535 43.0663218,42.6051327 42.7717266,42.4414263 C42.1765578,42.1105791 41.6144609,41.7981759 41.0526185,41.5171911 C40.7665457,41.3742183 40.5235937,41.2480359 40.3147313,41.1394071 C39.8342969,40.8898407 39.4874225,40.7094711 39.3300761,40.7094711 C39.2144513,40.7094711 39.0412049,40.8945471 38.6912776,41.2798359 C38.513452,41.4757239 38.2918696,41.7195663 38.0083408,42.0090735 C37.06846,42.9686704 36.1214559,43.957396 35.1128871,45.0317272 C34.8078615,45.3567232 34.4999103,45.5147056 34.1713527,45.5147056 C33.8520807,45.5147056 33.5432391,45.3633376 33.2272742,45.051952 C31.9897454,43.8323584 30.5242741,42.3953799 29.0369245,40.9852407 L28.8723277,40.8285303 C28.6569781,40.6232295 28.4524405,40.4281047 28.3592029,40.3728999 C28.2994189,40.4062263 28.1855749,40.4945031 28.0835605,40.5737487 C27.9741685,40.6585911 27.8381916,40.7641671 27.6696516,40.8844983 C26.592522,41.6535495 25.50687,42.4509663 24.4568339,43.2220528 C23.5432835,43.8929056 22.5986963,44.5866544 21.6619954,45.2600512 C21.250885,45.555664 21.0038626,45.7229321 20.710285,45.7229321 C20.3393698,45.7229321 20.1071026,45.46726 19.722577,45.0435568 C19.1366937,44.3980168 18.5525913,43.7509504 17.9684889,43.103884 C17.0493417,42.0857751 16.0991576,41.0329407 15.1572416,40.004783 C14.8917752,39.7148942 14.6329232,39.3021302 14.9930264,38.678087 L14.9930264,38.678087 Z M44.6418211,38.8341614 L44.6851963,38.777303 C45.8078635,37.3082701 46.9686907,35.7892477 48.1712396,34.3404396 C48.382646,34.0859124 48.6451868,33.8256612 48.98939,33.8256612 C49.3778588,33.8256612 49.6396364,34.1468412 49.8649076,34.49397 L50.0119508,34.7205133 C50.7168933,35.8062925 51.4460037,36.9290869 52.0587261,38.0983094 C53.150611,40.1822271 54.2003926,42.3294903 55.2154486,44.4060304 L55.631011,45.2557264 C55.9066535,45.8185865 55.6028998,46.6204553 55.5033022,46.8527225 C55.3864054,47.1251849 55.0582294,47.7765761 54.5359462,47.9410457 C54.4806142,47.9584721 54.4215934,47.9672489 54.3605374,47.9672489 C54.0602182,47.9672489 53.7628246,47.7520265 53.6489806,47.6594249 C52.6215861,46.8249929 51.7623501,46.1171249 50.9083293,45.3745312 C50.7831645,45.2657752 50.6768253,45.2105704 50.5922373,45.2105704 C50.5034517,45.2105704 50.3906253,45.27328 50.2564293,45.3971728 C49.8996332,45.7266209 49.5341876,46.0480553 49.1472452,46.3884425 C48.9729812,46.5417185 48.7933748,46.6998281 48.6066452,46.8654425 L48.2381468,47.1923465 L47.3263771,45.4121824 C46.3964179,43.598056 45.4347859,41.7222375 44.512713,39.8777102 C44.3546034,39.561491 44.4517842,39.0828374 44.6418211,38.8341614 L44.6418211,38.8341614 Z M58.5624624,51.8164483 L57.6709175,51.4866187 C57.5583455,51.4450243 57.4607831,51.4020307 57.3746687,51.3641251 C57.2548463,51.3114643 57.1415111,51.2616019 57.0812183,51.2607115 L57.0603575,51.2605843 C56.8625615,51.2605843 56.7356159,51.3005251 56.7007631,51.3216403 C56.6984735,51.3243115 56.6966927,51.3269827 56.6949119,51.3293995 C56.7148823,51.3536947 56.7609287,51.3969427 56.8474247,51.4450243 C56.9704271,51.5133307 57.0850343,51.5887603 57.1958255,51.6616459 C57.3615671,51.7709107 57.5182775,51.8740699 57.6747335,51.9338539 C58.8303456,52.3753651 59.1477096,53.3597659 59.427804,54.2282876 C59.491404,54.4253204 59.5514424,54.6115412 59.620512,54.7936916 L60.0323856,55.8792164 L56.3463839,53.5005763 C56.1456623,53.7576475 56.1306527,53.8641139 56.1362495,53.9018923 C56.1422279,53.9418331 56.1999767,54.060638 56.6047271,54.2999012 C56.9694095,54.5152508 57.3321839,54.7342892 57.6948311,54.9533276 C58.3527095,55.350446 59.0329752,55.7610476 59.7117144,56.1413756 C60.5182896,56.5930628 60.9397032,57.3006765 61.3243561,58.2240213 L61.6595281,59.0289429 L60.8407416,58.7290053 C60.731604,58.6890645 60.634296,58.6566285 60.5456376,58.6272453 C60.358272,58.5647901 60.1964736,58.5111117 60.0373464,58.4258877 C59.5628904,58.1721237 59.0899608,57.9155613 58.6171584,57.6588717 C57.7842527,57.2068029 56.9229815,56.7392156 56.0684519,56.2979588 C56.0292743,56.2776068 55.9160663,56.247842 55.7971343,56.247842 C55.7847959,56.247842 55.7741111,56.2480964 55.7649527,56.2486052 C55.7303543,56.3071172 55.7052959,56.3803844 55.7201783,56.4595028 C55.7382407,56.5549028 55.8115079,56.6450876 55.9211543,56.7067796 L56.7791183,57.1896309 C57.7865423,57.7561797 58.8283104,58.3419357 59.8492176,58.9261653 C60.046632,59.0391189 60.2207688,59.1679725 60.4222536,59.3169237 C60.5168904,59.3868837 60.6178872,59.4616773 60.7300776,59.540923 L61.2802177,59.9293918 L60.664188,60.201727 C60.2694864,60.3762454 59.9138352,60.4609606 59.5768824,60.4609606 C59.2960248,60.4609606 59.0275056,60.4035934 58.7559336,60.2859334 C57.9789959,59.9488534 57.2018039,59.611519 56.4269015,59.2697325 C55.4297806,58.8301293 54.6422854,58.6977141 53.8703086,58.8330549 C53.7883918,58.8474285 53.7091462,58.8548061 53.6349886,58.8548061 C52.9885582,58.8548061 52.7651949,58.3091181 52.6916733,58.1297661 C52.0903989,56.6613692 51.4850541,55.1943716 50.8797093,53.7273739 C50.1100221,51.8617315 49.3140044,49.9326162 48.5393564,48.0314849 C48.41699,47.7307841 48.4957268,47.2723553 48.7113308,47.0301665 C48.9400364,46.7730953 49.1963444,46.5493505 49.4442572,46.3329833 C49.5653516,46.2272801 49.6865732,46.1215769 49.8039788,46.0121849 C50.0064812,45.8234201 50.2100013,45.7315817 50.4257325,45.7315817 C50.7310125,45.7315817 50.9649333,45.9161489 51.1722693,46.1157257 C52.2080589,47.1120833 53.0823046,47.9101361 53.9236054,48.6270354 C54.1463326,48.8168178 54.2868886,48.9171786 54.3414574,48.9251922 C54.4109086,48.9056034 54.6500446,48.6612522 54.7650334,48.5438466 C54.8975758,48.4083785 55.0298638,48.2628617 55.1576998,48.1220513 L55.2744694,47.9935793 C55.3786462,47.8798625 55.4815584,47.7653825 55.6092598,47.6234273 L56.2020119,46.9659305 L58.5624624,51.8164483 Z M30.7103677,2.53725849 C31.524575,2.43155529 32.3384006,2.32216328 33.1519718,2.21277128 C34.4557719,2.03736247 35.8039647,1.85610247 37.1329504,1.69366806 C37.867276,1.60399206 38.6054176,1.54675206 39.3871889,1.48633205 C39.7556873,1.45771205 40.1358881,1.42832885 40.5330065,1.39423925 L41.0989193,1.34539445 L40.9299977,1.88790247 C40.8566033,2.12347688 40.7914769,2.35078328 40.7285129,2.57083929 C40.5883385,3.06017771 40.4559233,3.52242253 40.2647417,3.96876734 C39.9656945,4.66696817 40.0005473,5.21965219 40.3812569,5.81685621 C40.7717609,6.42919703 41.0710625,7.09661546 41.3604425,7.74215548 L41.4339641,7.90548029 C41.5372505,8.13507629 41.5742657,8.3804451 41.6070833,8.59693951 C41.6200577,8.68343551 41.6330321,8.76993152 41.6505857,8.85439232 L41.7205457,9.19223553 L40.8655073,9.46151794 L38.3488552,5.19065059 C38.2823296,5.22181459 38.2230544,5.25170659 38.1843856,5.27638339 C38.2172032,5.38106899 38.3193448,5.583953 38.384344,5.71331541 C38.7992704,6.53833464 39.2152145,7.36284507 39.6343385,8.1934611 L40.3930865,9.69785555 L39.8758913,9.77900915 C39.4827161,9.84070116 39.2284433,9.87822516 39.0106768,9.87822516 C38.3110768,9.87822516 38.1084472,9.45859234 37.7727664,8.76318992 C37.4439544,8.08203389 37.0524328,7.28118266 36.6413224,6.50640744 C36.4135072,6.07698022 36.3113656,6.07201942 36.307168,6.07201942 C36.2746048,6.07201942 36.1873455,6.09173542 35.9899311,6.23954183 L38.0361976,10.2998932 L37.3173904,10.2019492 C37.11298,10.1740924 36.9216712,10.151578 36.740284,10.1302084 C36.2939392,10.0775476 35.9085231,10.0321372 35.5204359,9.93381156 C35.1155583,9.83103396 34.8648471,9.36382834 34.7976855,9.22314513 C34.5258591,8.65379791 34.2715863,8.06982269 34.0255815,7.50505467 C33.9810615,7.40265867 33.9364143,7.30026266 33.8918943,7.19812106 C33.7620231,7.25103626 33.6430911,7.30535066 33.5945007,7.34541867 C33.6034047,7.44552507 33.7120335,7.71328108 33.7660935,7.84658668 C33.9055047,8.1897723 34.0356303,8.53969951 34.1616855,8.87817872 C34.2177807,9.02903793 34.2738759,9.17989713 34.3307343,9.32999314 L34.4580615,9.66618275 L34.1301399,9.81322595 C33.7853007,9.96802836 33.5139831,10.0400236 33.2762462,10.0400236 C32.6721734,10.0400236 32.3674022,9.58960835 32.1693518,9.19732353 C31.976135,8.81457872 31.7902958,8.4245835 31.6106894,8.04743549 C31.5707486,7.96361069 31.5308078,7.88004028 31.4911214,7.79659708 C31.3989014,7.80906268 31.3054094,7.82445388 31.2414278,7.84175308 C31.2710654,7.96793549 31.3603598,8.1890091 31.3938134,8.2719435 C31.5038414,8.54415151 31.6006406,8.82195632 31.6942598,9.09060273 L31.7264414,9.18294993 C31.7558246,9.26741073 31.7673998,9.34500274 31.7785934,9.42017794 C31.7830454,9.44981554 31.787879,9.48199714 31.7943662,9.51774034 L31.8538958,9.84057396 L31.369391,10.0082236 C31.242191,10.0526164 31.120715,10.094974 30.9987302,10.135042 C30.859319,10.1807068 30.736571,10.2029668 30.6232357,10.2029668 C30.4136101,10.2029668 29.9241445,10.1182516 29.9096437,9.33304594 C29.8761901,7.54588587 29.8352317,5.6247842 29.7614557,3.68498413 C29.7357613,3.00853451 30.0550333,2.62248249 30.7103677,2.53725849 L30.7103677,2.53725849 Z M2.22926912,61.0618534 C2.31105872,61.0188598 2.39297553,60.9759934 2.47489233,60.9338902 C3.74714678,60.2803366 4.96139802,59.962591 6.18722446,59.962591 C6.93147169,59.962591 7.68246052,60.0854662 8.41907574,60.3280366 C9.14780457,60.5678086 9.8982846,60.797023 10.6495278,61.0091926 C10.8758166,61.073047 11.1019782,61.1384278 11.3280126,61.2035542 C12.1194511,61.4321326 12.9377287,61.6684702 13.7485015,61.836247 C14.3448152,61.959631 14.936804,62.0220862 15.5083136,62.0220862 C16.835264,62.0220862 18.1198569,61.6839886 19.3267305,61.0173334 C20.7760474,60.2166094 22.3016842,59.8104598 23.8614107,59.8104598 C24.9638531,59.8104598 26.1035652,60.0139798 27.248874,60.4151686 C28.0401853,60.6923374 28.8387469,60.9862966 29.6111053,61.2705886 C29.8791157,61.3691686 30.1469989,61.4678758 30.4152637,61.565947 C31.5922454,61.9966462 32.7441686,62.3830799 33.8977455,62.3830799 C34.1651199,62.3830799 34.4291871,62.3620919 34.6825695,62.3206247 C35.8188471,62.1349126 37.0193608,61.812715 38.460664,61.3065862 C39.3061625,61.0098286 40.3149857,60.7063294 41.3862641,60.7063294 C41.7705353,60.7063294 42.151245,60.7460158 42.5179626,60.8242438 C44.106945,61.1631046 45.5399803,61.4738542 46.9854811,61.8446422 C47.75873,62.0430742 48.3751412,62.0227222 48.9869732,61.7812966 C49.2339956,61.6841158 49.4802548,61.5851542 49.7266412,61.4860654 C50.5132461,61.1701006 51.3265629,60.8433238 52.1506917,60.5751862 C52.7176221,60.390619 53.3355598,60.345463 53.8240078,60.4582894 C54.8210014,60.6880126 55.8223199,60.9589486 56.7906935,61.2208534 C57.4508615,61.3995694 58.1336711,61.5842638 58.806432,61.753567 C59.3435976,61.8886534 59.8822896,61.9572142 60.4073712,61.9572142 C61.7564545,61.9572142 63.0575833,61.523335 64.3790642,60.6315358 L64.3790642,60.5269774 C64.3008362,60.3383398 64.225025,60.148303 64.1494682,59.958139 C63.973805,59.5171366 63.7921633,59.0609973 63.5805025,58.6380573 C58.9366848,49.3560186 55.0340614,41.5673079 51.0823389,33.7253004 C50.7279597,33.0221388 49.9011596,32.5676532 48.9761612,32.5676532 C48.3640748,32.5676532 47.8188956,32.7726996 47.4408572,33.1451412 C46.8655315,33.7115628 46.3538059,34.3694412 45.8864731,34.9959013 C45.4449619,35.5878901 45.0288907,36.1981957 44.5883971,36.8442445 C44.3932722,37.1305717 44.1943314,37.4223686 43.9877586,37.7205254 L43.654113,38.2019774 L43.3484514,37.7023358 C43.2398226,37.5245102 43.1314482,37.3540621 43.0254906,37.1874301 C42.7966578,36.8273269 42.580545,36.4873213 42.389745,36.1228933 C41.8805634,35.1508309 41.3668025,34.1808036 40.8530417,33.2107764 C39.4766105,30.6116987 38.0532424,27.9240898 36.7423192,25.2338097 C35.0748543,21.8113664 32.877347,18.8993767 30.0243781,16.3313358 C29.7876589,16.118403 29.6247157,15.7422726 29.6367997,15.4369926 C29.6699989,14.6044685 29.7203701,13.7603693 29.7689605,12.9439997 C29.8002517,12.421462 29.8314157,11.8989244 29.8585093,11.3762596 C29.8750453,11.0577508 30.0182725,10.5186772 30.7936838,10.4875132 C30.970619,10.48039 31.1472998,10.4726308 31.324235,10.4649988 C31.8191702,10.4432476 32.3307686,10.4208604 32.8371518,10.414246 C33.8198991,10.4012716 34.8027735,10.3923676 35.7855207,10.3832092 C37.4861848,10.3675636 39.2448521,10.3514092 40.9729913,10.3146484 C41.6063201,10.3011652 42.0279882,10.1603548 42.2265474,9.89628756 C42.4315938,9.62331635 42.447621,9.15572913 42.2743746,8.50662751 C42.1939842,8.2056723 42.0932418,7.92735869 41.975073,7.67931868 C41.8327362,7.38078027 41.6799689,7.07855306 41.5320353,6.78624745 C41.2932809,6.31395383 41.0462585,5.82550581 40.8301457,5.32739059 C40.6811945,4.98420498 40.6666937,4.52234176 40.7942753,4.17801135 C40.9810049,3.67468093 41.2011881,3.18101771 41.4142481,2.7036361 C41.5420841,2.41718169 41.6742449,2.12080568 41.7962298,1.82862727 C42.1244058,1.04265844 42.1268226,0.82794483 42.099093,0.769941628 L42.0989658,0.769941628 C42.097821,0.769941628 42.0146322,0.694257625 41.5507337,0.694257625 C41.4025457,0.694257625 41.2251017,0.701508025 41.0082257,0.716517626 C38.9871448,0.855928831 36.9350272,1.11300004 34.9504527,1.36142165 L34.9064415,1.36689125 C33.8433039,1.50006965 32.8049702,1.66581126 31.7055806,1.84122007 C31.2215846,1.91855767 30.7347902,1.99627687 30.2434165,2.07132487 L29.8041949,2.13848648 L29.8041949,1.69417686 C29.8041949,1.60793526 29.8036861,1.52767206 29.8033045,1.45109765 C29.8024141,1.29222485 29.8016509,1.14925204 29.8049581,1.00653364 C29.8114453,0.718807226 29.8249285,0.120076804 29.7418669,0.027220801 C29.7414853,0.027220801 29.6990005,0 29.5272805,0 C29.3261773,0 29.0317093,0.0365064013 28.6955197,0.0806448029 C28.1569549,0.151240805 28.0578661,0.258852009 28.0723669,0.757857627 C28.1621701,3.85479614 28.2383629,7.22890346 28.3123933,11.3767684 C28.3313461,12.437998 28.3266397,13.4786213 28.3216789,14.5804277 C28.3193893,15.0766349 28.3170997,15.577803 28.3170997,16.085967 L28.3170997,16.5055998 L27.899502,16.4659134 C27.849894,16.461207 27.800286,16.4587902 27.7523316,16.4587902 C26.922606,16.4587902 26.3855676,17.1974406 25.8171108,17.979339 L25.782894,18.0262759 C24.9782267,19.1322799 24.2847323,20.1568759 23.6627243,21.158576 C22.4126026,23.1718976 21.224173,25.1794953 20.328685,26.7036058 C18.9446217,29.0589682 17.5426233,31.4569427 16.1869256,33.7760532 C13.6650583,38.0899142 11.057331,42.5505639 8.45812615,46.9182305 C6.58383408,50.0678298 4.62495401,53.2363819 2.73030994,56.3007572 C1.91673871,57.6168957 1.10291308,58.9331613 0.293285051,60.2517166 C-0.0488829618,60.8089798 -0.083226963,61.0566382 0.146623445,61.311547 C0.321777852,61.5057814 0.534456259,61.600291 0.797251469,61.600291 C0.957269075,61.600291 1.13191468,61.5648022 1.31635469,61.4952238 C1.6230339,61.3794718 1.91750191,61.2251782 2.22926912,61.0618534 L2.22926912,61.0618534 Z" id="Fill-15" fill="#212A47"></path>
                <path d="M19.8692894,33.6685438 C21.4791327,30.9275109 23.084524,28.2122996 24.6665104,25.4836051 C24.9436792,25.0055875 25.2894088,25.0330627 25.6808032,25.2230995 C26.1502985,25.4511691 25.9126889,25.7829067 25.7519081,26.0767387 C24.4114744,28.5281372 23.0827432,30.9861501 21.7159791,33.4226662 C21.1071999,34.5076822 20.9718591,34.5041206 19.8692894,33.6685438" id="Fill-17" fill="#454E81"></path>
                <path d="M47.4626211,40.6209526 C46.8801723,40.1332678 46.8230595,39.6790366 47.2204323,39.1372917 C47.5926195,38.6298909 47.9186331,38.0884005 48.2656347,37.5609021 C49.0816227,38.1288501 49.1188923,38.2701693 48.6286635,38.9877045 C48.2602923,39.5267781 47.8705515,40.0512238 47.4626211,40.6209526" id="Fill-19" fill="#454E81"></path>
            </g>
        </g>
    </g>
</svg>