<?xml version="1.0" encoding="UTF-8"?>
<svg width="46px" height="73px" viewBox="0 0 46 73" version="1.1" xmlns="http://www.w3.org/2000/svg" xmlns:xlink="http://www.w3.org/1999/xlink">
    <!-- Generator: Sketch 59.1 (86144) - https://sketch.com -->
    <title>Group 44@1.5x</title>
    <desc>Created with Sketch.</desc>
    <defs>
        <polygon id="path-1" points="0.258358224 0.263647956 27.0528518 0.263647956 27.0528518 22.8718933 0.258358224 22.8718933"></polygon>
    </defs>
    <g id="Page-1" stroke="none" stroke-width="1" fill="none" fill-rule="evenodd">
        <g id="screen2--copy-2" transform="translate(-246.000000, -422.000000)">
            <g id="Group-44" transform="translate(246.000000, 422.000000)">
                <path d="M7.08065294,24.6560916 L7.08065294,55.41114 L7.36243684,57.3059405 C7.36243684,57.3059405 7.2947654,61.2985558 7.36243684,61.5015701 C7.43010829,61.7045845 7.36243684,71.3139299 7.36243684,71.3139299 L7.39248297,72.1259873 L40.9951458,71.1109156 L40.3861028,32.8088768 C40.3861028,32.8088768 41.5365174,32.2675052 42.4839176,31.9968194 C42.4839176,31.9968194 47.1870832,30.6433905 45.0215969,25.9063892 C45.0215969,25.9063892 45.1569398,24.2484388 40.72446,24.3837817 L7.08065294,24.6560916 Z" id="Fill-1" fill="#F3D543"></path>
                <path d="M14.0693269,22.7623467 L13.9426459,17.9408915 C13.9426459,17.9408915 13.6784566,16.1419138 11.8740651,16.196863 L10.116773,16.196863 L23.0114318,1.09340817 L34.972766,15.1417298 L34.972766,16.196863 L34.250847,16.196863 L31.9048133,16.196863 L31.5439892,18.0418573 L31.6002918,22.2123132 L14.0281826,23.148074 L14.0693269,22.7623467 Z" id="Fill-3" fill="#3A7742"></path>
                <g id="Group-7" transform="translate(8.932631, 0.007038)">
                    <mask id="mask-2" fill="white">
                        <use xlink:href="#path-1"></use>
                    </mask>
                    <g id="Clip-6"></g>
                    <path d="M14.2680914,1.71373878 C10.1582691,6.4401833 6.17837601,11.01748 1.97760329,15.8486799 C2.89360399,15.9420665 3.59468018,15.9255546 4.2378296,16.110433 C4.66876138,16.2338657 5.32084344,16.6125552 5.35278436,16.9295282 C5.53143698,18.7100993 5.55552801,20.5066409 5.61318409,22.2983101 C5.61589094,22.3854709 5.43263667,22.4785868 5.1367771,22.7552277 C4.94188334,22.2547297 4.69420584,21.866837 4.6511668,21.4572894 C4.5520958,20.5185511 4.52421517,19.5689853 4.52123762,18.6237506 C4.51798939,17.4844341 3.96037667,16.9896205 2.85110632,17.0334716 C2.26561296,17.0567505 1.67335246,17.1125118 1.09652105,17.0459231 C0.795518458,17.0110046 0.330209591,16.7868768 0.279591349,16.5689747 C0.205694129,16.2495655 0.331292334,15.7669328 0.553796051,15.5130295 C4.73399665,10.7373202 8.9493864,5.99219832 13.1379783,1.22379751 C14.3027392,-0.101750787 14.3641849,-0.0649375202 15.4404316,1.39649504 C16.6950602,3.10073275 18.0690612,4.71835101 19.4130162,6.35518796 C21.6973335,9.13892059 24.0214417,11.8901709 26.272194,14.7007014 C26.6608988,15.1860411 26.767549,15.897674 27.0528518,16.6296084 C25.9511607,16.7118968 25.0614165,16.8307279 24.171943,16.8282917 C23.454355,16.8261262 23.2020758,17.101143 23.2429494,17.7927452 C23.3146811,18.9997331 23.3431031,20.2094279 23.3966989,21.4177692 C23.4156469,21.8503251 23.4546256,22.2817983 23.4844011,22.7140835 C23.3401256,22.7665965 23.1961207,22.8193802 23.0518452,22.8718933 C22.8499136,22.4645112 22.5093909,22.0703927 22.4704121,21.6481228 C22.3169333,19.9907138 22.2113658,18.3246428 22.2064935,16.6615493 C22.2054107,16.3424107 22.6929158,15.8221527 23.035604,15.7433831 C23.7672677,15.5750165 24.5514445,15.6348381 25.6041415,15.5882801 C21.7785393,10.9059574 18.0755577,6.37386528 14.2680914,1.71373878" id="Fill-5" fill="#30642C" mask="url(#mask-2)"></path>
                </g>
                <path d="M23.5697483,7.04936166 C21.1040715,9.44195333 18.662215,11.8599895 16.1513336,14.2038577 C15.6749267,14.6483237 15.2369571,15.6298304 13.9428083,14.8494433 C15.038003,13.8224614 16.0322319,12.8926557 17.0242953,11.9604139 C18.7872718,10.3035462 20.5304883,8.62529431 22.329466,7.0087588 C22.6231601,6.74456947 23.1580352,6.74944181 23.5813878,6.62979869 C23.5773275,6.76974325 23.5738086,6.90941711 23.5697483,7.04936166" id="Fill-8" fill="#28541A"></path>
                <path d="M16.7064019,16.1968901 C17.0206681,14.4358083 23.0396373,9.21996392 24.4572187,9.37479619 C21.7503609,11.505364 19.718864,14.1959807 16.7064019,16.1968901" id="Fill-10" fill="#28541A"></path>
                <path d="M16.947204,18.0353879 C19.0406879,15.3650726 23.4071203,11.8908206 24.545354,11.9525369 C23.9969446,13.2537235 17.8889198,18.2427332 16.947204,18.0353879" id="Fill-12" fill="#28541A"></path>
                <path d="M17.2004305,20.7578644 C17.4250998,19.7159948 23.5220264,14.5919128 24.677584,14.7767912 C22.1975609,16.9744891 19.8653321,19.0419872 17.5328327,21.1094852 C17.4218515,20.9922783 17.311141,20.875342 17.2004305,20.7578644" id="Fill-14" fill="#28541A"></path>
                <path d="M18.6040988,22.8276362 C19.1054088,21.4674401 23.4880824,17.5912196 24.6680018,17.7696016 C22.657077,19.6473489 20.7823073,21.3978738 18.9075375,23.1481281 C18.8065717,23.0412072 18.7050646,22.934557 18.6040988,22.8276362" id="Fill-16" fill="#28541A"></path>
                <path d="M10.235577,32.3561007 C11.5256654,29.3222544 11.4474373,28.7965826 9.17340596,25.0080643 C10.5417226,25.0080643 11.7221833,25.032426 12.901832,25.004004 C17.5817185,24.8900453 22.2613344,24.6770156 26.9417624,24.6580676 C31.9781421,24.6372248 37.0156046,24.7901622 42.0527964,24.8727214 C44.0220355,24.9052037 44.9461568,25.8910413 44.8330101,27.8169707 C44.6881932,30.2804821 43.4479109,31.7470576 41.0198594,31.8455873 C36.2582258,32.0385862 31.4898249,32.0559101 26.724131,32.1511915 C23.5830931,32.214532 20.4420553,32.3060238 17.3007467,32.3498749 C15.0185948,32.3818158 12.7356309,32.3561007 10.235577,32.3561007" id="Fill-18" fill="#7687CE"></path>
                <path d="M2.52154638,45.335024 C2.75623095,43.9396387 2.99091553,42.5442535 3.22560011,41.149139 C3.38855295,41.177561 3.55204716,41.2057123 3.71472932,41.234405 C3.46894663,42.627354 3.22316393,44.0208445 2.97711055,45.4140642 C2.82498514,45.387537 2.6734011,45.3612805 2.52154638,45.335024" id="Fill-20" fill="#FFFFFF"></path>
                <path d="M44.8331184,27.8171061 C44.6883015,30.2806174 43.4480192,31.747193 41.019697,31.8457226 C36.2580633,32.0387216 31.4896625,32.0557748 26.7242393,32.1513269 C23.5829307,32.2143967 20.4421635,32.3061591 17.3005843,32.3497395 C15.0184324,32.3816805 12.7357392,32.356236 10.2356853,32.356236 C11.525503,29.3223897 11.4472748,28.7964472 9.17351424,25.0081996 C10.5415602,25.0081996 11.7222916,25.0325614 12.9016696,25.0038687 C17.5815561,24.8901806 22.261172,24.6768802 26.9415999,24.6579322 C31.9782504,24.6373601 37.0154422,24.7900269 42.0529047,24.8728568 C44.0221438,24.9050684 44.946265,25.8911767 44.8331184,27.8171061 M45.9813675,27.3439473 C45.7805186,25.6467474 44.7857484,24.4497749 43.020877,24.1035677 C42.0296257,23.9092154 40.9769287,24.0329188 39.9521123,24.0009778 C35.3712967,23.8591385 30.7891277,23.5651737 26.2099363,23.6022577 C19.2024226,23.658831 12.1954504,23.918148 5.19091426,24.1620359 C4.37993964,24.1904579 3.52132433,24.5564251 2.79317956,24.9611003 C0.361609142,26.3126345 -0.0525401112,28.7119933 0.00511596136,31.1462705 C0.209213044,39.7427097 0.406272297,48.3423972 0.855069331,56.9277383 C1.01829286,60.0468506 0.342661137,60.3581392 4.28898922,60.3007539 C4.60433816,60.2958815 4.94810911,60.3979301 5.22853958,60.30319 C5.67354702,60.1529594 6.07632747,59.8779427 6.49697318,59.6557096 C6.15509703,59.3419848 5.81349157,59.02826 5.53089561,58.7686723 L7.00938137,58.7686723 C7.00938137,60.6956844 7.00477971,62.5358064 7.01046412,64.3759284 C7.01696057,66.6269514 7.24460732,68.905043 6.96336479,71.1187113 C6.79499823,72.4434476 7.12956586,72.5936782 8.18740592,72.5422479 C12.0124668,72.3562867 15.8367156,72.1161884 19.6642126,72.0274035 C26.5989117,71.8666161 33.5360471,71.8057118 40.4715583,71.680655 C40.887061,71.6730758 41.2987741,71.467896 41.7123819,71.3544786 C41.6920805,71.1514643 41.6717791,70.9481793 41.6514776,70.7448942 C36.121367,70.4476813 30.5712257,70.7738576 25.0397616,70.7584285 C19.3897372,70.7427288 13.73863,71.1731192 8.05531125,71.4096985 C7.99603106,71.0994926 7.91996836,70.8840267 7.91888562,70.6677488 C7.90156172,67.5194024 7.8734104,64.371056 7.89019292,61.2229803 C7.91590807,56.4150594 7.97275209,51.6079505 8.01876867,46.8003003 C8.05937154,42.5721883 8.11405007,38.344347 8.13732904,34.116235 C8.14166002,33.2714247 8.46296405,32.9945131 9.29721764,33.1352697 C10.1837136,33.2852296 11.0878041,33.4167829 11.9837741,33.4135347 C18.9598882,33.3894437 25.9357316,33.3271859 32.912387,33.2852296 C35.1460861,33.2716953 37.3803266,33.2830641 39.9163818,33.2830641 C39.9163818,35.8559325 39.8820047,38.3221507 39.9223368,40.7867448 C40.0636348,49.3880564 40.2249635,57.9893679 40.4017214,66.5898674 C40.4122781,67.1003808 40.6250371,67.6065632 40.7438682,68.1146405 C40.8989712,68.113287 41.0540741,68.1119336 41.2091771,68.1108509 C41.3312564,67.7221461 41.5599858,67.3328999 41.558091,66.9450072 C41.5461809,64.5562051 41.4925851,62.1671324 41.4338463,59.7788717 C41.2329974,51.605785 41.037833,43.4324277 40.8058552,35.2598824 C40.7649817,33.8171272 40.9371379,32.6737504 42.7436948,32.6252977 C43.0349527,32.6171771 43.3300002,32.4041474 43.6066411,32.2552702 C45.3363233,31.3205922 46.2314811,29.4609808 45.9813675,27.3439473" id="Fill-22" fill="#454E81"></path>
                <polygon id="Fill-24" fill="#454E81" points="3.11816492 60.2301319 7.33220124 60.2301319 7.33220124 57.1031697 5.22518308 56.4261846"></polygon>
                <path d="M12.1419899,42.1462642 C11.8309719,42.1462642 11.5307814,42.0109213 11.3810922,41.775966 C11.1694159,41.4435639 11.3329101,41.0388886 11.7497662,40.868898 C11.8875453,40.8123246 15.2080478,39.4959797 21.9418981,40.1218052 C22.4088311,40.1653856 22.7431281,40.5015774 22.6887202,40.8726876 C22.6340417,41.2440685 22.214208,41.5066337 21.7442975,41.4663015 C15.5829476,40.8932597 12.5531616,42.0626223 12.5231155,42.0745325 C12.4007655,42.1232559 12.2705657,42.1462642 12.1419899,42.1462642" id="Fill-26" fill="#EB7956"></path>
                <path d="M12.2540809,46.5200593 C11.9076031,46.5200593 11.5819681,46.351422 11.4547458,46.0783001 C11.2920636,45.7283033 11.514838,45.3401399 11.9549731,45.2096694 C12.1390394,45.1549908 16.5780157,43.8787074 25.6887579,44.4928934 C26.1573149,44.5245636 26.5048755,44.8520934 26.4653554,45.2242864 C26.4255646,45.5970207 26.0084378,45.8720375 25.5452944,45.84145 C16.8638598,45.2567687 12.5894606,46.4664635 12.5472336,46.4786443 C12.4505988,46.5067957 12.3515278,46.5200593 12.2540809,46.5200593" id="Fill-28" fill="#EB7956"></path>
                <path d="M16.4980821,61.7384743 C16.4980821,63.1587627 15.651377,63.6332749 14.2310887,63.6332749 C12.8108004,63.6332749 11.8287523,63.0572555 11.8287523,61.6369672 C11.8287523,60.2166789 12.8108004,59.1669594 14.2310887,59.1669594 C15.651377,59.1669594 16.4980821,60.318186 16.4980821,61.7384743" id="Fill-30" fill="#EB7956"></path>
                <path d="M23.9419413,53.347215 C23.9419413,54.7675033 23.0952361,55.2420155 21.6749478,55.2420155 C20.2546595,55.2420155 19.2726114,54.6659961 19.2726114,53.2457078 C19.2726114,51.8254195 20.2546595,50.7757 21.6749478,50.7757 C23.0952361,50.7757 23.9419413,51.9269266 23.9419413,53.347215" id="Fill-32" fill="#EB7956"></path>
                <path d="M31.3858004,60.7910741 C31.3858004,62.2113624 30.5390953,62.6858746 29.1188069,62.6858746 C27.6985186,62.6858746 26.7164706,62.1098552 26.7164706,60.6895669 C26.7164706,59.2692786 27.6985186,58.2195591 29.1188069,58.2195591 C30.5390953,58.2195591 31.3858004,59.3707858 31.3858004,60.7910741" id="Fill-34" fill="#EB7956"></path>
                <path d="M31.5888147,51.5877574 C31.5888147,53.0080457 32.4355199,53.4825579 33.8558082,53.4825579 C35.2760965,53.4825579 36.2581446,52.9065385 36.2581446,51.4862502 C36.2581446,50.0659619 35.2760965,49.0162424 33.8558082,49.0162424 C32.4355199,49.0162424 31.5888147,50.167469 31.5888147,51.5877574" id="Fill-36" fill="#EB7956"></path>
                <path d="M14.7388952,61.796347 L13.7931191,61.2203276 C14.0202244,60.9168888 19.3806151,53.7610394 21.5133484,52.1870015 L22.2366208,52.9839005 C20.2321926,54.4631983 14.7938444,61.7232618 14.7388952,61.796347" id="Fill-38" fill="#EB7956"></path>
                <path d="M29.3590947,62.3208007 L28.3031495,61.8427696 C28.46123,61.4556889 32.1980472,52.3203143 33.9588583,50.1323611 L34.8429181,50.9027328 C33.1879452,52.9591328 29.3975321,62.2274141 29.3590947,62.3208007" id="Fill-40" fill="#EB7956"></path>
                <path d="M29.4399756,61.5005686 C29.3774472,61.4280248 23.1546517,54.2589118 21.0370767,52.9214533 L21.6057876,51.9532102 C23.8595174,53.3767468 29.9932574,60.4427286 30.2533864,60.7426484 L29.4399756,61.5005686 Z" id="Fill-42" fill="#EB7956"></path>
            </g>
        </g>
    </g>
</svg>