<svg xmlns="http://www.w3.org/2000/svg" width="41" height="83" viewBox="0 0 41 83"><defs><clipPath id="u37ua"><path d="M0 31.29h11.534v32.066H0z"/></clipPath></defs><g><g><g><path fill="#637b7e" d="M12.96 81.334c.345-1.976.631-3.795 1.006-5.595.065-.313.502-.548.766-.819.216.387.655.804.61 1.158a58.632 58.632 0 0 1-.92 5.272c-.082.374-.606.65-.926.973l-.536-.989"/></g><g><path fill="#637b7e" d="M29.316 80.937c-.637-2.73-1.209-5.267-1.034-8.107 1.666 1.09 2.39 7.179 1.034 8.107"/></g><g><path fill="#637b7e" d="M21.71 82.831c-1.463-1.512-1.373-6.944.033-7.881.619 2.608.394 5.056-.034 7.881"/></g><g><path fill="#fff" d="M29.05 35.095c-.233 3.583-.472 7.716-.805 11.841-.04.505-.49 1.273-.91 1.404-4.138 1.293-8.373 1.785-12.705 1.26-1.264-.154-1.827-.644-1.958-2.07-.66-7.178-.749-14.361.314-21.475.666-4.457 2.02-8.813 3.114-13.202.084-.34.543-.824.844-.836 2.926-.116 5.855-.174 8.783-.153.288.002.753.61.826.995.613 3.232 1.322 6.46 1.675 9.726.428 3.963.538 7.962.822 12.51m-8.558-7.956c1.307-.037 3.175-1.903 3.153-3.15-.024-1.317-2.407-3.375-3.892-3.36-.94.01-2.4 1.935-2.38 3.139.031 1.818 1.509 3.416 3.119 3.37m.468 14.649c1.773.06 3.374-1.165 3.447-2.64.087-1.75-1.641-3.434-3.62-3.526-1.455-.068-2.705 1.51-2.784 3.513-.062 1.573 1.07 2.588 2.957 2.653"/></g><g><path fill="#fff" d="M23.59 57.94l1.204 2.66-.356.222-1.068-.932-1.191 1.798c-.303-2.284-1.523-1.401-2.605-.929-.08-2.174.045-2.262 4.017-2.819"/></g><g><path fill="#fff" d="M17.13 10.704l.953-3.324c.403.293.826.527.801.593-.369.987-.797 1.951-1.211 2.92-.182-.062-.362-.126-.543-.189"/></g><g><path fill="#637b7e" d="M20.489 27.131c-1.61.045-3.088-1.55-3.119-3.367-.02-1.202 1.44-3.124 2.38-3.134 1.485-.015 3.868 2.04 3.891 3.356.023 1.245-1.846 3.108-3.152 3.145"/></g><g><path fill="#637b7e" d="M20.96 41.77c-1.888-.065-3.02-1.077-2.958-2.645.08-1.997 1.33-3.57 2.784-3.503 1.979.092 3.707 1.77 3.62 3.516-.073 1.47-1.673 2.692-3.446 2.632m2.527-2.634c.015-1.21-.7-2.227-1.882-2.26-1.259-.035-1.839.763-2.199 1.585.824-.342 1.678-1.02 2.406-.904.657.105 1.178 1.076 1.675 1.58"/></g><g><path fill="#fff" d="M23.49 39.141c-.496-.504-1.017-1.474-1.675-1.58-.727-.115-1.58.562-2.405.905.36-.822.94-1.62 2.199-1.585 1.183.033 1.897 1.05 1.882 2.26"/></g><g><path fill="#eb7956" d="M15.793 56.06l-1.703 5.2v4.175h1.393l1.2-.74 1.32 1.715 1.553 4.275 2.302-4.2 1.789 4.2v.675l.765-.975 1.06-3.9v-1.2l1.636 1.125.525-4.728h1.5l-1.8-4.067-1.125-2.305z"/></g><g><path fill="#97c2fc" d="M37.912 43.437c1.679 4.315 2.366 8.859 2.07 13.507-.082 1.28-.233 2.58-.576 3.809-.122.436-.873.842-1.403.958-.26.056-.86-.527-.982-.921-1.228-3.97-3.776-6.977-6.866-9.601-.224-.19-.503-.32-.768-.454-.075-.038-.19.005-.445.02-.096.899-.328 1.832-.265 2.745.136 1.994-.87 3.012-2.64 3.534-.47.138-.914.362-1.463.585l.025.064c-2.728.702-5.85.452-8.173.065l-.626-.132-.005.02a32.027 32.027 0 0 1-1.07-.22 7.96 7.96 0 0 1-.593-.705c-1.433-1.933-1.953-4.42-2.471-7.096-5.017 3.683-7.351 8.902-9.26 14.409-.149-.016-.297-.033-.446-.048-.23-.494-.555-.965-.676-1.483-2.205-9.44-.943-18.27 4.88-26.188 1.042-1.416 2.49-2.58 3.909-3.652.76-.574 1.108-1.078 1.194-2.023.842-9.227 2.926-18.126 7.205-26.416.48-.928 1.06-1.808 1.654-2.668.732-1.062 1.57-1.085 2.472-.155 2.144 2.212 3.34 4.931 4.249 7.816 2.3 7.31 3.107 14.834 3.287 22.457.014.57.31 1.393.741 1.65 3.901 2.314 5.526 6.226 7.042 10.123M18.088 7.381l-.953 3.334.543.19c.414-.972.842-1.939 1.211-2.928.025-.067-.398-.302-.8-.596m10.16 39.542c.333-4.124.572-8.255.805-11.838-.284-4.547-.394-8.544-.822-12.507-.353-3.264-1.062-6.491-1.676-9.723-.073-.385-.538-.992-.825-.994-2.928-.022-5.857.037-8.783.152-.301.012-.76.496-.845.836-1.093 4.388-2.448 8.743-3.113 13.199-1.063 7.111-.974 14.293-.314 21.468.131 1.427.693 1.916 1.958 2.07 4.332.525 8.567.033 12.706-1.259.42-.131.868-.9.909-1.404"/></g><g><path fill="#b04d42" d="M16.42 57.745c2.324.387 5.445.636 8.173-.065.317.82.706 1.55.838 2.322.101.587-.006 1.323-.31 1.813-.127.205-1.004-.055-1.605-.11-1.355 2.1-1.355 2.1-2.697-.509-.328.209-.634.442-.972.609-.367.18-.764.3-1.148.446-.092-.445-.299-.903-.251-1.333.093-.835.329-1.655.538-2.634l-2.566-.54m8.376 2.846l-1.205-2.658c-3.98.557-4.104.645-4.024 2.817 1.084-.472 2.306-1.354 2.61.929l1.193-1.798 1.07.932.356-.222"/></g><g><path fill="#b04d42" d="M13.454 64.994c-.092.62.282 1.309.506 2.23l2.858-2.291 2.773 6.827.615-.033 1.833-4.054 1.471 4.672.65.029 1.889-5.662 1.403.582.821-4.513c1.74.476 1.417-.705 1.128-1.62-.388-1.23-.931-2.417-1.485-3.585-.125-.263-.568-.374-.864-.556a75.06 75.06 0 0 1-.29.23l1.635 3.978c-1.044-.385-1.534-.375-1.372.857.133 1.02-.086 2.088-.151 3.176-.762-.36-1.268-.597-1.774-.835l-.28 1.674-.637 3.758-.28-.089-1.794-4.21-.466.108-1.776 4.214c-.544-1.434-.96-2.554-1.394-3.667-1.192-3.06-1.194-3.057-3.784-1.03-.062.048-.186.018-.61.049l1.717-7.597a32.054 32.054 0 0 1-1.07-.22c.027.029.052.06.08.088-.465 2.504-.98 4.986-1.352 7.49"/></g><g><path fill="#4878ed" d="M20.14 58.671c-1.62 0-3.47-.227-5.544-.819a.45.45 0 0 1 .248-.866c8.313 2.374 12.886-1.47 12.931-1.509.404-.342.529-4.93.376-6.913a.45.45 0 1 1 .897-.069c.083 1.071.26 6.862-.687 7.666-.15.13-2.982 2.51-8.221 2.51"/></g><g><path fill="#4878ed" d="M39.906 58.07c-.02 0-.038-.002-.057-.004a.45.45 0 0 1-.39-.502c1.896-15.263-9.09-23.841-9.202-23.926a.45.45 0 0 1 .546-.716c.115.089 11.508 8.984 9.548 24.753a.45.45 0 0 1-.445.394"/></g><g><path fill="#4878ed" d="M2.03 63.785a.45.45 0 0 1-.44-.55c.076-.33 1.918-8.141 9.243-14.563a.45.45 0 1 1 .594.676c-7.108 6.232-8.94 14.009-8.958 14.087a.45.45 0 0 1-.439.35"/></g><g><path fill="#4878ed" d="M29.768 33.432c-.235 0-.076-1.494-.093-1.732-1.837-27.268-8.343-30.527-8.408-30.557a.453.453 0 0 1-.23-.591.446.446 0 0 1 .583-.237c.288.12 7.091 4.819 8.982 32.877.017.248-.154.114-.403.13-.01.002-.712.353-.431.11"/></g><g><path fill="none" stroke="#4878ed" stroke-linecap="round" stroke-miterlimit="50" stroke-width=".9" d="M29.05 50.06s5.407 2.513 8.67 11.137"/></g><g><g/><g clip-path="url(#u37ua)"><path fill="#4878ed" d="M1.501 63.355C-1.8 52.358.961 44.228 3.858 39.346c3.14-5.293 7.01-7.945 7.172-8.055l.504.746c-.038.026-3.888 2.67-6.923 7.803C1.82 44.562-.839 52.43 2.363 63.097z"/></g></g><g><path fill="#4878ed" d="M11.283 36.072a.45.45 0 0 1-.45-.431C9.938 13.62 20.548.298 20.654.166a.45.45 0 1 1 .7.568c-.106.13-10.502 13.207-9.62 34.87a.45.45 0 0 1-.431.468h-.019"/></g><g><path fill="none" stroke="#4878ed" stroke-linecap="round" stroke-miterlimit="50" stroke-width=".9" d="M11.23 44.11s-.075 9.975 3.574 13.393"/></g></g></g></svg>