<svg xmlns="http://www.w3.org/2000/svg" width="243" height="47" viewBox="0 0 243 47"><defs><clipPath id="imwia"><path d="M27.31 12.01h9.698v10.874H27.31z"/></clipPath></defs><g><g><path fill="#0b140e" d="M132.481 45.192c-31.635 0-63.267.443-94.9.801-9.425.107-17.095.262-26.384-.8-5.306-.608-7.769-5.489-8.939-8.745C.454 31.428 1.164 23.53.897 18.205.273 5.843 4.69.625 18.847.596c9.148-.019 18.033.095 27.05.03C87.849.314 129.29-.596 171.245.595c8.197.233 11.872.36 13.3.425 1.608-.004 5.317.018 13.012.1 20.238.22 1.914.192 22.148.616 3.48.071 10.164-.565 13.592 0 7.317 1.204 9.906 9.397 8.488 16.42-.98 4.861-.918 9.642-.749 14.456.178 5.104 1.127 11.304-4.316 11.906-5.83.647-11.694 1.301-17.552 1.375-2.224.028-3.608.05-4.4.065h-2.211c-12.417-.073-19.352-.187-24.952.034-16.729.662-17.61-.8-55.124-.8zm82.287.767c8.714.01-4.276.086 0 0zm1.22-2.1c10.645-.02 13.072-.384 18.01-1.165 4.939-.782 4.213-2.706 4.213-12.204 0-5.196.38-8.494.662-12.845.493-7.621 1.105-12.586-8.164-13.207-11.55-.773-13.064.173-25.197.01-80.41-1.083-64.72-1.654-145.139-1.855-8.229-.02-14.372.139-24.563.139-10.192 0-12.064-1.06-18.468-.14C9.737 3.689 4.691 5.959 4.163 12.779c-.505 6.52-.843 15.335 1.012 22.219 1.223 4.534 5.228 7.978 10.796 8.392 5.568.414 10.352-.437 14.017-.399 37.51.385 72.835-.619 110.345-.296 30.162.258 34.403 1.933 64.573 1.296 2.57-.052 4.482-.094 5.87-.129 1.32.002 3.032.001 5.213-.003z"/></g><g><g><g><path d="M32.68 33.662c-1.494-.025-2.936-.321-4.339-.818-1.868-.662-3.605-1.576-5.159-2.813-1.707-1.36-3.006-3.047-3.932-5.02-.632-1.346-1.058-2.752-1.196-4.236-.134-1.443-.035-2.864.469-4.237.249-.68.602-1.3 1.1-1.829a4.305 4.305 0 0 1 2.315-1.278c.085-.018.137-.04.154-.141.021-.132.123-.206.252-.232.126-.026.239.01.304.125.697 1.223 1.684 2.207 2.627 3.228.593.64 1.163 1.298 1.623 2.044.28.455.5.937.69 1.436.16.423-.17.747-.532.718-.342-.028-.682-.07-1.024-.098-.476-.04-.951-.09-1.427-.101-.256-.007-.516.043-.77.094-.223.045-.38.185-.476.405-.39.89-.413 1.803-.179 2.731.222.88.648 1.657 1.195 2.374.752.986 1.6 1.871 2.632 2.57.813.549 1.698.922 2.668 1.077.212.034.435.04.649.016.354-.04.497-.236.45-.59-.053-.399-.124-.795-.18-1.193-.115-.822-.123-1.64.141-2.437.264-.797.776-1.34 1.617-1.526.64-.14 1.239.006 1.813.287.75.369 1.387.893 1.962 1.489.448.464.86.96 1.293 1.44a.451.451 0 0 0 .18.114c.142.05.232.137.276.283.383 1.247.275 2.453-.375 3.58-.86 1.49-2.17 2.312-3.881 2.48-.313.03-.627.039-.94.058M21.131 14.667c-.209.201-.408.385-.598.577-.707.716-1.207 1.546-1.412 2.544-.268 1.307-.221 2.608.077 3.9.368 1.598 1.013 3.083 1.88 4.472.808 1.292 1.808 2.41 3.038 3.314.789.58 1.641 1.055 2.513 1.493 1.712.859 3.492 1.497 5.423 1.626.764.052 1.524.016 2.271-.164 1.125-.273 1.95-.902 2.348-2.019.104-.292.169-.598.249-.89-.124-.023-.216-.03-.3-.058a9.056 9.056 0 0 1-3.34-1.92 7.38 7.38 0 0 1-1.24-1.444c-.122-.187-.033-.376.18-.39.112-.008.19.05.254.135a6.78 6.78 0 0 0 2.007 1.802c.805.471 1.638.893 2.46 1.336.009.004.023 0 .04-.002.034-.275.07-.549.099-.823.003-.03-.023-.073-.048-.094-.09-.073-.196-.128-.277-.208-.196-.195-.38-.402-.57-.602-.578-.607-1.168-1.202-1.847-1.7-.376-.275-.768-.523-1.227-.641-.574-.149-1.014.036-1.305.552-.258.46-.352.959-.304 1.479.034.379.096.755.153 1.132.07.465.138.93.06 1.4-.097.584-.435.955-1.013 1.1a2.662 2.662 0 0 1-.986.041 6.636 6.636 0 0 1-2.594-.893c-1.339-.801-2.5-1.814-3.444-3.061-.847-1.12-1.429-2.353-1.549-3.771-.055-.647-.02-1.29.164-1.917.24-.81.769-1.295 1.615-1.414.092-.013.184-.028.276-.043-.321-.414-.647-.808-.943-1.223a28.617 28.617 0 0 1-1.176-1.736c-.36-.593-.783-1.161-.934-1.89m.394-.33c.25.405.487.781.716 1.16.313.517.6 1.049.935 1.55.597.898 1.364 1.654 2.101 2.434a.2.2 0 0 0 .12.054c.305.024.61.042.916.06.022.002.045-.005.076-.01-.016-.038-.026-.065-.038-.09a6.605 6.605 0 0 0-.915-1.396c-.572-.669-1.164-1.32-1.744-1.982-.605-.69-1.15-1.42-1.478-2.29-.005-.014-.019-.024-.033-.04-.226.188-.446.373-.656.55"/><path fill="none" stroke="#000" stroke-miterlimit="50" stroke-width=".77" d="M32.68 33.662c-1.494-.025-2.936-.321-4.339-.818-1.868-.662-3.605-1.576-5.159-2.813-1.707-1.36-3.006-3.047-3.932-5.02-.632-1.346-1.058-2.752-1.196-4.236-.134-1.443-.035-2.864.469-4.237.249-.68.602-1.3 1.1-1.829a4.305 4.305 0 0 1 2.315-1.278c.085-.018.137-.04.154-.141.021-.132.123-.206.252-.232.126-.026.239.01.304.125.697 1.223 1.684 2.207 2.627 3.228.593.64 1.163 1.298 1.623 2.044.28.455.5.937.69 1.436.16.423-.17.747-.532.718-.342-.028-.682-.07-1.024-.098-.476-.04-.951-.09-1.427-.101-.256-.007-.516.043-.77.094-.223.045-.38.185-.476.405-.39.89-.413 1.803-.179 2.731.222.88.648 1.657 1.195 2.374.752.986 1.6 1.871 2.632 2.57.813.549 1.698.922 2.668 1.077.212.034.435.04.649.016.354-.04.497-.236.45-.59-.053-.399-.124-.795-.18-1.193-.115-.822-.123-1.64.141-2.437.264-.797.776-1.34 1.617-1.526.64-.14 1.239.006 1.813.287.75.369 1.387.893 1.962 1.489.448.464.86.96 1.293 1.44a.451.451 0 0 0 .18.114c.142.05.232.137.276.283.383 1.247.275 2.453-.375 3.58-.86 1.49-2.17 2.312-3.881 2.48-.313.03-.627.039-.94.058M21.131 14.667c-.209.201-.408.385-.598.577-.707.716-1.207 1.546-1.412 2.544-.268 1.307-.221 2.608.077 3.9.368 1.598 1.013 3.083 1.88 4.472.808 1.292 1.808 2.41 3.038 3.314.789.58 1.641 1.055 2.513 1.493 1.712.859 3.492 1.497 5.423 1.626.764.052 1.524.016 2.271-.164 1.125-.273 1.95-.902 2.348-2.019.104-.292.169-.598.249-.89-.124-.023-.216-.03-.3-.058a9.056 9.056 0 0 1-3.34-1.92 7.38 7.38 0 0 1-1.24-1.444c-.122-.187-.033-.376.18-.39.112-.008.19.05.254.135a6.78 6.78 0 0 0 2.007 1.802c.805.471 1.638.893 2.46 1.336.009.004.023 0 .04-.002.034-.275.07-.549.099-.823.003-.03-.023-.073-.048-.094-.09-.073-.196-.128-.277-.208-.196-.195-.38-.402-.57-.602-.578-.607-1.168-1.202-1.847-1.7-.376-.275-.768-.523-1.227-.641-.574-.149-1.014.036-1.305.552-.258.46-.352.959-.304 1.479.034.379.096.755.153 1.132.07.465.138.93.06 1.4-.097.584-.435.955-1.013 1.1a2.662 2.662 0 0 1-.986.041 6.636 6.636 0 0 1-2.594-.893c-1.339-.801-2.5-1.814-3.444-3.061-.847-1.12-1.429-2.353-1.549-3.771-.055-.647-.02-1.29.164-1.917.24-.81.769-1.295 1.615-1.414.092-.013.184-.028.276-.043-.321-.414-.647-.808-.943-1.223a28.617 28.617 0 0 1-1.176-1.736c-.36-.593-.783-1.161-.934-1.89m.394-.33c.25.405.487.781.716 1.16.313.517.6 1.049.935 1.55.597.898 1.364 1.654 2.101 2.434a.2.2 0 0 0 .12.054c.305.024.61.042.916.06.022.002.045-.005.076-.01-.016-.038-.026-.065-.038-.09a6.605 6.605 0 0 0-.915-1.396c-.572-.669-1.164-1.32-1.744-1.982-.605-.69-1.15-1.42-1.478-2.29-.005-.014-.019-.024-.033-.04-.226.188-.446.373-.656.55"/></g></g><g><g/><g clip-path="url(#imwia)"><path d="M37.008 21.636c-.044.293-.078.588-.135.879-.047.24-.191.359-.397.369a.456.456 0 0 1-.479-.33c-.098-.32-.18-.644-.262-.968-.12-.475-.213-.958-.355-1.426-.21-.694-.62-1.286-1.026-1.877-.673-.98-1.536-1.776-2.441-2.53-1.152-.96-2.38-1.817-3.6-2.686-.29-.206-.578-.414-.867-.62-.024-.018-.048-.035-.068-.056a.243.243 0 0 1-.028-.301c.067-.1.156-.092.254-.052.932.373 1.839.802 2.713 1.296 1.35.763 2.607 1.652 3.694 2.766.934.957 1.75 2.005 2.351 3.209.343.688.583 1.407.616 2.185l.006.138.024.004"/></g></g><g><path d="M28.032 14.6c.245.08.496.143.734.24.623.256 1.155.657 1.654 1.1 1.052.936 2.057 1.92 2.919 3.04.504.657.94 1.356 1.228 2.138.076.208.142.421.193.637.082.35-.128.642-.478.688-.255.033-.49-.093-.566-.338-.487-1.567-1.45-2.83-2.532-4.016-.644-.705-1.293-1.41-2.053-1.992-.44-.338-.92-.624-1.39-.92-.119-.074-.273-.09-.41-.137-.03-.01-.07-.024-.079-.046-.008-.021.01-.066.03-.084.143-.132.547-.28.74-.278l.01-.032"/></g><g><path d="M36.941 18.407a.493.493 0 0 1-.447-.286c-.259-.531-.527-1.058-.772-1.596-.61-1.337-1.567-2.37-2.756-3.2-.332-.233-.685-.437-1.03-.65-.11-.068-.178-.153-.164-.286.021-.21.192-.325.385-.242.45.194.906.376 1.335.608 1.206.654 2.237 1.518 3.025 2.653.49.705.827 1.475.96 2.33.006.033.01.066.014.1.039.345-.165.57-.55.569"/></g><g><path fill="#fff" d="M21.147 14.64c.15.73.574 1.299.934 1.893.363.597.77 1.169 1.176 1.739.296.416.622.81.943 1.226-.091.014-.183.03-.276.042-.846.12-1.375.605-1.615 1.417-.185.628-.219 1.272-.164 1.92.12 1.42.702 2.656 1.55 3.777a11.996 11.996 0 0 0 3.444 3.067 6.63 6.63 0 0 0 2.595.894c.33.042.66.04.986-.042.578-.144.915-.516 1.013-1.101.078-.47.01-.937-.06-1.402-.058-.377-.12-.755-.154-1.134a2.501 2.501 0 0 1 .305-1.481c.291-.518.73-.702 1.305-.554.459.119.851.367 1.227.643.68.499 1.27 1.094 1.847 1.702.191.2.375.408.57.603.081.081.188.136.278.209.025.02.05.064.048.094-.03.275-.066.549-.1.825-.016 0-.03.006-.04.001-.821-.443-1.655-.866-2.46-1.338a6.784 6.784 0 0 1-2.008-1.805c-.063-.085-.142-.143-.253-.135-.214.014-.302.203-.18.39.349.538.767 1.017 1.241 1.447a9.054 9.054 0 0 0 3.339 1.923c.085.028.177.035.3.059-.08.292-.144.599-.248.891-.398 1.118-1.223 1.75-2.349 2.022-.747.181-1.507.216-2.271.165-1.931-.13-3.712-.769-5.424-1.63-.872-.438-1.725-.914-2.513-1.495-1.23-.906-2.231-2.025-3.039-3.32-.867-1.39-1.512-2.878-1.88-4.479-.299-1.294-.346-2.598-.077-3.907.204-1 .704-1.83 1.411-2.548.19-.193.39-.377.599-.578"/></g><g><path fill="#fff" d="M21.52 14.31l.653-.55c.015.017.029.027.034.04.326.87.87 1.6 1.472 2.289.578.662 1.168 1.313 1.737 1.981.362.424.666.891.911 1.394.013.026.022.053.038.092-.03.004-.053.011-.075.01-.304-.019-.609-.037-.913-.06a.198.198 0 0 1-.12-.055c-.733-.78-1.497-1.535-2.092-2.432-.333-.501-.62-1.033-.931-1.548-.229-.38-.464-.755-.714-1.16"/></g></g></g></svg>