<svg xmlns="http://www.w3.org/2000/svg" width="277" height="184" viewBox="0 0 277 184"><g><g><path fill="#0b140e" d="M107.622 182.425c-29.973 0-47.94.416-77.908.7-7.194.067-14.297-1.032-21.333-2.13-4.245-.662-5.067-5.53-6.022-8.929C.93 166.991.247 24.601.03 19.314-.455 7.341 4.794 1.677 16.856 1.175c8.147-.339 16.324.078 24.486.02C78.82.922 104.292-.75 141.772.4c30.15.925 55.307.348 85.452.908 20.803.386 16.639.087 37.396 1.844 8.07.683 13.76 7.94 12.24 15.742-.777 3.991-.767 147.896-.736 151.85.069 8.451-2.083 10.855-10.653 11.452-9.64.671-9.286 1.096-18.954 1.01-7.998-.07-.996-.014-8.994-.014-45.257.804-82.743-.766-129.901-.766zm139.466-1.54c9.474.018 8.985-.27 18.394-1.654 6.514-.956 7.555-2.33 7.659-8.653.067-4.158.42-148.312.479-152.469.088-6.1-1.642-12.053-9.787-12.234-2.987-.066-5.965-.57-8.952-.635-17.82-.387-10.64-.889-28.463-1.007C162.28 3.804 115.14 3.438 51 3.288c-6.422-.015-12.855 1.116-19.326.375-5.817-.665-11.617-.414-17.395.532C8.034 5.216 4.005 9.668 3.546 15.872c-.479 6.478.512 148.276 1.61 154.635.921 5.34 4.852 7.632 10.206 7.997 3.149.215 6.295.538 9.448.59 31.79.521 51.018-.427 82.812 0 29.632.397 95.342 1.791 120.594 2.293 15.263-.377 12.015-.502 10.322-.532 1.061.008 3.533.021 8.55.03z"/></g></g></svg>