<svg xmlns="http://www.w3.org/2000/svg" width="59" height="60" viewBox="0 0 59 60"><g><g><g transform="rotate(-26 30.5 32.5)"><path fill="#0072f4" d="M26.014 57.43c-3.978-.77-8.253-1.455-11.802-4.38C7.515 47.528 2.948 40.032 3.412 31c0 0-.077-4.817 2.474-10.163 3.43-7.191 11.255-15.38 26.994-14.479 0 0 27.672 4.104 24.198 31.541 0 0-2.489 19.49-21.42 20.888-3.604.266-6.43-.737-9.644-1.358z"/><path fill="none" stroke="#0b140e" stroke-miterlimit="50" stroke-width="2.5" d="M26.014 57.43c-3.978-.77-8.253-1.455-11.802-4.38C7.515 47.528 2.948 40.032 3.412 31c0 0-.077-4.817 2.474-10.163 3.43-7.191 11.255-15.38 26.994-14.479 0 0 27.672 4.104 24.198 31.541 0 0-2.489 19.49-21.42 20.888-3.604.266-6.43-.737-9.644-1.358z"/></g><g transform="rotate(-26 28 28)"><path fill="none" stroke="#0b140e" stroke-miterlimit="50" stroke-width="2" d="M23.796 53.56c-3.83-.79-7.948-1.495-11.365-4.502C5.982 43.384 1.584 35.68 2.03 26.396c0 0-.074-4.95 2.382-10.445C7.717 8.56 15.251.143 30.407 1.07c0 0 26.647 4.217 23.303 32.416 0 0-2.397 20.03-20.627 21.468-3.47.273-6.192-.757-9.287-1.395z"/></g><g transform="rotate(-26 32.5 32)"><path fill="none" stroke="#0b140e" stroke-miterlimit="50" stroke-width="2" d="M28.986 58.32c-3.83-.79-7.948-1.495-11.365-4.502-6.449-5.674-10.847-13.378-10.4-22.662 0 0-.074-4.95 2.382-10.445 3.304-7.39 10.838-15.808 25.994-14.88 0 0 24.824 2.99 21.479 31.19-1.71-.834-1.022 18.803-19.251 20.24-3.471.274-5.744 1.697-8.84 1.059z"/></g><g><path fill="#fff" d="M24.941 31.761h10.49l-2.503-2.503a.561.561 0 1 1 .794-.794l3.461 3.462c.22.219.22.575 0 .794l-3.461 3.461a.56.56 0 0 1-.794 0 .561.561 0 0 1 0-.794l2.503-2.503h-10.49a.561.561 0 0 1 0-1.123z"/><path fill="none" stroke="#fff" stroke-miterlimit="50" d="M24.941 31.761h10.49v0l-2.503-2.503a.561.561 0 1 1 .794-.794l3.461 3.462c.22.219.22.575 0 .794l-3.461 3.461a.56.56 0 0 1-.794 0 .561.561 0 0 1 0-.794l2.503-2.503v0h-10.49a.561.561 0 0 1 0-1.123z"/></g></g></g></svg>