<svg xmlns="http://www.w3.org/2000/svg" width="242" height="50" viewBox="0 0 242 50"><g><g><path fill="#0b140e" d="M133.485 48.423c29.973 0 47.94.416 77.908.7 7.194.067 15.297.968 22.333-.13 4.245-.662 5.067-5.53 6.022-8.929 1.428-5.075 1.112-12.465 1.328-17.752.278-6.849-1.32-12.615-4.998-16.39-2.75-2.824-6.665-4.534-11.827-4.749-8.147-.339-16.14.282-24.302.224-37.478-.273-63.134-1.15-100.615 0-30.149.925-20.306-.652-50.45-.092-20.804.386-16.64.087-37.397 1.844-8.07.683-13.76 7.94-12.24 15.742.777 3.991.767 10.896.736 14.85-.069 8.451 2.083 13.855 10.653 14.452 9.64.671 9.286 1.096 18.954 1.01 7.998-.07.996-.014 8.994-.014 45.257.804 47.743-.766 94.901-.766zM29.02 46.893c-9.474.018-8.985-.271-18.394-1.655-6.514-.956-7.555-5.33-7.659-11.655-.067-4.159-.42-11.314-.479-15.472C2.4 12.01 4.13 6.055 12.274 5.874c2.987-.066 5.965-.57 8.952-.635 17.82-.387 10.64-.889 28.463-1.007 64.138-.429 76.277.205 140.417.055 6.422-.015 12.925.648 19.396-.093 5.817-.665 11.547-.946 17.325 0 6.246 1.021 10.075 5.697 10.534 11.903.479 6.479.512 15.865-.585 22.226-.922 5.342-3.084 7.264-8.438 7.629-3.149.215-9.033-.052-12.186 0-31.79.52-51.44-.427-83.235 0-29.632.397-59.29 1.979-85.026 1.443-15.263-.377-12.015-.503-10.322-.533-1.06.009-3.533.022-8.55.03z"/></g><g><g><path d="M27.375 15c.467.067.94.108 1.4.206 2.602.554 4.748 1.854 6.36 3.98 1.232 1.625 1.83 3.466 1.713 5.51-.098 1.72-.669 3.27-1.825 4.567-.576.647-1.274 1.098-2.191 1.053-.66-.032-1.21-.337-1.72-.728a4.73 4.73 0 0 1-1.406-1.765c-.022-.047-.047-.094-.084-.168-.077.112-.143.209-.21.303-.631.877-1.52 1.316-2.56 1.47-1.08.161-2.123.014-3.066-.55-1.512-.904-2.326-2.243-2.319-4.018.003-.863.395-1.598.997-2.205 1.022-1.03 2.266-1.551 3.721-1.503 1.241.04 2.176.593 2.743 1.794.01-.1.02-.152.02-.204.006-.366 0-.733.015-1.1.018-.428.453-.705.859-.56a.456.456 0 0 1 .315.379c.212 1.3.287 2.6.196 3.921-.036.52.137 1.064.276 1.58.236.87.814 1.49 1.595 1.908.737.395 1.44.232 1.99-.404 1.169-1.348 1.536-2.941 1.393-4.671-.195-2.368-1.374-4.206-3.18-5.673a8.294 8.294 0 0 0-4.218-1.828c-2.621-.341-4.881.441-6.766 2.289-.99.97-1.787 2.083-2.346 3.354-1.136 2.586-1.291 5.19.058 7.742 1.235 2.334 3.136 3.877 5.746 4.452 1.85.407 3.673.212 5.443-.432.66-.24 1.291-.564 1.932-.856.323-.147.565-.108.77.141.266.326.206.72-.176.901-.697.33-1.392.673-2.116.934-1.353.486-2.76.718-4.2.652-3.646-.17-6.425-1.803-8.275-4.97-.963-1.65-1.38-3.439-1.229-5.331.274-3.45 1.732-6.3 4.5-8.42a8.334 8.334 0 0 1 4.551-1.715c.059-.005.116-.023.174-.035zm1.052 8.696c-.306-.637-.8-1.065-1.47-1.264-1.152-.342-2.224-.141-3.214.53a2.418 2.418 0 0 0-.947 2.815c.411 1.201 1.234 2.013 2.413 2.44.914.33 1.802.245 2.583-.386.466-.376.794-.863 1.017-1.413.114-.281.248-.58.254-.874.011-.503-.07-1.008-.115-1.525-.293.024-.377-.025-.521-.323z"/><path fill="none" stroke="#000" stroke-miterlimit="50" stroke-width=".5" d="M27.375 15c.467.067.94.108 1.4.206 2.602.554 4.748 1.854 6.36 3.98 1.232 1.625 1.83 3.466 1.713 5.51-.098 1.72-.669 3.27-1.825 4.567-.576.647-1.274 1.098-2.191 1.053-.66-.032-1.21-.337-1.72-.728a4.73 4.73 0 0 1-1.406-1.765c-.022-.047-.047-.094-.084-.168-.077.112-.143.209-.21.303-.631.877-1.52 1.316-2.56 1.47-1.08.161-2.123.014-3.066-.55-1.512-.904-2.326-2.243-2.319-4.018.003-.863.395-1.598.997-2.205 1.022-1.03 2.266-1.551 3.721-1.503 1.241.04 2.176.593 2.743 1.794.01-.1.02-.152.02-.204.006-.366 0-.733.015-1.1.018-.428.453-.705.859-.56a.456.456 0 0 1 .315.379c.212 1.3.287 2.6.196 3.921-.036.52.137 1.064.276 1.58.236.87.814 1.49 1.595 1.908.737.395 1.44.232 1.99-.404 1.169-1.348 1.536-2.941 1.393-4.671-.195-2.368-1.374-4.206-3.18-5.673a8.294 8.294 0 0 0-4.218-1.828c-2.621-.341-4.881.441-6.766 2.289-.99.97-1.787 2.083-2.346 3.354-1.136 2.586-1.291 5.19.058 7.742 1.235 2.334 3.136 3.877 5.746 4.452 1.85.407 3.673.212 5.443-.432.66-.24 1.291-.564 1.932-.856.323-.147.565-.108.77.141.266.326.206.72-.176.901-.697.33-1.392.673-2.116.934-1.353.486-2.76.718-4.2.652-3.646-.17-6.425-1.803-8.275-4.97-.963-1.65-1.38-3.439-1.229-5.331.274-3.45 1.732-6.3 4.5-8.42a8.334 8.334 0 0 1 4.551-1.715c.059-.005.116-.023.174-.035zm1.052 8.696c-.306-.637-.8-1.065-1.47-1.264-1.152-.342-2.224-.141-3.214.53a2.418 2.418 0 0 0-.947 2.815c.411 1.201 1.234 2.013 2.413 2.44.914.33 1.802.245 2.583-.386.466-.376.794-.863 1.017-1.413.114-.281.248-.58.254-.874.011-.503-.07-1.008-.115-1.525-.293.024-.377-.025-.521-.323z"/></g></g></g></svg>