<svg xmlns="http://www.w3.org/2000/svg" width="242" height="50" viewBox="0 0 242 50"><g><g><path fill="#0b140e" d="M107.622 48.423c-29.973 0-47.94.416-77.908.7-7.194.067-15.297.968-22.333-.13-4.245-.662-5.067-5.53-6.022-8.929C-.07 34.99.247 27.6.03 22.312c-.278-6.849 1.32-12.615 4.998-16.39 2.75-2.824 6.665-4.534 11.827-4.749 8.147-.339 16.14.282 24.302.224 37.478-.273 63.134-1.15 100.615 0 30.149.925 20.306-.652 50.45-.092 20.804.386 16.64.087 37.397 1.844 8.07.683 13.76 7.94 12.24 15.742-.777 3.991-.767 10.896-.736 14.85.069 8.451-2.083 13.855-10.653 14.452-9.64.671-9.286 1.096-18.954 1.01-7.998-.07-.996-.014-8.994-.014-45.257.804-47.743-.766-94.901-.766zm104.466-1.53c9.474.018 8.985-.271 18.394-1.655 6.514-.956 7.555-5.33 7.659-11.655.067-4.159.42-11.314.479-15.472.088-6.101-1.642-12.056-9.787-12.237-2.987-.066-5.965-.57-8.952-.635-17.82-.387-10.64-.889-28.463-1.007-64.138-.429-76.277.205-140.417.055-6.422-.015-12.925.648-19.396-.093-5.817-.665-11.547-.946-17.325 0C8.034 5.215 4.206 9.891 3.747 16.097c-.48 6.479-.513 15.865.584 22.226.922 5.342 4.661 8.515 10.015 8.88 3.149.215 7.456-1.303 10.61-1.251 31.79.52 51.44-.427 83.234 0 29.632.397 59.29 1.979 85.026 1.443 15.263-.377 12.015-.503 10.322-.533 1.061.009 3.533.022 8.55.03z"/></g><g><g><path d="M30.829 18.122a4.944 4.944 0 0 1-4.149 4.823c-.481.078-.995.164-1.463.078-.961-.178-1.871-.543-2.64-1.183-1.875-1.56-2.353-4.212-1.14-6.291 1.276-2.189 3.842-3.11 6.135-2.202 1.974.78 3.279 2.694 3.257 4.775m-5.442-4.302c-.962.031-2.128.614-2.984 1.797-1.331 1.838-.93 4.428.905 5.704 1.11.77 2.355.96 3.673.75.106-.017.261-.036.318.022.165.166.295.067.438-.005 1.713-.854 2.601-2.631 2.32-4.638-.29-2.062-2.15-3.679-4.67-3.63"/><path fill="none" stroke="#0b140e" stroke-miterlimit="50" stroke-width=".89" d="M30.829 18.122a4.944 4.944 0 0 1-4.149 4.823c-.481.078-.995.164-1.463.078-.961-.178-1.871-.543-2.64-1.183-1.875-1.56-2.353-4.212-1.14-6.291 1.276-2.189 3.842-3.11 6.135-2.202 1.974.78 3.279 2.694 3.257 4.775m-5.442-4.302c-.962.031-2.128.614-2.984 1.797-1.331 1.838-.93 4.428.905 5.704 1.11.77 2.355.96 3.673.75.106-.017.261-.036.318.022.165.166.295.067.438-.005 1.713-.854 2.601-2.631 2.32-4.638-.29-2.062-2.15-3.679-4.67-3.63"/></g><g><path fill="#fff" d="M33.976 34.951c-5.463-.047-10.894-.202-16.346.058a13.76 13.76 0 0 1 .918-3.146c.896-2.099 2.197-3.89 4.093-5.208 1.418-.986 2.989-1.58 4.724-1.693 1.216-.08 2.302.248 3.255 1.028 1.173.961 2.197 2.033 2.6 3.537.215.806.365 1.636.477 2.464.13.968.187 1.946.279 2.96"/></g><g><path fill="#fff" d="M25.658 13.631c2.426-.048 4.217 1.533 4.495 3.547.272 1.96-.583 3.697-2.232 4.532-.138.07-.263.167-.421.004-.055-.056-.205-.038-.307-.021-1.269.205-2.467.02-3.536-.733-1.767-1.246-2.153-3.777-.871-5.573.824-1.155 1.947-1.725 2.872-1.756"/></g><g><g><path d="M27.83 24.336c1.457.24 7.042 1.816 6.711 11.838a.703.703 0 0 1-.39.09c-1.88-.017-3.762-.04-5.643-.055-.687-.006-1.375-.001-2.062-.001a8.127 8.127 0 0 0-.003.04c-3.03-.143-6.06-.286-9.089-.431-.381-.019-.38-.035-.333-.444a13.932 13.932 0 0 1 1.377-4.622c1.234-2.496 3-4.464 5.553-5.616 1.232-.556 2.517-.896 3.88-.799M17.424 35.332c5.427-.264 10.833-.106 16.27-.059-.092-1.029-.148-2.021-.278-3.003-.111-.84-.26-1.682-.475-2.5-.4-1.527-1.42-2.614-2.587-3.59-.949-.79-2.03-1.124-3.24-1.043-1.727.115-3.29.718-4.703 1.718-1.887 1.338-3.181 3.155-4.073 5.285a14.167 14.167 0 0 0-.914 3.192"/><path fill="none" stroke="#0b140e" stroke-miterlimit="50" stroke-width=".89" d="M27.83 24.336c1.457.24 7.042 1.816 6.711 11.838a.703.703 0 0 1-.39.09c-1.88-.017-3.762-.04-5.643-.055-.687-.006-1.375-.001-2.062-.001a8.127 8.127 0 0 0-.003.04c-3.03-.143-6.06-.286-9.089-.431-.381-.019-.38-.035-.333-.444a13.932 13.932 0 0 1 1.377-4.622c1.234-2.496 3-4.464 5.553-5.616 1.232-.556 2.517-.896 3.88-.799M17.424 35.332c5.427-.264 10.833-.106 16.27-.059-.092-1.029-.148-2.021-.278-3.003-.111-.84-.26-1.682-.475-2.5-.4-1.527-1.42-2.614-2.587-3.59-.949-.79-2.03-1.124-3.24-1.043-1.727.115-3.29.718-4.703 1.718-1.887 1.338-3.181 3.155-4.073 5.285a14.167 14.167 0 0 0-.914 3.192"/></g></g></g></g></svg>