<svg xmlns="http://www.w3.org/2000/svg" width="15" height="10" viewBox="0 0 15 10"><g><g><path fill="#fff" d="M1.561 4.461h10.49L9.548 1.958a.561.561 0 1 1 .794-.794l3.461 3.462c.22.219.22.575 0 .794L10.342 8.88a.56.56 0 0 1-.794 0 .561.561 0 0 1 0-.794l2.503-2.503H1.561a.561.561 0 0 1 0-1.123z"/><path fill="none" stroke="#fff" stroke-miterlimit="50" d="M1.561 4.461h10.49v0L9.548 1.958a.561.561 0 1 1 .794-.794l3.461 3.462c.22.219.22.575 0 .794L10.342 8.88a.56.56 0 0 1-.794 0 .561.561 0 0 1 0-.794l2.503-2.503v0H1.561a.561.561 0 0 1 0-1.123z"/></g></g></svg>