<?xml version="1.0" encoding="UTF-8"?>
<svg width="1600px" height="767px" viewBox="0 0 1600 767" version="1.1" xmlns="http://www.w3.org/2000/svg" xmlns:xlink="http://www.w3.org/1999/xlink">
    <!-- Generator: Sketch 59.1 (86144) - https://sketch.com -->
    <title>screen1  copy 5</title>
    <desc>Created with Sketch.</desc>
    <defs>
        <polygon id="path-1" points="0.000230278589 0.130799992 385.129777 0.130799992 385.129777 250.199538 0.000230278589 250.199538"></polygon>
    </defs>
    <g id="screen1--copy-5" stroke="none" stroke-width="1" fill="none" fill-rule="evenodd">
        <g id="Group-9-Copy" transform="translate(-7.000000, 117.000000)">
            <path d="M1.35490752,459.823538 C106.512159,591.31308 334.72719,571.883703 686,401.535407 C866.740253,301.018782 1016.45502,279.902452 1135.14429,338.186417" id="Path-199" stroke="#1532A3" stroke-width="5"></path>
            <path d="M-2.27373675e-13,441.873261 C93.3168368,535.353232 210.531879,566.628965 351.645126,535.700457 C450.400111,514.055826 724.704796,367.625403 769.216774,348.887522 C936.548514,278.44711 1129.79641,340.196585 1162.27751,348.887522" id="Path-201" stroke="#D54D35" stroke-width="5"></path>
            <g id="Group-2" transform="translate(1091.841257, 118.499665) rotate(198.000000) translate(-1091.841257, -118.499665) translate(1072.341257, 80.999665)" fill="#D6F1FF">
                <path d="M10.9731823,74.0732071 C1.97311907,72.2191817 -1.39078499,61.9785497 0.881470154,43.3513111 C4.28985286,15.4104532 13.2704224,1.03354283 16.1162325,1.03354283 C18.9620426,1.03354283 26.7408648,-4.877421 32.4810821,12.6302357 C38.2212994,30.1378924 40.2244861,48.9035401 35.745321,61.4883736 C32.759211,69.8782626 24.5018314,74.0732071 10.9731823,74.0732071 Z" id="Path-8"></path>
            </g>
            <path d="M1325.95845,357.05461 C1270.05146,362.533255 1219.54116,349.19645 1174.42756,317.044197 C1106.75717,268.815817 1092.69136,244.871783 1092.69136,240.229735 C1092.69136,235.587687 1054.6261,190.961813 1108.25714,139.614806 C1161.88817,88.2677993 1288.11541,51.2510555 1360.17988,51.2510555 C1432.24436,51.2510555 1459.4633,54.2154791 1483.56592,92.6732252 C1499.63433,118.311723 1498.13525,151.838511 1479.06867,193.253591 C1467.32644,213.476091 1461.45532,236.00542 1461.45532,260.841577 C1461.45532,298.095814 1417.47486,327.37847 1386.10786,342.21654 C1365.19652,352.108587 1345.14672,357.05461 1325.95845,357.05461 Z" id="Path-7" fill="#D6F1FF" transform="translate(1287.088857, 204.751056) scale(-1, -1) rotate(16.000000) translate(-1287.088857, -204.751056) "></path>
            <g id="Group-8" transform="translate(1053.000000, 100.000000)">
                <path d="M67.0207125,134.243992 L17.1647162,112.439476 C10.0703229,106.885184 8.89377058,102.933926 13.6350592,100.585701 C18.3763478,98.2374756 135.442841,66.1284112 364.834538,4.25850738 C378.157718,2.01613344 383.67682,3.68213079 381.391846,9.25649945 L337.599787,22.5859724 C296.450165,35.8095358 268.562794,46.2356772 253.937677,53.8643968 C239.312559,61.4931163 204.111684,77.0668843 148.335051,100.585701 L92.963299,125.9692 C86.6451159,127.279559 84.4400205,132.456493 86.3480128,141.5 C88.256005,150.543507 95.8991719,179.152689 109.277513,227.327546 L109.277513,232.966321 L104.104258,236.056786 L100.911683,236.056786 L97.3248823,230.194551 L92.963299,217.542744 L81.7001204,164 L78.5785668,149.242359 L74.7569223,140.057698 L67.0207125,134.243992 Z" id="Path-27" fill="#FFFFFF"></path>
                <path d="M347.677062,22.1098787 L319.795325,41.6157044 L133.789964,158 C126.802646,159.706589 126.802646,163.541088 133.789964,169.503497 C140.777282,175.465906 167.173902,192.852935 212.979822,221.664587 L217.441967,221.664587 L222.130003,208.876267 L273.135958,119.675198 L321.749958,62.1566963 L366.834758,22.1098787 L375.981357,19.3707052 L381.391846,13.5722992 L381.893613,4.25850738 L372.393079,3.29360912 L347.677062,22.1098787 Z" id="Path-29" fill="#FFFFFF"></path>
                <path d="M117.944607,184.156489 L109.277513,224.501286 L109.277513,232.966321 L115.035053,248.887522 L134.222227,232.966321 L150.99194,212.900267 L154.054995,206.095974 L154.054995,203.292456 L145.679211,198.307188 L134.222227,192.001643 L134.222227,187.942489 L129.288447,184.156489 L125.68062,180.423614 C123.239214,178.668799 121.70696,178.082477 121.083858,178.664649 C120.460756,179.24682 119.693526,179.833142 118.782169,180.423614 L117.944607,184.156489 Z" id="Path-28" fill="#FFFFFF"></path>
                <g id="Group-20">
                    <path d="M49.6379442,88.6003294 C49.6379442,88.6003294 115.03794,60.4003311 139.937939,55.6003314 C164.837937,50.8003317 228.838133,34.1005327 228.838133,34.1005327 L324.306528,8.01613421" id="Stroke-6" stroke="#D54D35" stroke-width="4" stroke-linecap="round" transform="translate(186.972236, 48.308232) rotate(2.000000) translate(-186.972236, -48.308232) "></path>
                    <g id="Group-3" transform="translate(0.000000, 0.469200)">
                        <mask id="mask-2" fill="white">
                            <use xlink:href="#path-1"></use>
                        </mask>
                        <g id="Clip-2"></g>
                        <path d="M380.445397,10.8749994 C378.423397,13.5611992 376.326998,16.261799 373.882598,18.5483989 C363.249398,28.4957983 352.227399,38.0381977 341.809,48.2027971 C322.910801,66.641396 305.818602,86.7185948 290.393203,108.127794 C280.148203,122.347193 270.125804,136.791592 261.041804,151.765791 C251.888205,166.85459 244.209405,182.830789 235.493206,198.195588 C231.839206,204.636588 227.384206,210.662387 222.895007,216.575387 C220.177007,220.155587 217.300607,220.751387 213.371807,218.569187 C205.583208,214.243187 197.872008,209.730587 190.440409,204.822588 C173.64941,193.735188 157.040211,182.371789 140.375212,171.09359 C136.961212,168.78359 133.627012,166.35719 129.883612,163.72259 C131.411212,162.43259 132.440212,161.35979 133.654012,160.57019 C146.621211,152.143191 159.57881,143.700591 172.61561,135.382792 C190.085209,124.235993 207.604608,113.165393 225.137207,102.118794 C240.069406,92.7119945 255.005205,83.308195 270.024404,74.0417956 C284.452003,65.1407961 299.009802,56.4515966 313.459601,47.5859972 C315.945401,46.0613973 318.010601,43.7999974 320.578601,42.4781975 C322.404401,41.5385975 324.320201,41.2013975 324.575201,38.6891977 C324.611201,38.3309977 325.952201,37.7471978 325.991201,37.7981977 C327.778,40.1477976 329.1454,38.0603977 330.4432,37.2863978 C332.818,35.8703979 335.1118,34.296598 337.3228,32.6339981 C340.9594,29.8979982 344.574999,27.1211984 348.028599,24.1631986 C348.733599,23.5589986 349.115199,21.9533987 348.853599,21.0359987 C348.638799,20.2847988 347.301399,19.5515988 346.358799,19.3841988 C345.017799,19.1447989 343.5538,19.2677989 342.193,19.5167988 C329.5246,21.8321987 317.260001,25.5803985 305.276202,30.2399982 C294.168402,34.5599979 283.045003,38.8541977 272.061404,43.4753974 C257.333205,49.672197 242.708206,56.1209967 228.083206,62.5607963 C216.729407,67.559996 205.441608,72.7109957 194.124408,77.7935954 C181.360609,83.526595 168.60701,89.2811947 155.830011,94.9841943 C144.408411,100.081794 132.928612,105.048594 121.535813,110.209193 C110.785613,115.077593 100.082214,120.051593 89.4244147,125.119193 C83.619415,127.880392 83.100415,130.607992 83.668615,136.495192 C83.879215,138.676192 84.181615,140.873392 84.718615,142.992591 C87.9016148,155.543991 91.1626146,168.07499 94.4038144,180.611389 C96.4966142,188.709589 98.5660141,196.813188 100.710414,204.898188 C101.741214,208.784388 102.822414,212.660987 103.939614,216.662387 C103.945014,216.794387 103.961814,216.926987 103.997814,217.059587 L107.570814,230.201386 C106.012014,231.917386 104.566014,233.510986 102.995214,235.241386 L99.5374141,229.923586 C99.5734141,229.908586 99.6058141,229.892386 99.6424141,229.877386 C99.5458141,229.804786 99.4594141,229.735786 99.3700141,229.664986 L96.7846142,225.689387 C96.9646142,225.295187 96.9838142,224.747987 96.7534142,223.928387 C94.8694143,217.231787 92.9614145,210.521987 91.5430145,203.717388 C87.8002148,185.760589 84.361015,167.73959 80.7004152,149.764791 C79.2436153,142.610991 75.7744155,136.708792 68.8750159,133.534192 C54.4612168,126.901192 39.9352176,120.508793 25.5616185,113.790593 C19.6360188,111.020393 13.4710192,108.335994 8.3344195,104.409594 C1.78181989,99.4001941 2.54021985,96.5531942 9.13421946,94.2791944 C22.3846187,89.7089947 35.7580179,85.4633949 49.2034171,81.4985951 C63.1402162,77.3885954 77.2192154,73.7597956 91.2412146,69.9389958 C101.325414,67.191596 111.401813,64.4147962 121.510013,61.7609963 C136.532812,57.8165966 151.582611,53.9729968 166.61861,50.081397 C174.81161,47.9609971 182.988409,45.7763973 191.196409,43.7141974 C204.237408,40.4375976 217.295807,37.2305978 230.351806,34.010998 C239.247406,31.8161981 248.117205,29.5055982 257.057205,27.5063984 C271.836404,24.2009986 286.661803,21.0983987 301.471002,17.9249989 C309.077202,16.295399 316.675001,14.6177991 324.304001,13.1033992 C335.0626,10.9679993 345.833199,8.88119947 356.627799,6.93359959 C363.192398,5.74919966 369.810398,4.85759971 376.407398,3.85019977 C380.625397,3.20639981 382.752397,7.81139953 380.445397,10.8749994 M109.100213,221.290787 L109.014414,221.789387 L108.854814,221.201387 C108.937014,221.225387 109.018614,221.260787 109.100213,221.290787 M384.148597,4.34279974 C382.227397,0.456599973 378.832597,-0.189599989 375.068198,0.250199985 C370.914998,0.736199956 366.768398,1.34639992 362.658398,2.11619987 C349.039599,4.66799972 335.431,7.27259957 321.835001,9.94379941 C314.207801,11.4425993 306.608802,13.0925992 299.005602,14.7119991 C286.627003,17.347199 274.236404,19.9301988 261.886604,22.6931986 C252.943605,24.6947985 244.052805,26.9291984 235.148206,29.1005983 C221.994407,32.3093981 208.834008,35.4929979 195.706008,38.8037977 C185.180209,41.4581975 174.70181,44.3015974 164.19401,47.0297972 C150.699411,50.533797 137.187412,53.9741968 123.698813,57.5015966 C114.262613,59.9693964 104.850414,62.5313963 95.4304143,65.0621961 C83.222215,68.3417959 70.9990158,71.5685957 58.8160165,74.9399955 C49.0366171,77.6465954 39.2464177,80.3429952 29.5738182,83.401795 C21.5212187,85.9475949 13.5490192,88.8011947 5.69681966,91.9109945 C-1.22597993,94.6529944 -1.48097991,98.9327941 3.00221982,104.558394 C7.33841956,109.999193 13.7896192,112.625993 19.8688188,115.420193 C33.660418,121.761593 47.6920172,127.580392 61.5526163,133.774792 C68.6842159,136.962592 75.2128155,140.921392 76.8280154,149.554791 C77.2120154,151.609191 77.7454154,153.635391 78.1402153,155.687991 C79.9444152,165.08399 81.6862151,174.49139 83.522215,183.880789 C85.0138149,191.509189 86.4556148,199.152588 88.1992147,206.724588 C89.7736146,213.562187 91.7278145,220.312187 93.5806144,227.351386 C93.7048144,227.287186 93.8308144,227.233786 93.9568144,227.180386 C94.7710144,229.947586 96.0964143,233.698186 97.7026142,235.444786 C98.1190142,236.132386 99.5686141,238.241986 101.836014,238.517986 C101.983614,238.536586 102.143214,238.546786 102.311814,238.546786 C103.024014,238.546786 103.910214,238.345786 104.858214,237.690586 C105.008814,237.662386 105.155214,237.626386 105.296814,237.577186 C106.501014,237.162586 107.498814,236.143186 108.914214,235.144786 L109.598213,237.659986 C109.657013,237.874786 109.754213,238.067986 109.877213,238.238386 C110.592413,240.708586 111.284813,243.105586 112.102013,245.455185 C112.318013,246.074985 112.376213,246.562785 112.318613,246.974985 C113.183813,248.802585 114.404213,250.352985 116.027213,250.187385 C116.769413,249.705585 117.596813,249.139785 118.525013,248.471385 C118.646213,248.348385 118.781813,248.222985 118.934813,248.092785 C124.225013,243.601185 129.838612,239.389186 134.553412,234.344986 C141.304612,227.121586 147.552411,219.400187 153.643611,211.601387 C156.000411,208.585188 157.943211,204.668388 154.724811,200.957388 C152.585811,198.490188 149.863011,196.529388 147.056811,194.035188 C146.425611,195.776388 146.060811,196.784388 145.679211,197.837988 C146.482011,198.488988 147.220011,199.129188 148.000011,199.712388 C153.528411,203.851788 153.790611,205.094988 149.793411,210.896987 C142.819611,221.018987 134.373412,229.845586 125.353613,238.134586 C122.551613,240.709186 119.531813,243.046786 116.210813,245.827785 C115.239413,242.856586 114.358613,240.556186 113.743013,238.187386 C112.913213,234.995386 112.309013,231.745186 111.505613,228.547186 L112.412813,223.267187 C112.495013,223.313387 112.574813,223.362587 112.658813,223.406387 C112.580213,223.309787 112.509413,223.213787 112.438613,223.118987 L114.269813,212.464787 C115.681013,205.912788 116.633813,199.260588 117.883613,192.669589 C118.664813,188.549389 119.647013,184.467589 120.636413,179.918389 C122.236613,180.761389 123.162413,181.106989 123.924413,181.672789 C127.894612,184.624789 131.896612,187.541389 135.737212,190.657189 C137.832412,192.356989 139.314412,192.507589 140.764612,189.421789 C135.333412,185.520589 129.994012,181.414789 124.370213,177.744589 C120.916013,175.49099 117.736013,176.847589 116.773613,180.780589 C115.402013,186.385189 114.321413,192.064189 113.242613,197.735988 C111.878213,204.904188 110.639813,212.096387 109.262213,219.751787 C108.634014,218.943587 108.195414,218.613587 108.080214,218.194187 C106.810614,213.588587 105.568614,208.975188 104.363214,204.352788 C99.941814,187.397989 95.4670143,170.45759 91.1626146,153.473391 C89.6224147,147.394791 88.4476147,141.219592 87.2302148,135.064192 C86.6968148,132.370192 87.6082148,130.197592 90.2224146,128.896192 C92.9794145,127.523392 95.6386143,125.944792 98.4406141,124.675793 C109.657013,119.596793 120.914213,114.607793 132.152812,109.576793 C146.384811,103.204794 160.61081,96.8189942 174.84401,90.4493946 C190.236409,83.560795 205.625208,76.6625954 221.032007,69.8057958 C236.554006,62.8979963 251.990805,55.7855967 267.659804,49.2281971 C282.134803,43.1705974 296.764602,37.4423978 311.524001,32.1179981 C321.683801,28.4525983 332.1826,25.7225985 342.5296,22.5749987 C342.7288,22.9685986 342.928,23.3627986 343.1272,23.7569986 C340.6684,25.5647985 338.3206,27.5531984 335.7328,29.1533983 C315.317201,41.7773975 294.815802,54.2627968 274.420004,66.918596 C254.798805,79.0937953 235.252006,91.3895946 215.708207,103.690194 C199.006608,114.203393 182.335009,124.765793 165.68801,135.365992 C154.316211,142.607991 142.936011,149.840991 131.700412,157.289991 C124.396013,162.13259 124.528013,164.80079 131.733412,169.68119 C146.511411,179.687989 161.21081,189.814189 176.08001,199.685988 C186.972409,206.917188 197.984808,213.979787 209.131008,220.813187 C216.558407,225.367787 221.645807,224.320787 227.152006,217.468187 C235.583806,206.974788 241.734406,195.045588 248.186805,183.315589 C255.117405,170.71559 261.358004,157.669791 269.150804,145.627191 C279.481003,129.662392 290.680003,114.223793 302.122002,99.0227941 C320.990801,73.9535956 342.451,51.2381969 366.140798,30.6215982 C371.881598,25.6259985 377.276198,20.1899988 382.452397,14.6069991 C385.017997,11.8391993 386.055997,8.20019951 384.148597,4.34279974" id="Fill-1" fill="#000000" mask="url(#mask-2)"></path>
                    </g>
                    <path d="M20.8347588,115.056893 C20.8347588,115.056893 5.43455968,103.056294 13.6347592,99.6566941 L364.834538,9.25649945" id="Stroke-4" stroke="#000000" stroke-width="3.59999979" stroke-linecap="round"></path>
                    <path d="M199.443168,212.900267 C199.443168,212.900267 329.93656,34.7092779 366.834758,22.1098787" id="Stroke-8" stroke="#000000" stroke-width="3.59999979" stroke-linecap="round"></path>
                    <path d="M217.441967,219.199667 C217.441967,219.199667 286.738363,82.4068751 315.537161,65.3074761" id="Stroke-10" stroke="#1532A3" stroke-width="4" stroke-linecap="round"></path>
                    <path d="M13.6350592,91.4564945 C13.6350592,91.4564945 16.035059,107.656494 51.4350569,122.656493" id="Stroke-12" stroke="#000000" stroke-width="3.59999979" stroke-linecap="round"></path>
                    <path d="M148.935051,171.55649 C148.935051,171.55649 210.135047,218.656487 228.135046,211.756487" id="Stroke-14" stroke="#000000" stroke-width="3.59999979" stroke-linecap="round"></path>
                    <path d="M123.135053,184.156489 C123.135053,184.156489 145.335051,198.256488 148.335051,203.956488 C148.335051,203.956488 145.635051,218.956487 115.035053,239.956486" id="Stroke-16" stroke="#D54D35" stroke-width="4" stroke-linecap="round"></path>
                    <path d="M61.5524363,134.243992 C61.5524363,134.243992 69.6350358,134.856592 79.6352353,195.656388 L84.035035,236.056786" id="Stroke-18" stroke="#000000" stroke-width="3.59999979" stroke-linecap="round"></path>
                </g>
            </g>
            <path d="M1217.19401,147.498997 C1233.42137,91.8958882 1265.07954,72.2728688 1312.16853,88.6299392 C1326.32457,95.3122791 1336.27875,103.626399 1342.03109,113.572299" id="Path-114" stroke="#D54D35" stroke-width="5" stroke-linecap="round"></path>
            <path d="M1226,145.446179 C1242.22736,89.8430699 1273.88553,70.2200506 1320.97452,86.577121 C1335.13056,93.2594609 1345.08474,101.573581 1350.83708,111.519481" id="Path-114-Copy" stroke="#1532A3" stroke-width="5" stroke-linecap="round"></path>
            <path d="M1377.30364,178.038072 C1383.13368,216.820457 1371.37616,232.685857 1342.03109,225.634271" id="Path-115" stroke="#D54D35" stroke-width="5" stroke-linecap="round"></path>
            <path d="M1372.27255,177 C1379.34361,210.507738 1367.58609,226.373138 1337,224.5962" id="Path-115-Copy" stroke="#1532A3" stroke-width="5" stroke-linecap="round"></path>
            <path d="M1308.33215,177.31269 C1309.42988,139.457954 1318.69882,112.693402 1336.13896,97.0190358 C1409.97023,30.6630175 1528.106,26.038031 1582,26.038031 C1589.50788,26.038031 1596.2938,26.038031 1602.35776,26.038031" id="Path" stroke="#D54D35" stroke-width="5" stroke-linecap="round"></path>
            <path d="M1317.86064,172.743758 C1315.18917,154.843646 1322.1934,129.859251 1338.48768,100 C1365.96779,49.6427424 1484.66469,16 1587.38309,16 L1602,16" id="Path-116-Copy" stroke="#1532A3" stroke-width="5" stroke-linecap="round"></path>
            <line x1="1039" y1="191.575264" x2="1119.47701" y2="168" id="Path-117" stroke="#000000" stroke-width="3" stroke-linecap="round"></line>
            <line x1="1020" y1="198.513647" x2="1030.4871" y2="195" id="Path-117-Copy" stroke="#000000" stroke-width="3" stroke-linecap="round"></line>
            <line x1="1266" y1="348.156686" x2="1270.88134" y2="342" id="Path-117-Copy-2" stroke="#000000" stroke-width="3" stroke-linecap="round"></line>
            <path d="M1308.22154,289.076038 C1293.93324,311.842712 1282.92571,327.502962 1275.19898,336.056786" id="Path-118" stroke="#000000" stroke-width="3" stroke-linecap="round"></path>
        </g>
    </g>
</svg>