<?xml version="1.0" encoding="UTF-8"?>
<svg width="1600px" height="767px" viewBox="0 0 1600 767" version="1.1" xmlns="http://www.w3.org/2000/svg" xmlns:xlink="http://www.w3.org/1999/xlink">
    <!-- Generator: Sketch 59.1 (86144) - https://sketch.com -->
    <title>screen1  copy 2</title>
    <desc>Created with Sketch.</desc>
    <g id="screen1--copy-2" stroke="none" stroke-width="1" fill="none" fill-rule="evenodd">
        <g id="Group-13" transform="translate(-4.000000, -217.000000)">
            <g id="Group-12" transform="translate(492.991274, 733.529957) rotate(-1.000000) translate(-492.991274, -733.529957) translate(2.991274, 587.529957)" stroke-width="5">
                <g id="Group-11" transform="translate(490.131247, 145.854633) scale(1, -1) translate(-490.131247, -145.854633) translate(0.631247, 20.854633)" stroke="#1532A3">
                    <path d="M978.278732,249.213556 C805.419585,244.780565 662.468868,210.352125 549.426582,145.928236 C477.525154,104.950919 348.63052,-2.91574298 232.508242,0.813351394 C130.907713,4.0761014 53.454249,47.4849135 0.147849608,131.039788" id="Path" transform="translate(489.213291, 124.966299) scale(-1, 1) translate(-489.213291, -124.966299) "></path>
                </g>
                <path d="M972.987216,274.492816 C803.995367,266.437351 665.267059,229.130246 559.039012,164.076833 C500.298685,128.104612 390.797246,24.0873356 282.096121,18.3905511 C155.043059,11.7319822 62.6999382,53.1927623 5.06675922,142.772891" id="Path" stroke="#D54D35" transform="translate(489.026988, 146.096164) scale(-1, -1) rotate(-2.000000) translate(-489.026988, -146.096164) "></path>
            </g>
            <g id="Group-2" transform="translate(1171.536325, 458.066698) rotate(198.000000) translate(-1171.536325, -458.066698) translate(799.036325, 98.066698)">
                <path d="M535.534658,367.845713 C479.627661,373.324358 429.117365,359.987554 384.00377,327.8353 C316.333377,279.606921 302.267564,255.662886 302.267564,251.020838 C302.267564,246.37879 264.202307,201.752916 317.833342,150.405909 C371.464377,99.0589027 497.691617,62.0421589 569.756089,62.0421589 C641.82056,62.0421589 669.039508,65.0065824 693.142125,103.464329 C709.210537,129.102826 707.711453,162.629615 688.644874,204.044694 C676.902642,224.267194 671.031525,246.796523 671.031525,271.632681 C671.031525,308.886918 627.05106,338.169574 595.684061,353.007643 C574.772728,362.89969 554.722927,367.845713 535.534658,367.845713 Z" id="Path-7" fill="#D7F1FE" transform="translate(496.665062, 215.542159) scale(-1, 1) rotate(-20.000000) translate(-496.665062, -215.542159) "></path>
                <path d="M566.255008,571.589355 C229.126894,384.743569 76.8961084,439.239506 -12.8320315,542.234151" id="Path" stroke="#D54D35" stroke-width="5" transform="translate(276.711488, 509.804215) scale(-1, -1) rotate(-33.000000) translate(-276.711488, -509.804215) "></path>
            </g>
            <g id="Group-7" transform="translate(888.675180, 423.036391)" stroke="#172F3B" stroke-width="3.5">
                <path d="M1.46141056,22.3999996 C-1.63468938,23.7558996 1.15831057,70.3737988 1.11141057,75.7035987 C0.925210573,96.8911983 0.839110574,118.084398 1.50761056,139.264298 C2.57581054,173.060997 13.3824104,202.360197 30.3945101,231 C30.3945101,231 69.2445094,296.449995 121.044509,303.099995 C146.380308,298.122295 169.369708,282.912695 187.376507,264.828895 C197.197507,254.965196 208.310007,247.530496 216.932607,236.125396 C252.148906,189.550897 247.379806,124.595098 247.394506,69.9803988 C247.400106,56.687399 247.394506,43.3936993 247.394506,30.0999995 C247.394506,25.6311157 244.221153,21.7917735 239.832159,20.9505498 L163.394508,6.29999989 L163.394508,6.29999989 L134.694508,0 L117.194509,0 L7.99451045,19.5999997 C7.99451045,19.5999997 1.62241056,22.3306996 1.46141056,22.3999996 Z" id="Stroke-1" fill="#FFFFFF"></path>
                <path d="M38.7801427,58.4094301 C38.697225,59.1038301 38.6317269,59.8577301 38.5850421,60.67743 C38.004618,70.7567299 38.7000121,79.9262086 38.7801427,90.0279085 C38.8895384,103.911008 39.7660973,117.629608 39.2379322,131.556808 C38.4401103,152.553307 40.1058291,173.806101 49.4936497,193.110001 C58.770681,212.185001 72.1311888,229.748606 89.2352363,242.072806 C98.8648422,249.011906 114.462435,260.987506 127.125157,258.737006 C151.422144,254.408906 161.637052,233.532106 174.77359,215.066806 C189.311369,194.634507 206.595884,176.903507 208.160869,151.060907 C208.926639,138.421708 210.764068,126.553928 210.074248,113.908428 C209.376067,101.113828 208.181076,88.3500283 208.160869,75.5232285 C208.14763,66.5765286 209.554445,56.670809 200.374964,51.3956091 C193.67326,47.5435092 184.824753,48.1224092 177.518934,46.3416092 C155.760344,41.0391093 132.886895,34.7363094 110.474022,39.9079093 C101.947422,41.8755419 94.3560084,42.1875743 85.4742147,43.7184892 C75.6786406,45.4069083 64.5793497,48.242295 54.9449204,48.8161092 C45.5034471,49.3789092 39.8378664,49.6237302 38.7801427,58.4094301 Z" id="Stroke-3" fill="#D7F1FE"></path>
                <path d="M207.921852,268.943934 C178.838651,267.90425 160.910642,248.040965 155.181224,220.698701 C151.608924,203.643975 156.205542,173.361559 168.070507,159.815221 C173.461393,153.661948 181.883256,150.520602 189.291159,147.55435 C226.460417,132.67252 269.252791,148.126938 280.765051,188.734412 C283.47712,198.299283 281.118301,209.125696 279.438726,218.678604 C273.435103,252.838082 240.769243,270.117928 207.921852,268.943934 Z" id="Stroke-5" fill="#FFFFFF"></path>
                <path d="M212.488513,237.969539 C196.583637,237.404671 186.779257,226.612808 183.645982,211.757562 C181.69238,202.491608 184.206156,186.038957 190.694808,178.679136 C193.642949,175.336019 198.248655,173.629304 202.299852,172.017718 C222.626791,163.932314 246.02887,172.328809 252.324637,194.391137 C253.8078,199.5878 252.517821,205.469866 251.599303,210.660029 C248.316072,229.219116 230.45193,238.607378 212.488513,237.969539 Z" id="Stroke-5-Copy-2" fill="#FFFFFF"></path>
                <path d="M214.764381,265.944817 C185.226755,264.921506 167.018621,245.371029 161.199681,218.459351 C157.571563,201.673203 162.240003,171.867676 174.290358,158.534667 C179.765477,152.478295 188.318932,149.38642 195.842583,146.46688 C233.592611,131.819409 277.053616,147.03045 288.745755,186.998437 C291.500201,196.41268 289.104525,207.068598 287.398706,216.471067 C281.301276,250.092601 248.125013,267.100323 214.764381,265.944817 Z" id="Stroke-5-Copy"></path>
            </g>
            <path d="M1575.35395,483.406433 C1467.40079,526.546138 1342.60618,484.526323 1215.81534,378.698709 C1150.98568,317.79669 1105.61109,269.727943 1079.69154,234.492468" id="Path" stroke="#1532A3" stroke-width="5" transform="translate(1327.522748, 367.326824) scale(-1, -1) rotate(-38.000000) translate(-1327.522748, -367.326824) "></path>
            <path d="M896.239264,446.435904 C896.239264,511.572785 896.239264,544.141226 896.239264,544.141226 C896.239264,544.141226 894.761277,590.056571 908.351545,618.934933 C921.941813,647.813295 941.262296,685.846184 975.490992,705.991285" id="Path-12" stroke="#172F3B" stroke-width="3.3" stroke-linecap="round"></path>
            <path d="M900.722351,446.036391 C900.722351,511.173272 900.722351,543.741713 900.722351,543.741713 C900.722351,543.741713 899.244364,589.657058 912.834632,618.53542 C926.4249,647.413782 945.745383,685.446671 979.97408,705.591772" id="Path-12-Copy" stroke="#D54D35" stroke-width="3.3" stroke-linecap="round"></path>
            <path d="M1029.67518,468.982176 C1067.25289,474.878081 1086.94532,480.076711 1088.75246,484.578064 C1090.5596,489.079417 1091.59262,515.637742 1091.85152,564.25304" id="Path-13" stroke="#172F3B" stroke-width="3"></path>
            <path d="M980.777865,709.842479 C981.940019,711.084828 984.025553,712.278698 987.034467,713.424088" id="Path-14" stroke="#172F3B" stroke-width="3.1" stroke-linecap="round"></path>
            <path d="M883.046897,458.462369 C883.046897,461.017993 883.046897,546.614994 883.046897,552.204731" id="Path-30" stroke="#172F3B" stroke-width="3.5" stroke-linecap="round"></path>
            <path d="M882.546897,561.402571 C882.546897,561.402571 882.546897,568.032405 883.046897,571.534398" id="Path-31" stroke="#172F3B" stroke-width="3.5" stroke-linecap="round"></path>
            <path d="M1128.94962,446.435904 C1134.50758,502.864546 1134.50758,542.875406 1128.94962,566.468484" id="Path-32-Copy" stroke="#D54D35" stroke-width="3"></path>
            <path d="M1126.94962,446.435904 C1132.50758,502.864546 1132.50758,542.875406 1126.94962,566.468484" id="Path-32" stroke="#172F3B" stroke-width="3"></path>
            <path d="M935.841543,472.965589 C930.184805,544.987742 930.184805,590.758776 935.841543,610.278692" id="Path-176" stroke="#172F3B" stroke-width="3" stroke-linecap="round"></path>
            <path d="M927.03102,528.634192 C929.407453,584.48504 942.524532,626.083921 966.382258,653.430834" id="Path-177" stroke="#172F3B" stroke-width="3"></path>
            <g id="Group-8" transform="translate(1125.389887, 630.536391) rotate(10.000000) translate(-1125.389887, -630.536391) translate(1119.389887, 609.036391)" stroke="#172F3B" stroke-linecap="round" stroke-width="3">
                <path d="M4.28529333,-3.55271368e-15 C13.1706285,12.072456 13.8767852,23.4702969 6.40376361,34.1935227" id="Path-178"></path>
                <path d="M-1.13686838e-13,42.1059219 C2.85686222,41.2135692 4.28529333,39.8906256 4.28529333,38.1370913" id="Path-179"></path>
            </g>
            <path d="" id="Path-180" stroke="#979797"></path>
            <path d="" id="Path-181" stroke="#979797"></path>
            <polyline id="Path-182" stroke="#172F3B" stroke-width="3.5" stroke-linecap="round" points="1013.96624 468.982176 1013.96624 571.534398 1012.96624 628.536391 1013.96624 674.736862"></polyline>
            <path d="M1007.55296,469.036391 C1017.15231,601.294079 1020.45436,669.860902 1017.45911,674.736862" id="Path-183" stroke="#19313D" stroke-width="3"></path>
            <path d="M1085.74832,630.548139 L1097.99024,638.432616 L1097.99024,638.432616 C1102.90057,641.239359 1107.3816,640.730401 1111.43334,636.905741 C1115.48507,633.081082 1120.13726,628.600004 1125.38989,623.46251 C1138.22538,611.964895 1144.64312,606.216088 1144.64312,606.216088 C1145.77197,605.10919 1146.90082,604.002293 1148.02967,602.895395 C1149.94358,601.0187 1150.21719,598.032204 1148.67613,595.838987 C1147.41181,594.039623 1144.92821,593.605882 1143.12885,594.870199 C1142.96158,594.987731 1142.8036,595.117971 1142.65633,595.259764 L1125.38989,611.883881 L1125.38989,611.883881 L1115.7476,621.535618 L1107.99426,629.22773 C1107.12984,630.085321 1106.05667,630.702594 1104.88073,631.018585 L1104.70306,631.066326 C1103.45791,631.400917 1102.12807,631.14553 1101.09543,630.373501 L1091.85152,623.46251 L1091.85152,623.46251 L1090.04206,621.674271 C1088.40435,620.055798 1085.76469,620.071368 1084.1462,621.709064 C1083.6619,622.199115 1083.3066,622.801555 1083.11207,623.46251 C1083.11207,623.46251 1083.11207,623.46251 1083.11207,623.46251 C1083.11207,623.46251 1083.11207,623.46251 1083.11207,623.46251 C1082.32179,626.147675 1083.39512,629.032516 1085.74832,630.548139 Z" id="Path-184" stroke="#18303C" stroke-width="3" fill="#FFFFFF"></path>
            <path d="M1074.34604,612.562826 C1088.73726,596.914551 1105.75188,592.295534 1125.38989,598.705774" id="Path-185" stroke="#172F3B" stroke-width="3" stroke-linecap="round"></path>
            <path d="M957.339951,626.536391 C966.747807,650.664931 985.126816,666.731755 1012.47698,674.736862" id="Path-186" stroke="#172F3B" stroke-width="3.2" stroke-linecap="round"></path>
            <path d="M891.745692,449.565484 C975.032017,430.82972 1021.00851,422.317196 1029.67518,424.027911" id="Path-187" stroke="#172F3B" stroke-width="3" stroke-linecap="round"></path>
            <path d="M1136.27878,451.458991 C1099.68336,443.205716 1056.77475,433.731516 1007.55296,423.036391" id="Path-188" stroke="#172F3B" stroke-width="3" stroke-linecap="round"></path>
            <path d="M1099.55444,698.208289 C1118.68912,699.271843 1135.39742,694.88121 1149.67932,685.036391" id="Path" stroke="#1532A3" stroke-width="3" stroke-linecap="round"></path>
            <path d="M1077.67518,696.874164 C1106.19294,703.747077 1130.19432,700.46782 1149.67932,687.036391" id="Path-189" stroke="#172F3B" stroke-width="3" stroke-linecap="round"></path>
            <path d="M1079.67518,479.036391 C1085.96818,520.128621 1088.30918,548.862745 1086.69816,565.238764" id="Path-190-Copy" stroke="#1532A3" stroke-width="3" stroke-linecap="round"></path>
            <path d="M1081.80009,480.266111 C1088.09309,521.358341 1090.43409,550.092465 1088.82307,566.468484" id="Path-190" stroke="#172F3B" stroke-width="3" stroke-linecap="round"></path>
            <path d="M1109.67518,630.330704 C1124.1976,618.174718 1133.49389,610.356005 1137.56403,606.874563 C1141.46782,603.535415 1146.41102,599.788645 1146.96568,599.036391" id="Path-193-Copy" stroke="#D54D35" stroke-width="2" stroke-linecap="round" transform="translate(1128.320429, 614.683547) rotate(-4.000000) translate(-1128.320429, -614.683547) "></path>
            <path d="M931.67518,620.036391 C950.398636,657.437188 974.712761,680.020689 1004.61756,687.786895" id="Path-191" stroke="#172F3B" stroke-width="3" stroke-linecap="round"></path>
            <path d="M1109.67518,631.330704 C1124.1976,619.174718 1133.49389,611.356005 1137.56403,607.874563 C1141.46782,604.535415 1146.41102,600.788645 1146.96568,600.036391" id="Path-193" stroke="#18303C" stroke-width="2" stroke-linecap="round" transform="translate(1128.320429, 615.683547) rotate(-4.000000) translate(-1128.320429, -615.683547) "></path>
            <path d="M890.67518,455.53953 C938.166561,445.870771 965.122312,441.036391 971.542433,441.036391" id="Path-194" stroke="#172F3B" stroke-width="3" stroke-linecap="round"></path>
            <path d="M931.108806,480.266111 C982.33433,471.753008 1009.95348,465.503636 1013.96624,461.517993" id="Path-6" stroke="#172F3B" stroke-width="3" stroke-linecap="round"></path>
            <path d="M1173.76311,734.694084 C1164.76305,732.840058 1161.39914,722.599426 1163.6714,703.972188 C1167.07978,676.03133 1176.06035,661.65442 1178.90616,661.65442 C1181.75197,661.65442 1189.53079,655.743456 1195.27101,673.251112 C1201.01123,690.758769 1203.01441,709.524417 1198.53525,722.10925 C1195.54914,730.499139 1187.29176,734.694084 1173.76311,734.694084 Z" id="Path-8" fill="#D5F0FE" transform="translate(1181.984343, 697.694084) rotate(14.000000) translate(-1181.984343, -697.694084) "></path>
        </g>
    </g>
</svg>