<?xml version="1.0" encoding="UTF-8"?>
<svg width="1600px" height="767px" viewBox="0 0 1600 767" version="1.1" xmlns="http://www.w3.org/2000/svg" xmlns:xlink="http://www.w3.org/1999/xlink">
    <!-- Generator: Sketch 59.1 (86144) - https://sketch.com -->
    <title>screen1  copy</title>
    <desc>Created with Sketch.</desc>
    <g id="screen1--copy" stroke="none" stroke-width="1" fill="none" fill-rule="evenodd">
        <g id="Group-6-Copy" transform="translate(0.000000, 153.000000)" stroke-width="5">
            <g id="Group-5" transform="translate(800.000000, 231.000000) scale(-1, 1) translate(-800.000000, -231.000000) ">
                <path d="M0,248.196755 L233,248.196755 L995.710259,248.196755 C1029.40501,250.27656 1063.06219,247.57568 1093.91847,232.879451 C1103.32696,228.398156 1112.3042,223.069013 1121.00053,217.339198 C1140.215,204.679458 1163.42027,181.15632 1188.87161,191.568086 C1188.87161,191.568086 1214.35225,205.582088 1203.31049,241.67897 C1203.31049,241.67897 1185.36376,325.001568 1114.6611,311.217719 C1114.6611,311.217719 1006.54929,294.738133 1114.6611,121.520414 C1146.66058,68.5905955 1162,48.6659951 1217.32449,53.4951215 C1251.84435,61.57058 1263.61274,73.5687029 1273.56204,102.964997 C1290.94882,154.336096 1220.66365,238.511806 1201.37656,249.086644 C1188.42953,256.185372 1161.58444,258.120579 1164.98411,279.367716 C1167.53211,295.292717 1188.23461,299.433218 1205.75211,300.388718 C1236.77911,299.092423 1270.57451,298.405737 1300.86514,306.048463 C1314.99507,309.61439 1326.75091,322.730858 1330.9653,336.258191 C1336.07723,352.665402 1325.76866,370.076524 1310.97943,376.872041 C1300.06252,381.88778 1285.08537,381.682029 1273.35056,381.453346 C1261.01378,381.21256 1248.92479,378.735903 1236.96511,375.873225 C1236.96511,375.873225 1189.72137,358.462739 1159.14536,321.091857 C1159.14536,321.091857 1102.66448,255.268092 1058.07448,299.008976 C1058.07448,299.008976 1016.88159,342.32498 1055.1016,384.366984 C1055.1016,384.366984 1101.81536,426.833867 1148.52848,376.722983 C1148.52848,376.722983 1190.99537,334.680342 1215.20137,348.270101 C1215.20137,348.270101 1236.43449,363.558103 1217.32449,396.682106 C1216.89961,398.380985 1185.89937,448.916748 1223.69449,461.23187 C1223.69449,461.23187 1244.50274,468.874597 1263.61274,432.778352 C1263.61274,432.778352 1289.51698,377.146588 1327.31274,380.544346 C1327.31274,380.544346 1339.52212,381.287726 1366.27613,407.404728 C1366.27613,407.404728 1390.80063,423.32973 1400.67413,398.805227 C1400.67413,398.805227 1415.64427,368.229224 1374.02651,345.722101 C1374.02651,345.722101 1321.79314,315.995856 1344.30026,278.200095 C1344.30026,278.200095 1368.50563,252.719455 1393.13651,276.076336 C1393.13651,276.076336 1403.54063,284.463716 1414.36963,309.625219 C1425.19863,334.786721 1449.72314,340.201222 1459.59664,332.557221 C1459.59664,332.557221 1478.06964,319.81722 1472.12452,286.693216 C1472.12452,286.693216 1459.59664,225.384924 1421.69513,241.147712 C1421.69513,241.147712 1413.21226,245.411695 1380.29013,258.665214 C1380.29013,258.665214 1337.01006,271.83553 1321.04912,246.880713 C1321.04912,246.880713 1305.97211,212.2071 1333.09284,193.35355 C1360.21357,174.5 1395.84491,178.10912 1419.49782,206.634018 C1421.38437,208.909163 1445.81911,241.67897 1487,245.647821 C1519.71871,248.801121 1555.52218,250.154303 1600,249.086644" id="Path" stroke="#1532A3"></path>
                <path d="M0,261.213023 L234,261.213023 L985.66859,261.213023 C985.66859,261.213023 1143.85673,270.555903 1185.89873,168.211014 C1185.89873,168.211014 1206.28337,122.347009 1199.48849,71.8118835 C1199.48849,71.8118835 1203.73537,24.2489999 1154.04936,3.01587679 C1154.04936,3.01587679 1105.63736,-14.8201249 1069.96536,41.2358805 C1069.96536,41.2358805 1037.69111,107.483887 1126.02136,134.662769 C1126.02136,134.662769 1196.51561,163.964771 1238.55761,101.538765 C1238.55761,101.538765 1278.47586,8.53739333 1329.01035,14.9061199 C1349.59501,17.4999842 1364.92059,39.8682414 1360.04818,59.9757853 C1354.68782,82.0924275 1328.00771,93.7157676 1308.20274,98.5658861 C1308.20274,98.5658861 1246.62777,122.770614 1224.96913,72.2373995 C1222.86639,67.331225 1224.2404,59.4731923 1225.7106,54.6944178 C1230.80023,38.1483412 1249.86819,34.6480259 1264.88674,35.2901219 C1264.88674,35.2901219 1298.43498,34.0161218 1304.38074,70.9621254 C1304.38074,70.9621254 1311.17626,97.717402 1287.3945,145.279649 C1287.3945,145.279649 1255.12025,208.129897 1304.38138,227.239899 C1304.38138,227.239899 1347.14001,248.215674 1377.65996,223.613457 C1385.49187,217.299513 1392.51734,207.983387 1397.80763,194.540774 C1406.14723,173.348419 1403.89608,147.196382 1389.6897,128.887726 C1383.49551,120.905478 1373.72775,113.442385 1363.38542,112.551859 C1351.29006,111.512275 1345.10989,122.796094 1344.05374,133.002109 C1343.08232,142.395312 1346.50492,154.109106 1353.30935,160.705879 C1369.11715,176.030827 1397.91783,168.932735 1415.32195,160.777223 C1434.40965,151.833742 1445.81195,131.884811 1440.03882,110.916043 C1438.06858,103.759348 1434.44214,96.7625389 1430.50675,90.4970063 C1430.50675,90.4970063 1408.84875,58.6476402 1366.80675,74.3598837 C1366.80675,74.3598837 1331.98387,81.1541264 1320.94274,127.44301 C1320.94274,127.44301 1315.4225,174.580377 1373.17739,197.088138 C1373.17739,197.088138 1443.671,223.842777 1443.24676,294.761905 C1443.24676,294.761905 1436.45251,355.064153 1384.21851,380.119913 C1384.21851,380.119913 1303.9565,427.68216 1244.50337,350.817911 C1244.50337,350.817911 1215.20137,310.899665 1255.96937,256.96678 C1255.96937,256.96678 1318.4973,196.242839 1298.43689,143.690333 C1289.48895,120.250642 1269.20114,98.5875441 1248.61967,84.6506197 C1231.38372,72.9782306 1209.21357,64.3596197 1188.39768,62.5600946 C1163.07311,60.3700884 1137.99059,70.2467743 1116.9078,83.4963756 C1098.17427,95.2700477 1076.40606,110.575885 1069.59016,132.858784 C1064.03998,151.005005 1072.02478,171.753371 1084.90938,185.124639 C1104.95959,205.932246 1139.95892,206.922145 1166.02433,215.318442 C1183.61381,220.984558 1200.83829,227.767335 1217.51878,235.72665 C1249.1987,250.843936 1293.0638,274.023731 1301.45882,311.609283 C1309.26398,346.557654 1273.06646,370.607591 1241.43494,362.26098 C1201.46192,351.712896 1194.51989,307.064924 1212.15014,275.236579 C1218.59658,263.597951 1226.73744,252.441532 1235.17642,242.170543 C1260.49781,211.353117 1298.49868,206.450128 1335.7307,212.809936 C1370.00723,218.664527 1423.73702,245.813154 1479.91944,256.96678 C1503.16047,261.580711 1551.06253,261.982232 1600,261.213023" id="Path" stroke="#D54D35"></path>
            </g>
        </g>
    </g>
</svg>