<?xml version="1.0" encoding="UTF-8"?>
<svg width="1600px" height="767px" viewBox="0 0 1600 767" version="1.1" xmlns="http://www.w3.org/2000/svg" xmlns:xlink="http://www.w3.org/1999/xlink">
    <!-- Generator: Sketch 59.1 (86144) - https://sketch.com -->
    <title>service 1</title>
    <desc>Created with Sketch.</desc>
    <defs>
        <polygon id="path-1" points="0.249987617 0.0745296504 5.69755766 0.0745296504 5.69755766 32.6574942 0.249987617 32.6574942"></polygon>
    </defs>
    <g id="service-1" stroke="none" stroke-width="1" fill="none" fill-rule="evenodd">
        <g id="Group-Copy" transform="translate(0.000000, 16.000000)">
            <g id="Group-12" transform="translate(1224.862572, 37.460516)">
                <path d="M230.513571,300.43019 C186.73437,304.695487 147.171297,294.211588 111.824351,268.978492 C58.8039316,231.128848 47.7757107,212.348112 47.7732033,208.708549 C47.7706959,205.068986 17.9367411,170.059848 59.9088042,129.830578 C101.880867,89.6013084 200.712565,60.6467791 257.148046,60.6856588 C313.583526,60.7246169 334.900963,63.0635506 353.797095,93.2290735 C366.394516,113.339422 365.238656,139.625039 350.329514,172.085923 C341.144803,187.93488 336.559154,205.59566 336.57257,225.068262 C336.592692,254.277166 302.166313,277.21226 277.61005,288.828997 C261.239208,296.573488 245.540382,300.440553 230.513571,300.43019 Z" id="Path-7" fill="#D7F1FE" transform="translate(199.970165, 181.020477) scale(-1, 1) rotate(-153.000000) translate(-199.970165, -181.020477) "></path>
                <path d="M335.923069,120.303128 C327.463274,118.567902 324.308174,108.950101 326.457769,91.4497248 C329.682161,65.1991603 338.135309,51.6867862 340.810709,51.6847382 C343.486108,51.6826903 350.803379,46.1242335 356.187266,62.5670897 C361.571153,79.009946 363.440882,96.6372694 359.220878,108.462897 C356.407542,116.346649 348.641606,120.293392 335.923069,120.303128 Z" id="Path-8" fill="#D5F0FE" transform="translate(343.669799, 85.540915) rotate(-58.000000) translate(-343.669799, -85.540915) "></path>
            </g>
            <g id="Group-21" transform="translate(1025.936104, 115.562907)" stroke-linecap="round" stroke-width="5">
                <path d="M4,265.105898 C11.5840005,255.925269 41.3668071,40.1344549 259.983988,7" id="Path-123" stroke="#1532A3"></path>
                <path d="M7.20037938,265.465188 C14.7843799,256.28456 44.5671865,40.4937459 263.184367,7.35929095" id="Path-123-Copy" stroke="#D54D35" transform="translate(135.192373, 136.412240) rotate(-3.000000) translate(-135.192373, -136.412240) "></path>
            </g>
            <path d="M1294.72527,217.912299 L1282.33449,195.350256 L1304.95271,184.761345 C1301.82579,170.58092 1301.04406,160.483306 1302.60752,154.468502 C1286.69261,144.850481 1278.73516,140.04147 1278.73516,140.04147 C1285.53445,120.903344 1288.93409,111.33428 1288.93409,111.33428 C1305.70466,118.407586 1314.08994,121.944239 1314.08994,121.944239 C1323.66215,111.344771 1331.11186,105.50665 1336.43908,104.429876 C1331.259,85.6255859 1328.66896,76.2234408 1328.66896,76.2234408 C1347.00329,66.50413 1356.17046,61.6444747 1356.17046,61.6444747 C1367.47886,80.0600108 1373.13306,89.2677788 1373.13306,89.2677788 C1383.29979,89.2824614 1389.45812,89.9396045 1391.60804,91.2392081 C1401.51905,76.568116 1406.47455,69.2325699 1406.47455,69.2325699 C1424.29999,73.871864 1433.29544,77.397214 1433.4609,79.80862 C1426.10818,96.2748223 1422.43182,104.507923 1422.43182,104.507923 C1435.28401,117.004089 1441.71011,123.252172 1441.71011,123.252172 L1462.34585,117.044322 L1467.06373,126.421985 L1472.25374,144.310139 L1470.51875,145.690062 L1472.25374,148.829022 L1457.06741,159.269226 C1458.15179,166.916677 1457.86871,173.077226 1456.21819,177.750873 L1477.01009,190.844639 L1459.56975,217.912299 L1448.7736,208.76953 C1434.01733,220.311187 1424.84035,226.84348 1421.24269,228.366409 C1429.77552,243.236053 1434.04194,250.670874 1434.04194,250.670874 C1418.39872,257.988262 1410.57712,261.646956 1410.57712,261.646956 L1397.41993,241.661841 C1383.96534,243.388159 1373.93029,243.388159 1367.3148,241.661841 C1355.28856,260.103733 1349.27543,269.324679 1349.27543,269.324679 C1336.63019,264.242239 1327.85649,262.237926 1322.95433,263.311739 C1330.49933,244.387707 1334.27183,234.925691 1334.27183,234.925691 C1326.84749,229.337073 1320.72037,223.351141 1315.89048,216.967896 C1316.02787,212.369971 1316.09656,210.071009 1316.09656,210.071009 L1312.61705,209.650568 L1294.72527,217.912299 Z" id="Path-17" fill="#FFFFFF"></path>
            <g id="Group-8" transform="translate(1277.250191, 61.818002)">
                <path d="M15.6769871,161.001405 C15.6769871,161.001405 -2.63050383,138.170635 0.322317298,133.723082 L26.6024253,120.380424 C26.6024253,120.380424 21.8779115,102.886717 26.6024253,93.1021016 L1.50344575,78.2769262 L11.8383197,49.5160859 L36.9372992,60.1902122 C36.9372992,60.1902122 46.3863268,46.5510508 59.6740219,42.4000017 L51.1108406,14.8251754 L78.8673592,0 L95.9937217,27.5748263 C95.9937217,27.5748263 108.986135,27.2783228 114.596495,29.9468543 L129.065318,7.70909122 C129.065318,7.70909122 153.278451,13.0461544 155.93599,17.7902105 L145.388759,42.4000017 C145.388759,42.4000017 146.486963,43.5860157 155.050144,51.2951069 L164.499172,61.3762262 L191.074562,53.667135 L201.704718,82.7244788 C201.704718,82.7244788 190.188716,93.1021016 179.853842,97.2531507 C179.853842,97.2531507 181.03497,108.816788 178.967995,115.932872 L202,129.868537 L189.893433,158.629377 L168.928403,152.402803 C168.928403,152.402803 160.365222,162.780426 149.735066,167.524482 C149.735066,167.524482 149.144502,175.530077 155.050144,184.425182 C155.050144,184.425182 155.93599,186.79721 159.479376,191.244763 L133.789832,208.441966 C133.789832,208.441966 119.321009,186.79721 116.958752,184.425182 C116.958752,184.425182 101.604082,187.983224 89.2022331,185.018189 L74.4381275,212 C74.4381275,212 49.3391479,206.662945 46.3863268,201.325882 L56.7212007,172.861545 C56.7212007,172.861545 50.5202764,171.082524 39.004274,155.367838 L15.6769871,161.001405 Z" id="Stroke-1" stroke="#172F3B" stroke-width="3.1"></path>
                <path d="M94.9970461,143.754093 C89.5849745,142.708306 83.7676503,141.775748 78.9388025,137.794722 C69.8269932,130.283036 63.612398,120.083885 64.2443026,107.792685 C64.2443026,107.792685 65.9892607,102.061296 69.4602069,94.7863789 C74.1282933,85.0023203 82.9240514,73.0373168 104.338816,74.2647457 C104.338816,74.2647457 141.990858,79.8478766 137.264571,117.180405 C137.264571,117.180405 133.878111,143.698017 108.120318,145.600787 C103.21585,145.963174 99.3707524,144.599187 94.9970461,143.754093 Z" id="Stroke-5" stroke="#172F3B" stroke-width="3.5" fill="#D7F1FE"></path>
                <path d="M94.4351962,73.8835205 C104.603395,78.8841747 111.502387,82.6746392 115.132172,85.254914 C122.517519,90.5048726 126.545401,96.48862 130.741348,100.17177" id="Path-129-Copy" stroke="#1532A3" stroke-width="4" stroke-linecap="round" transform="translate(112.588272, 87.027645) rotate(-5.000000) translate(-112.588272, -87.027645) "></path>
                <polyline id="Path-126" stroke="#D54D35" stroke-width="3" stroke-linecap="round" points="21.0877567 126.376025 2.08429513 134.584395 15.4489806 155.642007 30.6699003 149.543607 37.3700772 149.543607 41.8363532 156.46471"></polyline>
                <polyline id="Path-128" stroke="#D54D35" stroke-width="3" stroke-linecap="round" points="176.415522 119.789265 195.003547 130.616002 188.661551 153.828387 168.753907 145.660744 166.949787 151.052588"></polyline>
                <path d="M64.3258984,47.4846912 L66.4556922,47.0972976 L56.775498,16.8956959 L79.8140929,3.7307016 L92.5916936,32.7707032 C92.5916936,32.7707032 107.111694,30.6414903 115.823695,35.5782906 L129.472496,12.9270893 L152.704497,19.6062897 C152.704497,19.6062897 142.540496,37.3206907 143.702096,43.9998911 L156.479697,62.8758921 L161.706897,68.3934924 L187.552499,57.9390918 L194.812499,82.0422932 L174.194098,96.271894 C174.194098,96.271894 178.840498,106.145495 172.742098,115.728695 L199.1685,130.829496 L183.486899,155.223097 L169.547698,148.253497 C169.547698,148.253497 155.898897,161.611898 144.573297,161.611898 L141.378896,163.063898 L155.318097,189.780699 L132.957296,199.3639 L119.598895,179.326299 C119.598895,179.326299 105.078894,183.101499 90.2684935,179.616699 L72.4570989,206.6239 L53.0157095,201.181998 L60.2602982,172.356698 C60.2602982,172.356698 49.0316912,161.902298 44.7726845,152.222104 L36.0606841,147.382297 L17.475083,156.094297 L5.08429513,134.410709 L33.0596903,121.052889 C36.9318841,121.052889 27.7025234,106.116155 31.3172902,96.271894 L31.5106966,93.1744874 L6.63328881,76.9115057 L14.3770956,53.6795044 L36.8348905,66.2636987 C38.5581242,62.9943753 44.2133741,50.2115474 64.3258984,47.4846912 Z" id="Stroke-7" stroke="#172F3B" stroke-width="2.6"></path>
                <path d="M122.040107,177.181998 L130.250514,193.458906 C144.897105,194.684781 152.2204,191.587084 152.2204,184.165815 C152.2204,176.744546 149.477766,170.252471 143.992497,164.689591 C155.074891,160.971975 161.625057,157.351573 163.642994,153.828387" id="Path-125" stroke="#1532A3" stroke-width="3" stroke-linecap="round"></path>
                <path d="M49.9995944,53.7449056 C43.5711681,55.4700653 39.5056647,59.3994281 37.8030842,65.5329938 C23.4695716,58.9344994 16.3028153,55.6352521 16.3028153,55.6352521 C9.24518579,67.1230635 5.71637101,72.8669692 5.71637101,72.8669692 L19.0847494,86.9452774" id="Path-127" stroke="#1532A3" stroke-width="3" stroke-linecap="round"></path>
                <polyline id="Path-124" stroke="#D54D35" stroke-width="3" stroke-linecap="round" points="99.2709008 34.2920548 116.88165 40.3679159 129.956593 12.8487928 152.2204 19.0251993 143.992497 37.9027394"></polyline>
                <path d="M8.66990034,77.4414084 L17.3819008,56.3392008 L39.0649084,68.3420143 C39.0649084,68.3420143 48.5956942,57.6532712 63.7502936,55.7639645 L66.4556922,47.0972976 L56.295503,18.5871987 C62.1260035,17.838567 66.5142382,16.9995046 69.4602069,16.0700114 C72.4061757,15.1405182 76.8248391,13.2008845 82.7161971,10.2511104 L93.4667051,39.4959999 C93.4667051,39.4959999 105.276112,38.5278062 110.309906,42.0126064 L116.698706,44.529213 L119.602707,37.9470062 L130.250514,16.0700114" id="Stroke-9" stroke="#172F3B" stroke-width="2.6"></path>
                <path d="M129.956593,193.846009 C129.956593,193.846009 150.671406,193.652603 152.2204,184.165815" id="Stroke-11" stroke="#172F3B" stroke-width="2.6"></path>
                <path d="M49.9995944,193.458906 C49.9995944,193.458906 71.6826021,195.782106 75.1674023,201.202713" id="Stroke-13" stroke="#172F3B" stroke-width="3"></path>
                <path d="M47.6699003,201.181998 C47.6699003,201.181998 69.352908,203.505198 72.8377082,208.925805" id="Stroke-13-Copy" stroke="#172F3B" stroke-width="3"></path>
                <path d="M54.061061,8.97688938 C54.061061,8.97688938 75.7440686,11.3000895 79.2288688,16.7206962" id="Stroke-13-Copy-2" stroke="#172F3B" stroke-width="3" transform="translate(66.644965, 12.848793) rotate(-25.000000) translate(-66.644965, -12.848793) "></path>
                <line x1="7.50448886" y1="129.377205" x2="19.9916896" y2="154.642007" id="Stroke-15" stroke="#172F3B" stroke-width="2.6"></line>
                <path d="M193.268557,62.3870396 L159.379392,70.3001547 C159.379392,70.3001547 140.217296,55.133116 141.088496,49.0347157 L151.542897,19.0251993" id="Stroke-17" stroke="#172F3B" stroke-width="2.6"></path>
                <path d="M25.7996899,88.7212032 C25.7996899,88.7212032 19.4108895,107.306804 31.3172902,117.180405" id="Stroke-19" stroke="#172F3B" stroke-width="2.6"></path>
                <path d="M37.8030842,148.543607 C37.8030842,148.543607 49.9998848,164.612601 60.4542854,168.484214 L64.132492,169.259001 L64.5198857,173.324601 L51.5488785,197.524216" id="Stroke-21" stroke="#172F3B" stroke-width="2.6"></path>
                <path d="M143.992497,166.548408 C155.608497,162.773207 164.901298,145.639606 164.901298,145.639606 L167.902291,144.381013 L183.293492,154.835413" id="Stroke-23" stroke="#172F3B" stroke-width="2.6"></path>
                <path d="M78.6699003,128.181998 C85.1044528,133.172692 90.0151116,136.111761 93.4018766,136.999205 C96.7886416,137.88665 101.740572,138.549178 108.257667,138.986791 C115.4008,138.986791 120.717682,137.185992 124.208313,133.584395" id="Path-15-Copy" stroke="#D54D35" stroke-width="3" stroke-linecap="round"></path>
                <path d="M76.5016944,129.377205 C82.9362469,134.367899 87.8469056,137.306968 91.2336706,138.194412 C94.6204356,139.081857 99.5723656,139.744386 106.089461,140.181998 C113.232594,140.181998 118.549476,138.381199 122.040107,134.779602" id="Path-15" stroke="#172F3B" stroke-width="3" stroke-linecap="round"></path>
                <path d="M182.319555,60.7454818 C186.345818,73.0259715 189.669124,80.3355133 192.289473,82.6741073 C194.909823,85.0127013 195.632776,87.0283999 194.458333,88.7212032" id="Path-16" stroke="#172F3B" stroke-width="3" stroke-linecap="round"></path>
            </g>
            <path d="M1462.89398,311.700982 C1462.89398,311.700982 1450.07874,295.719443 1452.14571,292.606156 L1470.54179,283.266296 C1470.54179,283.266296 1467.23463,271.020701 1470.54179,264.17147 L1452.9725,253.793847 L1460.20692,233.66126 L1477.7762,241.133148 C1477.7762,241.133148 1484.39052,231.585735 1493.69191,228.680001 L1487.69768,209.377623 L1507.12724,199 L1519.1157,218.302378 C1519.1157,218.302378 1528.21038,218.094826 1532.13764,219.962798 L1542.26581,204.396364 C1542.26581,204.396364 1559.21501,208.132308 1561.07528,211.453147 L1553.69222,228.680001 C1553.69222,228.680001 1554.46096,229.51021 1560.45519,234.906574 L1567.06951,241.963358 L1585.67228,236.566994 L1593.11339,256.907134 C1593.11339,256.907134 1585.05219,264.17147 1577.81778,267.077204 C1577.81778,267.077204 1578.64457,275.17175 1577.19769,280.153009 L1593.32009,289.907974 L1584.84549,310.040562 L1570.16997,305.68196 C1570.16997,305.68196 1564.17574,312.946296 1556.73464,316.267136 C1556.73464,316.267136 1556.32124,321.871052 1560.45519,328.097625 C1560.45519,328.097625 1561.07528,329.758045 1563.55565,332.871332 L1545.57297,344.909374 C1545.57297,344.909374 1535.4448,329.758045 1533.79122,328.097625 C1533.79122,328.097625 1523.04295,330.588255 1514.36165,328.51273 L1504.02678,347.399997 C1504.02678,347.399997 1486.45749,343.664059 1484.39052,339.928115 L1491.62493,320.00308 C1491.62493,320.00308 1487.28428,318.757765 1479.22308,307.757485 L1462.89398,311.700982 Z" id="Stroke-1" stroke="#172F3B" stroke-width="2.4"></path>
            <path d="M1502.64006,343.636728 L1487.00205,337.266949 L1493.25391,317.131505 C1482.94915,308.353054 1477.79676,303.314309 1477.79676,302.015268 C1468.85903,306.0063 1464.39017,308.001817 1464.39017,308.001817 C1458.31064,297.446965 1455.27087,292.169539 1455.27087,292.169539 C1469.0986,286.524051 1476.01247,283.701307 1476.01247,283.701307 C1472.82757,273.568296 1472.20344,267.008154 1474.14008,264.020881 C1462.6365,256.458662 1456.88471,252.677552 1456.88471,252.677552 C1460.5643,241.582838 1462.40409,236.035481 1462.40409,236.035481 C1472.99705,242.630554 1478.29352,245.928091 1478.29352,245.928091 C1482.22895,237.298882 1488.43743,231.29588 1496.91896,227.919085 C1493.59629,216.50366 1491.93496,210.795948 1491.93496,210.795948 C1503.00696,204.392305 1508.54297,201.190484 1508.54297,201.190484 C1513.86507,215.26358 1516.52613,222.300128 1516.52613,222.300128 C1523.42118,220.428103 1528.82592,220.823349 1532.74035,223.485866 C1538.90853,213.746947 1541.99262,208.877488 1541.99262,208.877488 C1553.09973,211.520261 1558.65328,212.841647 1558.65328,212.841647 C1554.70082,224.271971 1552.72459,229.987132 1552.72459,229.987132 C1560.99587,241.35091 1565.13151,247.0328 1565.13151,247.0328 C1577.50297,241.900818 1583.68869,239.334827 1583.68869,239.334827 C1586.63128,250.554547 1588.10258,256.164407 1588.10258,256.164407 C1586.66273,256.813035 1585.9428,257.137349 1585.9428,257.137349 C1588.02835,258.964767 1589.07113,259.878476 1589.07113,259.878476 C1581.84628,264.691629 1578.23386,267.098205 1578.23386,267.098205 C1577.80827,274.814459 1577.24593,279.570573 1576.54684,281.366548 C1587.613,287.191032 1593.14608,290.103275 1593.14608,290.103275 C1583.97754,302.292646 1579.39327,308.387331 1579.39327,308.387331 C1574.64008,305.25827 1572.26349,303.69374 1572.26349,303.69374 C1563.03133,311.267398 1556.5052,315.160626 1552.6851,315.373422 L1560.63768,331.824742 L1544.9902,338.554727 L1536.79698,324.559677 C1532.69672,326.111273 1525.46707,326.16861 1515.10804,324.731687 L1505.25662,339.943608 L1502.64006,343.636728 Z" id="Path-18" fill="#FFFFFF"></path>
            <path d="M1473.84219,273.818002 C1474.90116,269.060903 1474.90116,265.901962 1473.84219,264.341177 C1472.78322,262.780392 1469.794,260.616157 1464.87451,257.848472 L1455.4791,250.924236 L1460.54368,235.591989 L1476.41869,242.429641" id="Path-136" stroke="#D54D35" stroke-width="4" stroke-linecap="round"></path>
            <g id="Group-14" transform="translate(1522.860206, 276.424236) scale(1, -1) translate(-1522.860206, -276.424236) translate(1496.860206, 250.924236)">
                <path d="M21.5578165,48.7036272 C17.7693665,47.9715768 13.6972396,47.3187863 10.3170462,44.5320676 C3.93877979,39.2738881 -0.411436764,32.1344822 0.030896458,23.5306424 C0.030896458,23.5306424 1.25236706,19.5186702 3.68202941,14.4262282 C6.94968978,7.57738736 13.1067203,-0.798114983 28.0970552,0.0610852428 C28.0970552,0.0610852428 54.4534842,3.96927679 51.1450831,30.1020461 C51.1450831,30.1020461 48.7745618,48.6643742 30.7441069,49.9963132 C27.3109791,50.2499841 24.6194109,49.2951932 21.5578165,48.7036272 Z" id="Stroke-5" stroke="#172F3B" stroke-width="3" fill="#D7F1FE"></path>
                <path d="M10.0598854,36.9242358 C14.564072,40.6194059 18.0015331,42.7955283 20.3722686,43.452603 C22.7430041,44.1096778 26.209355,44.600222 30.7713214,44.9242358 C35.7715144,44.9242358 39.4933319,43.5909025 41.9367739,40.9242358" id="Path-15-Copy-2" stroke="#1532A3" stroke-width="3" stroke-linecap="round"></path>
                <path d="M8.05988538,36.0757642 C12.564072,39.7709342 16.0015331,41.9470566 18.3722686,42.6041313 C20.7430041,43.2612061 24.209355,43.7517503 28.7713214,44.0757642 C33.7715144,44.0757642 37.4933319,42.7424308 39.9367739,40.0757642" id="Path-15" stroke="#172F3B" stroke-width="2.5" stroke-linecap="round"></path>
            </g>
            <path d="M1496.94822,232.239283 L1498.43908,231.968108 L1491.66294,210.826987 L1507.78996,201.611491 L1516.73428,221.939492 C1516.73428,221.939492 1526.89828,220.449043 1532.99668,223.904803 L1542.55084,208.048962 L1558.81324,212.724403 C1558.81324,212.724403 1551.69844,225.124483 1552.51156,229.799923 L1561.45588,243.013124 L1565.11492,246.875444 L1583.20684,239.557364 L1588.28884,256.429604 L1575.43048,265.303683 C1574.43481,265.990837 1573.80362,267.091693 1573.71359,268.298107 L1573.12142,276.233185 C1572.94923,278.540503 1574.11906,280.74123 1576.12794,281.889163 L1591.33804,290.580646 L1591.33804,290.580646 L1580.36092,307.656166 L1570.60348,302.777446 C1570.60348,302.777446 1561.04932,312.128326 1553.1214,312.128326 L1550.88532,313.144726 L1560.64276,331.846487 L1544.9902,338.554727 L1535.63932,324.528407 C1535.63932,324.528407 1525.47532,327.171047 1515.10804,324.731687 L1502.64006,343.636728 L1486.92001,336.454032 L1494.1023,319.649687 C1494.1023,319.649687 1486.24227,312.331606 1483.26097,305.555471 L1477.16257,302.167606 L1464.15265,308.266006 L1455.4791,293.087495 L1475.06187,283.737021 C1477.77241,283.737021 1471.31186,273.281307 1473.84219,266.390325 L1473.97758,264.22214 L1456.56339,252.838053 L1461.98406,236.575652 L1477.70451,245.384588 C1478.91078,243.096062 1482.86945,234.148083 1496.94822,232.239283 Z" id="Stroke-7" stroke="#172F3B" stroke-width="2.4"></path>
            <polyline id="Path-135" stroke="#1532A3" stroke-width="3" stroke-linecap="round" points="1493.53023 321.052771 1487.00205 337.131564 1501.57065 345.2711 1512.88374 330.493097 1515.10804 324.731687 1522.5764 324.731687"></polyline>
            <polyline id="Path-134" stroke="#D54D35" stroke-width="3" stroke-linecap="round" points="1535.75252 222.414622 1542.62385 207.327169 1558.00012 212.317639 1554.29778 224.828393 1551.85808 228.559872 1559.11051 238.62545"></polyline>
            <path d="M1479.26553,246.839409 C1479.26553,246.839409 1480.71335,239.992234 1487.73313,234.547586 C1489.36832,233.279309 1492.93697,232.419483 1498.43908,231.968108 L1493.25391,214.173281 C1496.05061,212.207744 1498.48006,210.899653 1500.54224,210.249008 C1502.60441,209.598363 1505.69748,208.240619 1509.82143,206.175777 L1516.6953,224.874949 C1517.05379,225.850131 1518.09927,226.388419 1519.10128,226.11371 C1523.38317,224.939801 1526.56163,225.071096 1528.63665,226.507593 L1529.55445,227.183663 C1531.3495,228.505929 1533.87659,228.122661 1535.19886,226.327608 C1535.37411,226.089693 1535.52271,225.833255 1535.64198,225.562904 L1535.64198,225.562904 L1535.64198,225.562904 L1543.09545,210.249008" id="Stroke-9" stroke="#172F3B" stroke-width="2.4"></path>
            <path d="M1542.8897,334.692204 C1542.8897,334.692204 1557.39007,334.55682 1558.47437,327.916068" id="Stroke-11" stroke="#172F3B" stroke-width="2.4"></path>
            <path d="M1486.91981,334.421232 C1486.91981,334.421232 1502.09791,336.047472 1504.53727,339.841896" id="Stroke-13" stroke="#172F3B" stroke-width="2.4"></path>
            <path d="M1587.20808,242.670927 L1563.48566,248.210107 C1563.48566,248.210107 1550.0722,237.593181 1550.68204,233.3243 L1558.00012,212.317639" id="Stroke-17" stroke="#172F3B" stroke-width="2.4"></path>
            <path d="M1469.97987,261.104841 C1469.97987,261.104841 1465.50771,274.114762 1473.84219,281.026282" id="Stroke-19" stroke="#172F3B" stroke-width="2.4"></path>
            <path d="M1476.92009,300.962519 C1476.92009,300.962519 1486.92001,314.228819 1494.23809,316.938948 L1497.08401,320.327219 L1488.00431,337.266949" id="Stroke-21" stroke="#172F3B" stroke-width="2.4"></path>
            <path d="M1552.71484,315.583883 C1560.84604,312.941243 1567.351,300.947723 1567.351,300.947723 L1569.45169,300.066707 L1580.22553,307.384787" id="Stroke-23" stroke="#172F3B" stroke-width="2.4"></path>
            <path d="M1579.54378,241.521837 C1582.36216,250.118179 1584.68848,255.234858 1586.52272,256.871874 C1588.35696,258.50889 1588.86303,259.919879 1588.04092,261.104841" id="Path-16" stroke="#172F3B" stroke-width="2.4" stroke-linecap="round"></path>
            <g id="Group-16" transform="translate(1263.920091, 239.000000)">
                <g id="Group-3" transform="translate(47.000000, 54.140130) scale(1, -1) translate(-47.000000, -54.140130) translate(0.000000, 35.140130)">
                    <g id="Group-15" transform="translate(47.045104, 18.759534) rotate(-5.000000) translate(-47.045104, -18.759534) translate(1.545104, 4.259534)">
                        <path d="M89.4491717,17.6362672 C86.8605398,15.9770611 84.5227349,14.0116435 82.3501765,11.8217889 C81.3987038,10.8631522 80.4983706,9.81813914 79.3350344,9.12818979 L79.2863301,9.14057985 C79.2863301,9.14057985 78.5634196,8.80852623 78.1355178,8.87047653 C78.12856,8.88145059 78.1160361,8.88711462 78.1073389,8.89702666 C78.0788121,8.97844706 78.0614177,9.07331952 78.0690712,9.19969814 C78.0690712,9.19969814 78.0722022,10.0400982 79.3712147,12.0660501 C79.4773204,12.1598605 79.5695106,12.257919 79.6129966,12.3655355 C79.6641361,12.4168658 79.7149277,12.463594 79.7646756,12.5035962 C79.7646756,12.5035962 80.7213666,13.7868524 79.6777037,13.5656014 L77.9633134,12.867864 C73.6724672,11.1350255 69.0862645,9.97566991 64.5553758,9.11686173 C63.1892211,8.85737847 61.8175001,8.62444534 60.4464749,8.3911582 C59.2674837,8.19043923 58.0773601,8.11963888 56.8997604,7.92989396 C55.7305101,7.74156505 54.6127471,7.44172559 53.4250587,7.34862314 C50.5643786,7.12489405 47.6529069,6.84594069 44.7831818,6.85549874 C38.67671,6.98152335 32.3503733,7.86440364 26.4717679,9.54768183 C22.1022992,10.7987239 17.8326742,12.5074902 13.7613451,14.5476021 C12.4793791,15.1897613 11.0690426,15.8283804 9.8994444,16.6716125 C8.76011237,17.4936045 7.66913673,18.3984329 6.64217242,19.4158338 C5.95822532,20.0933931 5.63886446,20.6753719 6.47170747,21.3837294 C6.75036547,21.6205565 7.04989673,21.7844593 7.34942799,21.8552597 C7.47849431,21.5490482 8.60008406,19.9521464 18.3478957,15.3058738 C18.3478957,15.3058738 20.8961727,13.9316391 25.3571359,12.4430619 C28.2279047,11.2557401 31.1581623,10.5711008 34.1353848,10.1353247 C36.1186922,9.74556879 38.2564618,9.41139116 40.528168,9.17066999 C40.6394921,9.1519079 40.7522077,9.14164185 40.8656191,9.13597783 C46.7828399,8.53736092 53.5941321,8.57984112 60.9641317,9.93708372 C60.9641317,9.93708372 72.7926594,11.9428575 81.605697,16.1908781 C81.605697,16.1908781 82.7648586,17.4298842 79.9240081,16.8401173 C79.9240081,16.8401173 76.8570307,16.2804406 74.9001627,16.6432923 C74.766226,16.8029471 74.6837766,16.9509198 74.6413343,17.0886265 C74.5922822,17.4836924 75.0389699,18.014695 77.6773497,18.1233735 C78.9847115,18.4603832 80.3080761,18.7627006 81.6317886,19.0232459 C83.8822737,19.4661021 86.5164789,20.1358733 88.8111458,19.7213373 C89.7629664,19.5492925 90.5241445,18.3262165 89.4491717,17.6362672" id="Fill-1" fill="#172F3B" transform="translate(47.973704, 14.355260) rotate(-9.000000) translate(-47.973704, -14.355260) "></path>
                        <path d="M0.295493676,14.3552597 C3.76541216,20.3107882 8.36965784,25.1441216 14.1082307,28.8552597" id="Path-19" stroke="#172F3B" stroke-width="2.4" stroke-linecap="round" transform="translate(7.201862, 21.605260) scale(1, -1) translate(-7.201862, -21.605260) "></path>
                    </g>
                </g>
                <path d="M1.13686838e-13,0 C1.41439478,3.12394624 9.35276963,36.1952276 34.1331838,48.6699357" id="Path-20" stroke="#172F3B" stroke-width="2.4" stroke-linecap="round"></path>
            </g>
            <g id="Group-17" transform="translate(1573.533652, 189.406660) rotate(-11.000000) translate(-1573.533652, -189.406660) translate(1538.533652, 154.406660)">
                <g id="Group-16" transform="translate(38.226692, 34.551278) scale(1, -1) rotate(-52.000000) translate(-38.226692, -34.551278) translate(6.226692, 19.551278)" fill="#172F3B">
                    <g id="Group-3" transform="translate(32.000000, 14.640130) scale(1, -1) translate(-32.000000, -14.640130) translate(-0.000000, 0.140130)">
                        <g id="Group-15" transform="translate(31.726558, 14.463614) rotate(-5.000000) translate(-31.726558, -14.463614) translate(1.226558, 2.963614)">
                            <path d="M52.0338772,9.80663182 C51.0824045,8.84799516 50.1820713,7.80298208 49.018735,7.11303272 L48.9700307,7.12542278 C48.9700307,7.12542278 48.2471202,6.79336917 47.8192184,6.85531947 C47.8122607,6.86629352 47.7997367,6.87195755 47.7910395,6.8818696 C47.7625127,6.96329 47.7451183,7.05816246 47.7527719,7.18454107 C47.7527719,7.18454107 47.7559029,8.02494116 49.0549153,10.050893 C49.161021,10.1447035 49.2532113,10.2427619 49.2966972,10.3503785 C49.3478367,10.4017087 49.3986283,10.4484369 49.4483762,10.4884391 C49.4483762,10.4884391 50.4050672,11.7716954 49.3614043,11.5504443 L47.647014,10.8527069 C43.3561679,9.11986848 38.7699651,7.96051284 34.2390765,7.10170467 C32.8729217,6.84222141 31.5012007,6.60928827 30.1301755,6.37600114 C28.9511843,6.17528216 27.7610607,6.10448182 26.5834611,5.9147369 C25.4142107,5.72640798 24.2964477,5.42656852 23.1087593,5.33346607 C20.2480792,5.10973698 17.3366076,4.83078363 14.4668824,4.84034167 C14.3024966,4.84373425 6.22284757,5.35060716 6.05664744,5.35887359 C0.0489792457,5.65768193 0.922009615,8.54421267 3.81908541,8.12016762 C5.80239284,7.73041173 7.9401624,7.3962341 10.2118687,7.15551293 C10.3231927,7.13675084 10.4359083,7.12648479 10.5493197,7.12082076 C16.4665406,6.52220385 23.2778327,6.56468406 30.6478324,7.92192666 C30.6478324,7.92192666 42.47636,9.92770041 51.2893976,14.1757211 C51.2893976,14.1757211 52.4485592,15.4147271 49.6077088,14.8249602 C49.6077088,14.8249602 46.5407313,14.2652835 44.5838634,14.6281353 C44.4499266,14.78779 44.3674772,14.9357628 44.3250349,15.0734694 C44.2759828,15.4685353 44.7226705,15.9995379 47.3610504,16.1082165 C48.6684121,16.4452261 49.9917767,16.7475436 51.3154892,17.0080888 C53.5659743,17.450945 56.2001796,18.1207162 58.4948464,17.7061802 C59.446667,17.5341354 60.2078452,16.3110594 59.1328724,15.6211101 C56.5442404,13.961904 54.2064355,11.9964865 52.0338772,9.80663182 Z" id="Fill-1" transform="translate(30.618054, 11.338199) rotate(-9.000000) translate(-30.618054, -11.338199) "></path>
                        </g>
                    </g>
                </g>
                <path d="M1.42108547e-14,13 C10.7812608,15.9280052 19.2841959,19.9936054 25.5088053,25.1968007" id="Path-26" stroke="#172F3B" stroke-width="2.1" stroke-linecap="round"></path>
            </g>
            <path d="M959.291689,635.220585 C980.369377,644.191127 1001.26311,642.756994 1021.9729,630.918185 C1025.03978,627.659658 1007.62091,628.606007 969.716308,633.757232 C967.24512,634.629654 963.477949,636.132963 958.414797,638.267159 C953.227163,635.217101 954.557867,631.668839 962.406909,627.622372 C978.319594,621.38144 997.454414,618.605127 1019.81137,619.293432 C1021.81714,619.755604 1018.62257,620.925584 1010.22765,622.803371 C971.145872,627.900759 954.735118,625.862236 960.995386,616.687802 C975.649578,606.171272 994.213531,599.047149 1016.68725,595.315436 C1027.73892,599.352896 1009.56023,601.65187 962.151182,602.212357 C953.14227,601.375543 958.125276,597.405735 977.100202,590.302933" id="Path-120" stroke="#1532A3" stroke-width="3"></path>
            <g id="Group-23" transform="translate(841.920091, 309.000000)">
                <path d="M13.3067462,110.532694 C56.2605406,72.6834441 48.2562743,5.08726102 105.070719,23.264126 C161.885164,41.440991 127.01719,116.406561 221.385614,132.340809 C315.754038,148.275056 349.987343,226.9385 332.618072,266.305803 C315.248802,305.673105 211.215977,275.504245 125.422424,289.347415 C39.6288703,303.190586 -29.6470482,148.380177 13.3067462,110.532694 Z" id="Path_396-Copy" fill="#D7F1FE" fill-rule="nonzero"></path>
                <path d="M157.599132,263.536368 C157.272372,261.748185 156.83617,260.117599 156.697023,258.458927 C155.869958,248.652008 154.639524,238.845088 154.486306,229.022566 C154.373738,221.846428 155.355584,214.592273 156.490647,207.47543 C157.583498,200.62385 159.525301,193.906461 161.032465,187.115735 C161.338901,185.745731 162.159712,185.890846 163.138431,186.050003 C168.577668,186.933172 173.693272,186.023477 178.317953,183.008844 C181.81695,180.726024 184.184012,177.516345 185.122081,173.400092 C186.082038,169.190216 183.008298,165.350148 178.530582,165.094247 C171.652971,164.699474 166.707784,167.877946 163.327608,173.612302 C161.956464,175.937252 160.924587,178.474406 159.889585,180.977244 C159.444002,182.055458 158.737323,182.138158 157.975924,181.769911 C154.090754,179.888106 150.230599,177.950128 146.389206,175.979382 C145.188478,175.363036 145.104052,174.545402 145.768517,173.253417 C148.124634,168.673734 148.878216,163.816305 147.47424,158.784115 C147.119337,157.510854 146.013979,156.921035 144.860154,156.119005 C141.8255,154.010946 140.160427,155.859984 138.403111,157.538941 C135.831238,159.996522 134.299059,163.107898 135.518549,166.62653 C136.551988,169.608395 138.30305,172.342161 139.936854,175.583048 C138.476593,176.374155 136.616089,177.556915 134.619566,178.421359 C131.888221,179.604119 129.028674,180.485727 126.273877,181.620116 C125.181027,182.067941 124.661962,181.72154 123.897436,180.956959 C121.15202,178.207589 118.414422,175.420769 115.418854,172.958507 C113.353539,171.260826 110.689422,170.212258 108.175397,171.99576 C105.569128,173.844797 105.248621,176.864111 105.531605,179.766397 C105.920904,183.746898 108.725731,186.340232 112.746921,186.401086 C115.847239,186.447897 118.967882,186.171712 122.052566,185.809706 C123.23297,185.673954 123.87242,185.9517 124.521252,186.833308 C128.950501,192.846971 132.00548,199.506625 133.9551,206.687444 C135.337189,211.780488 136.816211,216.854808 137.998178,221.994664 C140.276123,231.890524 141.089116,241.93774 140.535655,252.078578 C140.294884,256.492862 139.918093,260.900904 139.592896,265.440018 C133.86911,264.890768 129.588388,262.206933 127.360474,257.132613 C125.501534,252.899332 124.250775,248.375822 122.985945,243.910046 C121.255208,237.802762 119.000715,231.938895 116.166182,226.24979 C114.737191,223.383392 113.936705,220.20336 112.843854,217.170003 C110.870782,211.693107 107.747012,206.868446 104.177659,202.334014 C98.8885126,195.616626 94.3701463,188.467015 91.5684465,180.351536 C88.6401074,171.87249 86.5216346,163.207761 85.4928855,154.262166 C84.6892729,147.267032 84.5720143,140.290622 85.7164586,133.375066 C87.6113582,121.946924 92.6315915,112.091633 101.491654,104.391212 C109.534034,97.4038796 118.977263,93.3079109 129.260064,90.8066394 C138.994095,88.4364389 148.837567,87.6032019 158.807678,88.1228047 C168.397872,88.6205625 177.775436,90.4259094 186.501042,94.4391785 C189.271473,95.7124396 191.439976,98.4930171 193.594408,100.846054 C199.171229,106.942415 202.460725,114.227778 204.308721,122.22779 C206.580412,132.065917 207.874947,141.904043 206.245834,152.043321 C205.054486,159.469117 202.835953,166.540709 200.153075,173.492153 C196.045896,184.130749 191.893376,194.756862 187.486015,205.273749 C186.166464,208.422574 183.940114,211.193789 182.121823,214.133524 C175.66478,224.563031 172.076666,235.777403 172.415934,248.169854 C172.465965,249.97364 171.485682,251.867928 170.738354,253.617102 C168.576105,258.674258 163.951424,262.1492 157.599132,263.536368" id="Fill-50-Copy" fill="#FFFFFF"></path>
                <g id="Group-133-Copy" transform="translate(6.000000, 0.000000)">
                    <path d="M58.7168513,86.8368058 C54.7980557,86.1764906 51.3022071,85.7957826 47.9109417,84.968019 C41.7958981,83.4783606 35.6639367,81.9681661 29.691926,79.9824814 C26.1530137,78.8040242 22.8909394,76.7251371 19.5365858,74.9874656 C18.5630389,74.4819611 17.7248349,73.6763134 18.5153612,72.4220305 C19.3089634,71.1645882 20.3624858,71.7380198 21.2483674,72.3019732 C28.8521841,77.1358595 37.2496032,79.6570629 45.9561579,81.2667786 C50.1164177,82.0376729 54.2997474,82.6837708 58.4430893,83.5383893 C59.0552088,83.6647654 59.8980267,84.6252238 59.913604,85.2207713 C59.9287865,85.814739 59.0413669,86.4355617 58.7168513,86.8368058" id="Fill-3" fill="#172F3B"></path>
                    <path d="M53.752715,26.1648018 C54.340506,26.6020515 54.8993643,26.876675 55.2693986,27.3139248 C62.5802397,35.9607303 69.8773759,44.6198096 77.1486249,53.3034362 C77.6237306,53.8710938 78.0455391,54.6305275 78.114064,55.3377982 C78.1490878,55.7106111 77.3694272,56.4961265 76.9506642,56.5008038 C76.336986,56.5068659 75.5436204,56.134053 75.1263801,55.6569138 C72.49198,52.6483287 69.9398096,49.5630331 67.3587066,46.5053532 C62.7096756,41.000609 58.0591218,35.4989332 53.4146591,29.9911206 C53.0644209,29.576884 52.6441351,29.1641816 52.4674932,28.6747687 C52.3060791,28.2221769 52.2619186,27.579343 52.469016,27.1804485 C52.6867728,26.7600751 53.2654271,26.5284094 53.752715,26.1648018" id="Fill-5" fill="#172F3B"></path>
                    <g id="Group-13" transform="translate(143.337610, 0.379200)">
                        <mask id="mask-2" fill="white">
                            <use xlink:href="#path-1"></use>
                        </mask>
                        <g id="Clip-12"></g>
                    </g>
                    <path d="M12.3461623,130.931519 C18.3666733,130.664857 24.3871844,130.392898 30.4076954,130.138598 C31.2213204,130.105044 32.1087685,129.944341 32.8312927,130.244556 C33.3967464,130.477664 34.0344525,131.282947 34.1239826,131.923995 C34.1883815,132.397275 33.4642867,133.066579 33.0056409,133.546923 C32.8187271,133.742946 32.4087731,133.702328 32.0993443,133.712924 C22.3122835,134.016671 12.5267934,134.313354 2.73973253,134.608272 C2.48999049,134.615335 2.23553633,134.583548 1.98736499,134.60474 C0.795200146,134.707166 -0.181778162,134.112034 0.0286962647,132.792853 C0.138645592,132.109422 1.28683071,131.187585 1.99678922,131.152265 C5.43977387,130.980966 8.89375345,131.074563 12.3445916,131.074563 C12.3445916,131.026882 12.3461623,130.9792 12.3461623,130.931519" id="Fill-14" fill="#172F3B"></path>
                    <path d="M236.60457,109.588807 C236.253129,109.226641 235.34524,108.709038 235.161813,108.000248 C234.847366,106.772301 235.869319,106.379047 236.935972,106.169208 C244.211415,104.737639 251.480691,103.293635 258.746885,101.820099 C260.368445,101.490574 261.95147,100.983851 263.569948,100.638783 C264.604232,100.418063 265.809613,100.236202 266.136391,101.649119 C266.473959,103.105557 265.376477,103.578084 264.22967,103.84388 C258.13957,105.253688 252.055636,106.707017 245.947039,108.026672 C243.06769,108.648417 240.134392,109.007475 236.60457,109.588807" id="Fill-16" fill="#172F3B"></path>
                    <path d="M262.421863,175.566117 C256.999266,175.326944 251.679246,174.61823 246.5162,173.043799 C244.470876,172.42019 242.437985,171.704139 240.535646,170.77973 C239.993231,170.51708 239.934172,169.371106 239.654416,168.628643 C240.330492,168.41148 241.213277,167.817217 241.656223,168.031445 C249.21118,171.685064 257.380044,172.324814 265.645269,172.541977 C266.451898,172.563987 267.326912,172.370301 268.044951,172.610941 C268.798737,172.863319 269.864917,173.447311 269.96594,174.01663 C270.166431,175.13766 269.101806,175.551444 267.998325,175.561715 C266.139504,175.576388 264.279129,175.566117 262.421863,175.566117" id="Fill-18" fill="#172F3B"></path>
                    <path d="M46.4664216,180.878412 C46.9764511,181.317388 47.7209419,181.652068 47.7666162,182.069251 C47.8366501,182.688798 47.6113236,183.653923 47.1682831,183.973036 C44.7566808,185.70559 42.3328988,187.461493 39.7401219,188.879603 C34.5408658,191.718936 29.2198117,194.323215 23.9779263,197.078489 C23.008109,197.589071 22.1494324,197.951771 21.5039025,196.801405 C20.9055694,195.733542 21.3501324,195.001915 22.4052084,194.452417 C27.2558174,191.922858 32.1125164,189.407308 36.8991814,186.757887 C39.6533408,185.235481 42.2796121,183.468681 44.9622151,181.812403 C45.4143905,181.532206 45.863521,181.252009 46.4664216,180.878412" id="Fill-20" fill="#172F3B"></path>
                    <path d="M196.425613,55.8849606 C196.780821,55.2427982 196.969958,54.7217119 197.306713,54.3217015 C202.819354,47.7698068 208.345835,41.2286404 213.883079,34.6966696 C214.568892,33.8859205 215.523801,33.3173233 216.401826,34.1786484 C217.278312,35.0353757 216.890813,36.0193094 216.106588,36.9204823 C211.318202,42.4148781 206.552881,47.9322631 201.80755,53.4634416 C200.860329,54.5684512 200.091481,55.8297867 199.102742,56.8949485 C198.799816,57.224459 197.966385,57.353198 197.523528,57.1861438 C197.074521,57.0160245 196.806962,56.3677317 196.425613,55.8849606" id="Fill-22" fill="#172F3B"></path>
                    <path d="M113.831461,3.24193935 C111.583633,11.9500848 114.718441,19.2027259 117.645173,26.4926877 C117.895775,27.1178081 118.310408,27.7553688 118.310408,28.3851543 C118.308889,29.1175715 118.144858,30.2076447 117.672511,30.4999896 C116.825019,31.0224784 115.959302,30.5575256 115.543151,29.4954429 C114.35241,26.4600322 112.813863,23.5225881 112.013454,20.3845457 C111.011045,16.4596601 110.465795,12.3932672 110.013192,8.35486475 C109.826379,6.6816568 110.251644,4.88249175 110.68754,3.22172401 C110.845496,2.62148398 111.869168,1.86729639 112.464539,1.89684188 C113.012826,1.92327732 113.517069,2.90605374 113.831461,3.24193935" id="Fill-26" fill="#172F3B"></path>
                    <path d="M182.016012,10.029717 C181.625644,10.579456 181.404536,11.093975 181.018743,11.403299 C177.124207,14.5348209 175.686248,19.0705511 174.085127,23.5144028 C173.097006,26.2539103 172.118035,28.9949491 171.152788,31.7421131 C170.780718,32.8002459 169.905439,33.3055771 169.07743,32.7818702 C168.577271,32.4664211 168.212825,31.2000305 168.427833,30.5859766 C170.231762,25.4346612 171.951824,20.2282188 174.197968,15.2667855 C175.251658,12.9346056 177.354463,11.0618176 179.098922,9.08490081 C179.428296,8.71279331 180.343222,8.65766627 180.919626,8.7801708 C181.314569,8.86439266 181.590571,9.51366665 182.016012,10.029717" id="Fill-30" fill="#172F3B"></path>
                    <path d="M240.081043,134.616009 C246.344458,135.407879 251.959619,135.759995 257.376955,137.010398 C259.096503,137.407898 260.686704,137.010398 262.299731,137.431373 C263.425807,137.725585 264.022323,138.204463 263.909715,139.464256 C263.780368,140.90089 262.832335,140.724049 261.904083,140.606677 C254.917849,139.716215 247.931616,138.822622 240.945382,137.92903 C240.765819,137.907121 240.516256,137.93842 240.418866,137.830437 C239.854306,137.207583 238.994532,136.598814 238.898664,135.889887 C238.836273,135.425093 239.895393,134.800674 240.081043,134.616009" id="Fill-34" fill="#172F3B"></path>
                    <path d="M199.553587,208.180814 C197.164652,207.197083 197.960349,205.781545 198.615737,204.388814 C201.514212,206.944689 201.641598,207.013109 199.553587,208.180814" id="Fill-44" fill="#000000"></path>
                    <path d="M203.251214,203.519888 C202.482101,204.539649 202.077035,205.070952 201.446363,205.905614 C200.954131,205.118941 200.46019,204.524224 200.224328,203.840384 C200.147417,203.619293 200.750743,202.866898 201.03446,202.872014 C201.67026,202.884037 202.300932,203.21653 203.251214,203.519888" id="Fill-46" fill="#000000"></path>
                    <path d="M148.756303,264.473172 C144.990635,264.928021 141.375037,265.364368 137.595445,265.819218 C137.595445,263.477128 137.411339,261.619184 137.626387,259.812121 C138.763513,250.267991 138.649027,240.711526 137.443828,231.21982 C136.725968,225.570435 135.404736,219.965764 133.947357,214.447438 C132.463678,208.825807 130.758762,203.222678 128.616013,197.823075 C127.123051,194.062472 124.79929,190.613325 122.698314,187.111755 C121.920117,185.815049 121.661749,185.488174 123.447115,184.78971 C127.929096,183.038154 132.223876,180.810162 136.616124,178.82116 C137.06788,178.616092 137.852265,178.494285 138.169423,178.739441 C142.148592,181.803122 146.573329,183.989483 151.350808,185.480464 C152.359524,185.796546 152.608609,186.080249 152.33477,187.287527 C150.343639,196.029889 148.074027,204.744496 146.746606,213.593246 C145.30934,223.166671 145.221154,232.886573 146.325792,242.555594 C147.071499,249.099259 147.872903,255.636757 148.638722,262.17888 C148.70989,262.784832 148.705248,263.403119 148.756303,264.473172" id="Fill-52" fill="#FFFFFF"></path>
                    <path d="M84.1906053,182.395212 C82.5718875,180.044329 80.8729283,177.768784 79.3853744,175.365624 C77.69876,172.639583 75.3918171,170.247186 74.834756,166.892296 C73.1342536,156.681558 72.1728988,146.460057 73.2808486,136.089416 C74.0878928,128.526305 75.9133868,121.293764 79.0057705,114.350277 C81.6120758,108.501513 85.2769517,103.321574 89.2041555,98.3292131 C93.5896617,92.7556663 98.3948926,87.5480516 103.977849,83.1276524 C105.041048,82.2881609 106.405154,81.6854491 107.729138,81.3348922 C118.330274,78.518137 129.124298,77.8385487 139.987761,79.1085486 C150.372862,80.3231974 160.264169,83.3644321 169.647795,87.9893228 C169.962588,88.1446133 170.19714,88.4582695 170.640011,88.8488021 C167.376343,88.253778 164.359572,87.4096739 161.299593,87.2051824 C154.792317,86.7731364 148.261894,86.4164294 141.746902,86.5040686 C134.215003,86.6070832 126.800381,87.9800976 119.589448,90.1403275 C104.345108,94.706792 91.5851675,102.700411 83.7785961,117.067093 C80.3529017,123.374042 78.5520974,130.206826 77.8252947,137.371716 C76.8176467,147.270336 77.7357945,156.990601 80.0550823,166.606315 C81.3142565,171.827767 82.7709482,177.000019 84.1906053,182.395212" id="Fill-54" fill="#FFFFFF"></path>
                    <path d="M180.448298,224.975496 C180.678579,224.606421 180.789856,224.390226 180.935135,224.201827 C181.922719,222.918556 180.867132,222.146431 180.14074,221.383571 C179.947551,221.17973 179.312344,221.39747 178.878054,221.420633 C179.065062,222.248351 179.185612,223.100777 179.471532,223.892977 C179.612174,224.285217 180.063464,224.564726 180.448298,224.975496 M188.208329,217.851872 C189.202095,217.275867 189.860484,216.895982 190.517328,216.514552 C190.457053,216.344684 190.396778,216.177905 190.336503,216.008038 C189.243824,216.156286 188.15269,216.304534 186.645813,216.509919 C187.182107,217.683549 187.661216,218.729006 188.140326,219.772919 C187.976501,219.890282 187.814222,220.006101 187.650398,220.121919 C187.118741,219.640113 186.587083,219.155219 185.951877,218.576125 C185.222394,219.545914 184.097259,220.401428 185.460403,221.794342 C182.554835,222.702361 182.273551,225.341483 181.38488,227.33511 C177.746737,235.504191 174.351241,243.78137 170.861468,252.016854 C170.728554,252.327248 170.557001,252.6222 170.403995,252.926417 C170.229352,252.89862 170.054709,252.872368 169.881611,252.84766 C169.940341,252.080168 169.821336,251.244729 170.085619,250.555994 C173.005097,242.973727 174.753075,234.925097 179.085153,227.903394 C179.724997,226.864114 179.70645,225.934475 178.814688,224.943067 C178.007929,224.042769 177.428361,222.940175 176.745244,221.92097 C177.757556,221.156567 178.595225,220.057061 179.550353,219.942786 C180.374113,219.845499 181.332332,220.867792 182.324553,221.44843 C182.489923,220.761239 183.536237,219.939698 181.842352,219.349794 C181.503884,219.232431 181.421972,218.372284 181.194781,217.785469 C180.902679,217.87658 180.604395,217.972324 180.242744,218.085054 C181.503884,212.414569 183.812884,207.422009 187.358295,202.85103 C193.461534,194.978445 198.572552,186.45573 202.230787,177.154714 C206.496408,166.314081 208.510214,155.06731 208.230476,143.381972 C207.969284,132.53825 205.838019,122.145449 201.516759,112.198936 C201.40239,111.93487 201.396208,111.624475 201.697584,111.105607 C202.995816,112.723981 204.40069,114.269775 205.576827,115.973083 C213.097303,126.861588 216.288791,138.939165 215.166747,152.103894 C214.520722,159.670718 211.90262,166.686245 208.589035,173.453147 C202.723806,185.428804 194.841679,196.141265 187.434026,207.150221 C185.862237,209.485127 184.336813,211.852462 182.874756,214.256859 C182.636747,214.649098 182.8423,215.311581 183.180768,215.872144 C182.873211,216.279826 182.567199,216.687508 182.083453,217.333004 L184.291994,217.333004 C187.695218,212.355887 191.030439,207.482235 194.364115,202.607038 C194.48312,202.668808 194.602124,202.732123 194.721129,202.793893 C194.640762,203.121274 194.628398,203.491894 194.461482,203.769859 C192.959242,206.291618 191.393635,208.782493 189.92385,211.325873 C189.512743,212.034683 189.358192,212.891742 188.943994,214.088535 C188.900719,214.11942 188.432428,214.434447 187.79104,214.863749 C189.070726,215.699188 191.72283,213.378181 191.348815,216.51764 C191.203537,217.736053 190.081493,218.534431 188.208329,217.851872" id="Fill-56" fill="#FFFFFF"></path>
                    <path d="M146.37121,61.8074454 C141.449014,62.6713306 136.772157,63.3832216 132.149305,64.3448173 C129.699008,64.8550834 127.355179,65.8554532 124.935742,66.5425288 C120.228024,67.8810081 115.484818,69.1000633 110.784815,70.4649088 C99.2678032,73.8072295 88.9389073,79.2960799 80.1854227,87.6433512 C74.0519657,93.4935755 69.7315432,100.52253 66.2906352,108.229255 C64.1088218,113.11323 61.8915193,117.933617 60.5259572,123.151049 C58.9320298,129.240121 58.1651548,135.406742 57.9414187,141.667971 C57.9090155,142.586139 57.9367897,143.508961 57.5201775,144.47521 C57.2702102,143.158444 56.9724096,141.847882 56.7779906,140.523361 C54.3184358,123.800902 58.8502504,108.975267 69.0418186,95.7905486 C77.5160187,84.8299082 87.8896618,75.9894314 99.9019795,69.1838152 C111.587179,62.5674162 124.151894,59.4422301 137.620811,60.4922306 C139.46162,60.6364699 141.300885,60.8567064 143.12935,61.1126149 C144.147735,61.2537523 145.144518,61.5391291 146.37121,61.8074454" id="Fill-58" fill="#FFFFFF"></path>
                    <path d="M135.753609,67.0708428 C144.057986,65.4087448 152.301872,64.8872113 160.395305,66.9392988 C164.00152,67.8523694 167.37973,69.9323132 170.647814,71.8451188 C180.894119,77.8388856 189.822022,85.4653465 197.783615,94.2370145 C203.789321,100.852907 209.267666,107.847957 213.004171,116.02226 C217.402978,125.642 220.82927,135.599113 222.132161,146.131924 C222.431515,148.535311 221.831255,151.158455 221.161197,153.544819 C220.075455,157.406024 218.59109,161.155804 217.275791,164.952011 C217.080357,164.893203 216.883373,164.834395 216.687939,164.77404 C217.131542,162.974207 217.572043,161.174375 218.017198,159.372995 C220.055291,151.113575 219.864511,142.869631 218.040464,134.590092 C215.155491,121.489851 208.383562,110.875018 198.019376,102.389652 C196.514848,101.15778 195.607477,99.1675957 194.523286,97.4668083 C187.109218,85.8383126 176.790013,77.7290076 164.054256,72.6746202 C155.835188,69.4123273 147.225252,67.7858235 138.371799,67.4809508 C137.692435,67.4577371 137.01307,67.4051195 136.333706,67.3416689 C136.177049,67.3261931 136.0328,67.2054821 135.753609,67.0708428" id="Fill-60" fill="#FFFFFF"></path>
                    <path d="M113.001608,76.1084301 C115.468525,74.7665983 117.831185,73.1416278 120.434558,72.16603 C122.895343,71.2442901 125.586107,70.7549524 128.214011,70.5102835 C140.409078,69.3761895 152.297505,70.9042157 163.663112,75.5267645 C174.163994,79.7984673 182.929294,86.4506904 189.572647,95.763495 C189.629375,95.8450513 189.580313,96.0020086 189.580313,96.6960065 C185.807109,94.2985594 182.219423,92.1657856 178.783523,89.8083473 C169.512267,83.4438794 159.327224,79.3152848 148.363316,77.0809503 C137.276752,74.8189175 126.13346,74.5065415 114.954903,76.4146508 C114.594602,76.4777415 114.225101,76.4992847 113.858666,76.5162115 C113.630219,76.5254443 113.398706,76.4931295 113.168726,76.4792803 C113.113531,76.3561765 113.058336,76.2315339 113.001608,76.1084301" id="Fill-62" fill="#FFFFFF"></path>
                    <path d="M68.5750132,157.368011 C67.7673373,151.580571 66.6629016,145.814819 66.2238808,139.997947 C65.6395395,132.215266 66.1611635,124.424839 67.2288867,116.676239 C68.1099877,110.28465 71.4324728,105.229935 75.4769713,100.536161 C80.8461807,94.3072276 87.3167664,89.5545873 94.8000063,86.0784058 C86.0471243,95.7200072 77.8326928,105.733393 73.3675298,118.270263 C68.851887,130.948102 68.1191658,144.042648 69.4943565,157.363363 C69.1884186,157.364912 68.8824808,157.366461 68.5750132,157.368011" id="Fill-64" fill="#FFFFFF"></path>
                    <path d="M175.948812,71.6688048 C192.671005,78.6727394 205.80276,89.9148415 215.282805,105.321028 C220.898227,114.44559 223.107021,124.588793 222.963036,135.275273 C222.956909,135.688903 222.832837,136.099447 222.701106,136.891209 C221.901528,134.111552 221.265849,131.683788 220.49997,129.300784 C219.712647,126.852957 218.808911,124.442171 217.938872,122.022125 C214.729841,113.090487 210.054918,105.060194 204.010604,97.7306028 C198.255792,90.7513625 192.105787,84.2274244 185.079617,78.5616148 C182.529241,76.5027235 179.853261,74.6028021 177.233956,72.6318844 C176.806596,72.3093145 176.377704,71.9898313 175.948812,71.6688048" id="Fill-66" fill="#FFFFFF"></path>
                    <path d="M147.12961,273.414556 C144.839655,275.334303 142.42248,276.885645 139.165965,276.31827 C132.013733,275.071601 125.0725,273.268438 118.913203,269.170906 C113.931464,265.853708 110.445333,261.254088 108.031261,255.917659 C106.155545,251.76883 104.799569,247.380616 103.314822,243.062352 C103.007633,242.163879 103.079,241.108407 103.105375,240.127549 C103.311719,232.448562 102.773362,224.875278 100.145189,217.570914 C100.069167,217.357955 100.13588,217.095252 100.13588,216.523214 C103.815943,221.045112 107.199678,225.361821 107.855946,231.16614 C108.768204,239.243066 109.664948,247.319992 110.668743,255.382928 C111.495672,262.017324 115.644276,266.189469 121.314863,269.040332 C128.243685,272.523856 135.690694,273.413002 143.333187,273.126983 C144.552634,273.081904 145.768979,272.983974 146.985324,272.910914 C147.033419,273.078795 147.081515,273.246676 147.12961,273.414556" id="Fill-68" fill="#FFFFFF"></path>
                    <path d="M191.248385,102.004807 C194.710293,103.23328 195.68214,106.394199 197.063763,109.128093 C200.079783,115.097171 202.30451,121.38033 203.684563,127.904851 C205.28913,135.493843 205.87632,143.160194 205.323671,150.93949 C204.767881,158.759014 203.130344,166.318608 200.46758,173.660049 C198.068579,180.277402 194.784085,186.490937 190.93281,192.40741 C190.135237,193.628147 189.314113,194.833412 188.50398,196.046413 C188.364247,195.982978 188.222945,195.92109 188.083213,195.857655 C188.51811,194.661674 188.907476,193.45022 189.392614,192.275899 C191.797895,186.473918 194.272256,180.701333 196.636716,174.885427 C201.417445,163.131387 204.372235,151.021492 203.299907,138.252491 C202.467793,128.382934 200.670113,118.702135 196.013415,109.781009 C194.628652,107.127569 192.885923,104.653605 191.248385,102.004807" id="Fill-74" fill="#FFFFFF"></path>
                    <path d="M156.23041,182.897775 C158.467732,177.305176 160.424205,171.849394 166.38356,169.486606 C168.418923,168.679538 170.918159,168.68415 173.17757,168.799445 C175.255534,168.905517 176.402596,171.131488 175.779364,173.286745 C174.600747,177.354369 171.825395,180.159892 167.964516,181.850892 C164.368708,183.426597 160.520451,183.288242 156.23041,182.897775" id="Fill-78" fill="#FFFFFF"></path>
                    <path d="M63.1200586,127.104634 C63.6105696,134.231246 63.8007999,141.393398 64.6717714,148.475198 C65.5914796,155.947942 67.8097843,163.11782 71.6568373,169.745322 C72.5891227,171.352364 72.9428566,173.299356 73.4553777,175.118095 C73.9018686,176.705048 74.1958608,178.330633 74.323205,180.120012 C73.0120312,178.132843 71.5625082,176.219846 70.4164103,174.143053 C67.9261235,169.627884 65.3572291,165.126622 63.2882787,160.422935 C62.25852,158.078817 62.0871556,155.314397 61.8261785,152.712225 C61.0243816,144.738826 61.4708725,136.800968 62.8936689,128.914102 C62.9596992,128.550972 63.0320182,128.184752 63.1499295,127.837075 C63.2458307,127.555842 63.4124787,127.297788 63.5476836,127.032008 C63.4046179,127.055187 63.2631243,127.079911 63.1200586,127.104634" id="Fill-84" fill="#FFFFFF"></path>
                    <path d="M85.4583215,202.113614 C86.9389484,204.953017 88.5399641,207.737138 89.8767497,210.641038 C94.3217572,220.28334 97.2845744,230.42319 100.22863,240.575324 C100.811812,242.585481 100.916566,244.482 100.849336,246.513655 C100.722693,250.289801 100.813376,254.075161 100.813376,258.235217 C100.147328,256.782499 99.3421297,255.607732 99.0638282,254.322399 C97.8099076,248.525348 96.7545506,242.688369 95.5318999,236.885175 C94.6110032,232.516271 93.8417652,228.087477 92.4846542,223.846031 C90.2363528,216.822001 87.5674721,209.9285 85.08152,202.97818 C85.0049089,202.766262 84.9861469,202.531308 84.9408057,202.30864 C85.1127898,202.244143 85.2863374,202.178111 85.4583215,202.113614" id="Fill-86" fill="#FFFFFF"></path>
                    <path d="M114.030728,240.033616 C114.601229,242.055909 115.20385,244.067388 115.734584,246.098951 C116.915353,250.614736 118.007412,255.173779 120.474485,259.196737 C124.004557,264.951544 129.374609,267.653599 135.888723,267.838989 C139.580921,267.942498 143.294532,267.356976 146.995907,267.060352 C147.71018,267.004735 148.415277,266.859513 149.155552,266.752914 C149.571574,268.058367 149.623577,268.903435 148.055846,269.118178 C139.265845,270.324757 130.778684,269.424072 122.843671,265.220359 C117.803989,262.549202 114.983603,258.32077 114.694528,252.436191 C114.491106,248.331352 114.078142,244.235784 113.760008,240.134036 C113.850248,240.101592 113.940488,240.066059 114.030728,240.033616" id="Fill-90" fill="#FFFFFF"></path>
                    <path d="M130.444809,277.069958 C126.154996,277.521879 122.047203,276.761479 118.425312,274.617552 C114.707782,272.418099 111.267911,269.742047 107.758625,267.201725 C106.052572,265.964725 104.804654,264.409993 104.287902,262.21671 C103.515088,258.926785 102.901156,255.653826 103.235888,252.168017 C108.048623,265.148799 116.831864,273.687489 130.444809,277.069958" id="Fill-92" fill="#FFFFFF"></path>
                    <path d="M178.98156,240.792016 C179.00787,250.769781 178.463107,260.060692 171.946073,267.770922 C171.136667,268.730677 170.232856,269.610707 169.123211,270.369618 C169.827379,268.684682 170.564047,267.013545 171.224881,265.311744 C171.534406,264.519103 171.97393,263.639073 171.88262,262.852565 C171.455477,259.079474 173.088217,255.818456 174.344886,252.473114 C175.754769,248.718421 177.299295,245.012788 178.98156,240.792016" id="Fill-96" fill="#FFFFFF"></path>
                    <path d="M109.209607,286.871662 C112.274944,285.915833 115.326453,284.90763 118.416374,284.050003 C118.967981,283.89779 119.670166,284.382251 120.306281,284.552468 C124.059975,285.549214 127.815205,286.542687 131.203209,287.439595 C125.350643,290.966669 113.85294,291.159799 109.209607,286.871662" id="Fill-98" fill="#FFFFFF"></path>
                    <path d="M115.038042,183.120769 C112.120483,183.120769 109.196762,183.214966 106.285364,183.084306 C104.600142,183.00986 103.233788,181.873418 103.152145,180.287262 C103.064341,178.573484 103.585004,176.789818 104.121071,175.123139 C104.210415,174.843586 105.97882,174.63848 106.514887,175.021345 C108.916405,176.727527 111.180825,178.628179 113.432922,180.527313 C114.143057,181.127439 114.668341,181.940268 115.276808,182.654342 C115.198246,182.809311 115.118144,182.964281 115.038042,183.120769" id="Fill-100" fill="#FFFFFF"></path>
                    <path d="M137.320382,172.536012 C132.423561,169.022165 130.484144,162.72482 136.312213,159.300373 C137.390757,158.668517 138.276179,158.695792 138.621509,159.81101 C139.099408,161.342919 139.420189,162.947561 139.534754,164.538565 C139.608402,165.591658 139.294168,166.696269 138.989753,167.73724 C138.533131,169.288848 137.930848,170.802575 137.320382,172.536012" id="Fill-102" fill="#FFFFFF"></path>
                    <path d="M77.4097769,179.361612 C82.7220371,186.952401 87.988184,194.329708 91.7664061,202.872014 C86.9644672,200.631984 76.5244002,184.559884 77.4097769,179.361612" id="Fill-104" fill="#FFFFFF"></path>
                    <path d="M125.894408,281.915033 C134.512079,280.718438 142.970418,278.806322 151.68001,279.701485 C146.524728,283.041599 130.715708,284.559417 125.894408,281.915033" id="Fill-106" fill="#FFFFFF"></path>
                    <path d="M176.855107,219.556815 C174.937433,222.801735 178.318091,224.123331 178.982412,226.588525 C177.55043,226.919317 176.872822,229.95316 174.857714,227.409206 C173.567454,231.545691 172.362818,235.409666 171.158182,239.275216 C170.983982,239.22796 170.812735,239.182279 170.640011,239.136598 C170.750732,235.627044 171.850553,232.322266 172.758459,228.974958 C173.654554,225.66388 174.336591,222.251988 176.855107,219.556815" id="Fill-108" fill="#FFFFFF"></path>
                    <path d="M86.4576058,86.6507606 C93.3576408,81.1581747 100.82697,77.3496363 108.908216,74.702405 C109.00868,74.8639516 109.109144,75.0254983 109.209607,75.1870449 C106.627993,76.8299438 104.151408,78.6801101 101.440408,80.0700209 C96.9971695,82.3484382 92.4001905,84.3266226 87.8686652,86.4343491 C87.6083727,86.5562711 87.3663463,86.7208658 87.0999651,86.8290716 C87.0177675,86.8641241 86.8838158,86.7757307 86.4576058,86.6507606" id="Fill-110" fill="#FFFFFF"></path>
                    <path d="M100.108807,229.416015 C97.4621117,222.006997 94.9485744,214.964366 92.5248062,208.180814 C94.1077363,208.876799 95.452778,210.54011 96.2427469,213.350111 C97.4875463,217.783565 98.6650189,222.236947 99.8275299,226.694929 C100.025022,227.458366 99.9995875,228.284657 100.108807,229.416015" id="Fill-112" fill="#FFFFFF"></path>
                    <path d="M166.848011,267.336018 C164.871105,272.870125 160.135865,276.301031 153.95521,276.436818 C158.306512,273.364997 162.722556,270.247912 166.848011,267.336018" id="Fill-114" fill="#FFFFFF"></path>
                    <path d="M162.297611,266.577618 C164.138487,262.666923 165.874873,258.980141 167.654285,255.201617 C169.747168,257.775056 166.995073,263.537694 162.297611,266.577618" id="Fill-116" fill="#FFFFFF"></path>
                    <path d="M76.5984051,189.979213 C72.106665,185.585723 68.793327,180.274806 66.7392045,174.052812 C70.0260945,179.362141 73.3129845,184.669883 76.5984051,189.979213" id="Fill-118" fill="#FFFFFF"></path>
                    <path d="M160.022411,262.785618 C158.519857,266.305617 155.659226,266.989067 152.931514,268.094418 C152.470634,267.140079 151.986639,266.198195 153.220466,265.636179 C155.351492,264.661601 157.531639,263.819355 160.022411,262.785618" id="Fill-120" fill="#FFFFFF"></path>
                    <path d="M121.344008,279.973001 C118.75218,280.951257 115.774366,279.146957 112.243208,274.161618 C115.39592,276.174567 118.437059,278.117395 121.344008,279.973001" id="Fill-122" fill="#FFFFFF"></path>
                    <path d="M102.384007,211.972814 C99.010531,210.448126 96.2126879,206.534139 96.3197823,203.630414 C98.5168924,206.6519 100.451286,209.312357 102.384007,211.972814" id="Fill-124" fill="#FFFFFF"></path>
                    <path d="M157.747211,270.707185 C155.783372,271.829193 153.819534,272.9512 151.69964,274.161618 C151.492595,271.997976 152.968177,271.999583 154.015764,271.586466 C155.149876,271.139592 156.311801,270.771483 157.461365,270.369618 C157.557162,270.48214 157.651414,270.594663 157.747211,270.707185" id="Fill-126" fill="#FFFFFF"></path>
                    <g id="Group-132" transform="translate(52.329604, 57.259204)" fill="#172F3B">
                        <path d="M83.3991864,284.671056 C77.6413864,284.581691 71.9453322,284.1287 66.42371,282.415349 C64.0032729,281.661906 61.6522999,280.62804 60.190467,278.412393 C59.640929,277.578828 59.492739,276.478709 59.0419943,275.147472 C70.8910219,277.709795 82.1411148,275.742214 93.8913491,274.749949 C93.1071769,275.264571 92.701198,275.565024 92.2643461,275.811549 C89.390077,277.42475 87.1764885,279.641938 86.0341904,282.777433 C85.5664656,284.057824 84.9767928,284.695709 83.3991864,284.671056 Z M63.6513216,272.729982 C70.3646386,267.415818 114.106939,262.784222 121.666174,265.422044 C113.190013,270.518957 73.1138723,274.802336 63.6513216,272.729982 Z M104.934593,281.501664 C99.8606287,283.401451 94.555117,283.900664 88.8806738,284.335165 C89.8500836,281.558673 91.4338645,279.834536 93.6181238,278.712845 C97.0728038,276.940944 100.67413,275.887048 104.630495,276.79611 C106.117026,277.136624 106.882675,278.130429 107.071,279.453962 C107.279392,280.906922 105.959574,281.118009 104.934593,281.501664 Z M57.3841184,241.464397 C59.0203832,240.205576 60.8002072,239.099294 62.6325152,238.145548 C64.1437447,237.356667 65.8047079,236.837423 67.4286237,236.285822 C68.1016534,236.059327 68.8611273,235.936064 69.5696608,235.979206 C76.7676827,236.415248 83.9626173,236.897514 91.1590955,237.36283 C91.9293749,237.415217 92.701198,237.456818 93.4714774,237.501501 C83.4192538,239.809595 73.4102524,241.960529 63.7809879,245.609105 C61.4099474,246.507382 59.1515932,245.505873 57.1618333,244.256297 C55.8173175,243.411948 56.5212202,242.125393 57.3841184,241.464397 Z M65.9513543,226.464866 C66.5070669,226.320033 67.2109696,226.777646 67.8515827,226.937887 C71.6227102,227.876224 75.3938377,228.81148 78.799121,229.654289 C72.9178293,232.976219 61.368269,233.158031 56.7033704,229.121178 C59.7814008,228.22136 62.8486256,227.272237 65.9513543,226.464866 Z M68.7731394,222.389493 C66.1196118,223.270822 63.0724543,221.643754 59.4556915,217.152369 C62.6849991,218.967412 65.7969897,220.717743 68.7731394,222.389493 Z M52.351832,205.226702 C51.5784653,201.940211 50.9640941,198.670667 51.2990654,195.188496 C56.1152412,208.154192 64.9047623,216.683971 78.5274393,220.06445 C74.2330158,220.5159 70.1222861,219.756294 66.4993487,217.614604 C62.7791616,215.417447 59.3368307,212.744187 55.8250358,210.204975 C54.1162195,208.970807 52.8689535,207.417697 52.351832,205.226702 Z M48.4062725,159.354487 C52.0678011,163.836627 55.4344933,168.115384 56.0874556,173.86867 C56.9951195,181.874583 57.887347,189.880496 58.886086,197.874082 C59.7088494,204.448607 63.8365591,208.58407 69.4785857,211.409868 C76.3725093,214.862764 83.7820107,215.744093 91.3860115,215.462129 C92.5993173,215.415906 93.8095359,215.318836 95.0197544,215.24642 C95.0691511,215.412824 95.1154605,215.579229 95.1633135,215.745633 C92.8848918,217.648501 90.4798912,219.187744 87.239778,218.623818 C80.1235694,217.38965 73.2172966,215.6008 67.0905652,211.539294 C62.1323738,208.251261 58.663801,203.692082 56.2618876,198.402571 C54.3956195,194.290219 53.0464728,189.940586 51.5692034,185.660289 C51.2635615,184.771257 51.3345692,183.723524 51.3608112,182.751289 C51.5661161,175.141358 51.0304709,167.634659 48.4155344,160.392975 C48.3398957,160.183429 48.4062725,159.921495 48.4062725,159.354487 Z M47.9478096,200.763052 C47.2886727,199.30547 46.4952386,198.128311 46.2204696,196.838675 C44.9824654,191.020676 43.9389606,185.164156 42.733373,179.341534 C41.8241655,174.958004 41.0646916,170.515925 39.7248067,166.26028 C37.5050436,159.212735 34.8700397,152.294615 32.4156424,145.322569 C32.3400037,145.1084 32.3214799,144.874201 32.2767142,144.650787 C32.4465153,144.586074 32.61786,144.51982 32.7876611,144.455107 C34.2494939,147.302476 35.8301876,150.097458 37.150005,153.009539 C41.5385909,162.685661 44.4638003,172.857916 47.370486,183.044038 C47.946266,185.062465 48.0496903,186.963792 47.9833135,189.00379 C47.8582781,192.792577 47.9478096,196.589068 47.9478096,200.763052 Z M39.5750731,145.83565 C34.7527226,143.572238 24.2698218,127.332377 25.1574183,122.079845 C30.4922593,129.749867 35.7823345,137.20572 39.5750731,145.83565 Z M24.4365356,132.655785 C19.7176094,128.392436 16.2366874,123.235433 14.0786701,117.19556 C17.5318065,122.349482 20.9833992,127.503404 24.4365356,132.655785 Z M8.96302684,94.9728354 C8.17576732,87.022391 8.61416281,79.1073845 10.0111626,71.243224 C10.0759957,70.8811398 10.1470034,70.515974 10.2627769,70.1692977 C10.2658642,70.1585122 10.2720387,70.1492675 10.275126,70.1400228 C10.2612332,69.9058236 10.2488841,69.6716245 10.2334476,69.4389661 C10.3739194,69.4143136 10.5128475,69.3896611 10.6533193,69.3665493 C10.5251967,69.6223194 10.3708321,69.8719264 10.275126,70.1400228 C10.7227834,77.0150001 10.929632,83.9192524 11.7570263,90.7480062 C12.6600593,98.1992367 14.838144,105.348474 18.615446,111.956895 C19.5308282,113.55931 19.8781486,115.500698 20.3813772,117.314201 C20.8197727,118.896586 21.1084345,120.51749 21.2334699,122.301718 C19.946069,120.32027 18.5228273,118.412779 17.3975092,116.341966 C14.9523738,111.839796 12.430056,107.353033 10.3986177,102.661347 C9.38752952,100.323978 9.21927209,97.5675153 8.96302684,94.9728354 Z M5.10854247,86.943811 C4.8584718,85.6356855 4.5605481,84.3337232 4.36604869,83.0178938 C1.90547677,66.4051628 6.43916543,51.6768104 16.6349481,38.5786072 C25.1126526,27.6898881 35.4905854,18.9074204 47.5078705,12.146461 C59.1979026,5.57347727 71.7678129,2.4687979 85.2422999,3.51190854 C87.0854134,3.65520143 88.9238959,3.87399273 90.7546602,4.12822206 C91.771923,4.26843339 92.7691184,4.55193761 93.9963171,4.8184932 C89.0720859,5.67670979 84.3948382,6.38392955 79.7685308,7.33921552 C77.3187644,7.84613339 74.9724223,8.83993895 72.5535288,9.52250617 C67.8423208,10.8522026 63.0986963,12.0632587 58.3952066,13.4191484 C46.8734319,16.7395375 36.5402648,22.1923714 27.784704,30.4848699 C21.6487107,36.2967064 17.3249579,43.2795386 13.882627,50.9356934 C11.6999114,55.7876216 9.48169193,60.5779185 8.11556512,65.7595744 C6.52097867,71.8086916 5.75378655,77.9348481 5.53150151,84.1549923 C5.49908494,85.0686771 5.52687057,85.9839027 5.10854247,86.943811 Z M118.016994,14.4530144 C128.212777,20.4204701 137.099548,28.0119119 145.023083,36.7466153 C151.000081,43.3334661 156.450695,50.2978089 160.169339,58.4346882 C164.547119,68.0122003 167.957034,77.9271441 169.25524,88.4137187 C169.55162,90.8050152 168.955773,93.4181846 168.288918,95.7940732 C167.208365,99.6383288 165.731096,103.371648 164.42054,107.151191 C164.226041,107.092641 164.029998,107.03255 163.835499,106.974001 C164.278525,105.180528 164.71692,103.388597 165.159947,101.596665 C167.186754,93.3735018 166.996886,85.1657465 165.181558,76.9225531 C162.31192,63.8798182 155.572361,53.3100412 145.256174,44.8634644 C143.760381,43.6370005 142.857348,41.6555525 141.776795,39.9606903 C134.399711,28.3847816 124.129833,20.3095336 111.454955,15.2773337 C103.275174,12.0293614 94.7048506,10.4115384 85.8952622,10.1064632 C85.2191452,10.0833515 84.5414846,10.0325056 83.8669112,9.96779269 C83.711003,9.95392564 83.5659002,9.8337445 83.2895876,9.69969631 C91.5527252,8.0448945 99.758748,7.52565036 107.81195,9.56872969 C111.402471,10.4777921 114.762988,12.5470648 118.016994,14.4530144 Z M171.195603,77.8054222 C171.189429,78.2183523 171.064393,78.6282008 170.93164,79.4186229 C170.125856,76.6421304 169.485243,74.2200183 168.71342,71.8410481 C167.919986,69.397365 167.009235,66.9906607 166.132444,64.5731709 C162.898505,55.6581958 158.185754,47.6414976 152.09607,40.3243153 C146.295048,33.3568909 140.097308,26.8439977 133.018147,21.1877804 C130.446433,19.1323748 127.749683,17.2356699 125.110048,15.268089 C124.679371,14.9460652 124.248694,14.6271229 123.816473,14.3066399 C140.668458,21.297176 153.902136,32.5217861 163.454218,47.9018901 C169.113225,57.0110039 171.340706,67.1354943 171.195603,77.8054222 Z M156.680699,115.710245 C150.822562,127.659023 142.948423,138.348981 135.549727,149.333229 C133.981383,151.661353 132.45626,154.024916 130.997515,156.422375 C130.759793,156.813734 128.981513,160.174184 129.319571,160.733488 C129.013929,161.140255 130.451064,160.861373 129.966359,161.505421 L130.446433,161.926055 C133.845542,156.96165 139.141792,149.662957 142.47298,144.798702 C142.591841,144.860334 142.710701,144.923506 142.829562,144.985137 C142.747749,145.311783 142.7354,145.681571 142.57023,145.958912 C141.068262,148.476553 139.506092,150.960297 138.036541,153.499508 C137.627475,154.206728 137.471566,155.060322 137.059413,156.255971 C137.014647,156.285246 136.548466,156.599565 135.907853,157.029444 C137.185992,157.863008 139.834889,155.54721 139.459783,158.679624 C139.316224,159.893761 138.195536,160.691887 136.324637,160.00932 C137.317202,159.434608 137.973251,159.055575 138.629301,158.675001 C138.569099,158.507056 138.51044,158.33911 138.450238,158.171165 C137.35888,158.31908 136.269066,158.465455 134.762467,158.670379 C135.299656,159.842915 135.778187,160.886026 136.255173,161.926055 C136.09309,162.044695 135.929464,162.160254 135.767381,162.275813 C135.236367,161.793548 134.703809,161.311282 134.06937,160.733488 C133.340769,161.701101 132.218539,162.554695 133.580035,163.944482 C130.67798,164.850463 130.395493,167.483662 129.50944,169.472814 C125.875697,177.62356 122.482763,185.880621 118.99721,194.097621 C118.866,194.407319 118.693111,194.703149 118.541834,195.005143 C118.365858,194.978949 118.19297,194.952756 118.020082,194.926563 C118.07874,194.160793 117.959879,193.327229 118.223843,192.64158 C121.138247,185.076332 122.325968,177.857747 126.652808,170.850262 C127.291878,169.813315 131.094764,164.588529 130.205624,163.597805 C129.399841,162.699529 129.456956,163.018471 130.446433,163.597805 C130.613147,162.912157 131.658195,162.094 129.966359,161.505421 C129.626757,161.388321 129.544944,160.528564 129.319571,159.943066 C129.027822,160.035513 128.728355,160.129501 128.368685,160.243519 C129.626757,154.585761 131.932964,149.602866 135.474088,145.042146 C141.571491,137.188771 146.674785,128.683644 150.328595,119.405044 C154.589058,108.587201 156.601973,97.3672135 156.321029,85.7081024 C156.060153,74.8887185 153.931465,64.5192434 149.61543,54.5935141 C149.501201,54.3300401 149.495026,54.0203426 149.797581,53.50418 C151.0927,55.1189214 152.497418,56.6597052 153.670589,58.3591898 C161.183514,69.2232564 164.371144,81.2737266 163.248913,94.4089085 C162.605213,101.96029 159.988732,108.95853 156.680699,115.710245 Z M116.606102,213.420591 C117.308461,211.72881 118.041693,210.047815 118.702373,208.337545 C119.009559,207.54096 119.447954,206.658091 119.358423,205.866128 C118.932376,202.074259 120.560923,198.797012 121.814364,195.435021 C123.220625,191.661642 124.761184,187.937567 126.439128,183.695789 C126.463826,193.72321 125.922006,203.061901 119.421712,210.808962 C118.612842,211.773493 117.711352,212.657903 116.606102,213.420591 Z M115.042388,198.060517 C117.143291,200.610514 114.37862,206.320659 109.661238,209.332891 C111.510526,205.45782 113.254846,201.804622 115.042388,198.060517 Z M114.675,209.784341 C112.646649,215.435936 107.793426,218.939678 101.456759,219.078349 C105.917896,215.941313 110.443866,212.758054 114.675,209.784341 Z M101.374946,213.862796 C102.507982,213.434458 103.668804,213.083159 104.817276,212.697963 C104.911439,212.805818 105.007145,212.912132 105.102851,213.021528 C103.139333,214.096995 101.178902,215.172462 99.0594763,216.332672 C98.8541714,214.257236 100.328353,214.258777 101.374946,213.862796 Z M73.2497132,224.8794 C81.9342663,223.668344 90.4551929,221.733119 99.2308211,222.637559 C94.0379955,226.01958 78.1075675,227.555741 73.2497132,224.8794 Z M62.7529196,189.028442 C63.9446144,193.532153 65.0452341,198.079006 67.5366789,202.092748 C71.0994141,207.830627 76.5191557,210.525458 83.0935445,210.711893 C86.8199062,210.815125 90.567879,210.229627 94.301959,209.935338 C95.0228417,209.878329 95.7360062,209.735036 96.483131,209.627181 C96.9030027,210.929143 96.9554867,211.773493 95.3732494,211.987662 C86.5019151,213.191014 77.9362228,212.292737 69.9277867,208.098723 C64.8414728,205.436249 61.9949893,201.217583 61.7016966,195.350278 C61.4963916,191.256416 61.0811508,187.170257 60.7600724,183.081017 C60.8511475,183.047119 60.9422227,183.013222 61.0332978,182.979325 C61.6090778,184.996211 62.2172744,187.003852 62.7529196,189.028442 Z M63.1866841,126.058149 C60.2630184,126.058149 57.333178,126.155218 54.4156869,126.02117 C52.7253944,125.945672 51.3577239,124.793165 51.2759107,123.184587 C51.1879228,121.446583 51.7096752,119.637703 52.2453204,117.947463 C52.3363955,117.663959 54.1069576,117.455953 54.6456901,117.84423 C57.0522344,119.57453 59.3198506,121.502051 61.5782049,123.428031 C62.2898257,124.03664 62.8146654,124.86096 63.4259493,125.585128 C63.3456797,125.742288 63.2654101,125.900989 63.1866841,126.058149 Z M114.207276,112.389856 C116.198579,111.580944 118.643715,111.585566 120.85576,111.701125 C122.887198,111.807439 124.010972,114.036953 123.399688,116.198673 C122.246585,120.274046 119.531311,123.085977 115.754009,124.78238 C112.237583,126.360142 108.471087,126.223013 104.273913,125.831654 C106.462803,120.226282 108.378468,114.75804 114.207276,112.389856 Z M86.0727815,102.604338 C86.5235262,104.163611 86.8276245,105.795301 86.9341361,107.413124 C87.0051438,108.482428 86.7087637,109.6072 86.4201019,110.665719 C85.9909683,112.243481 85.4229065,113.782724 84.8455829,115.545381 C80.2285373,111.972303 78.3993167,105.568806 83.8946968,102.086634 C84.9119596,101.444127 85.7470722,101.471862 86.0727815,102.604338 Z M96.0215808,204.303773 C96.0925885,204.910842 96.0879576,205.527155 96.1388979,206.598 C92.3816632,207.052531 88.7726186,207.488573 85.0030348,207.943104 C85.0030348,205.601113 84.8193409,203.746009 85.0339077,201.93867 C86.1684876,192.402759 86.0542578,182.85144 84.8502138,173.366375 C84.1355056,167.720943 82.8172318,162.120194 81.3631172,156.605729 C79.8827606,150.989572 78.1816625,145.390363 76.0437127,139.994538 C74.5540942,136.236567 72.2355377,132.788292 70.1392663,129.290713 C69.3628123,127.994914 69.1050234,127.668268 70.886391,126.970293 C75.3583338,125.218422 79.6434954,122.99353 84.0259068,121.005919 C84.4766514,120.800994 85.25928,120.679272 85.5757275,120.922716 C89.5459853,123.984254 93.9608132,126.169085 98.7275924,127.659023 C99.7340497,127.974884 99.9825767,128.259929 99.7078077,129.466363 C97.7226788,138.202607 95.4566063,146.909576 94.1337016,155.753675 C92.6996543,165.320402 92.6116665,175.031962 93.7138298,184.695758 C94.4578672,191.234845 95.2574759,197.766227 96.0215808,204.303773 Z M100.322179,210.972285 C99.8312994,210.027785 99.3141779,209.097151 100.630908,208.539388 C102.907786,207.574857 105.237148,206.741293 107.898394,205.718212 C106.293002,209.201925 103.238126,209.878329 100.322179,210.972285 Z M122.224974,170.021333 C120.875827,174.067431 119.616212,177.846974 118.355053,181.628058 C118.174446,181.581834 117.995383,181.537151 117.814777,181.492469 C117.93055,178.059602 119.080567,174.825497 120.028365,171.552872 C120.966902,168.314145 121.680067,164.976807 124.313527,162.340526 C122.308331,165.514541 125.84328,166.807258 126.537921,169.218585 C125.040584,169.542149 124.332051,172.509699 122.224974,170.021333 Z M143.893134,52.3485921 C142.533182,49.7046071 140.818191,47.2424346 139.208168,44.6030719 C142.611908,45.8264543 143.567425,48.9758164 144.925834,51.6968406 C147.891178,57.6427253 150.078524,63.8983076 151.435389,70.3957929 C153.014539,77.9533375 153.591863,85.5879212 153.046956,93.3349822 C152.502049,101.122104 150.892026,108.650373 148.272458,115.961392 C145.913767,122.552866 142.684459,128.739113 138.897895,134.632611 C138.113723,135.848289 137.306396,137.047019 136.509875,138.254993 C136.37249,138.191821 136.235106,138.13019 136.097721,138.067018 C136.523768,136.877533 136.906592,135.669558 137.385122,134.501644 C139.748444,128.723705 142.181231,122.9735 144.505962,117.181693 C149.206364,105.476359 152.11305,93.4181846 151.057196,80.7020958 C150.240607,70.8734359 148.471589,61.2312108 143.893134,52.3485921 Z M67.5490281,15.1525302 C70.0250364,14.2296007 72.7341354,13.7380907 75.3814885,13.493106 C87.6596497,12.3590892 99.6290818,13.8875467 111.07213,18.5160613 C121.643019,22.7948179 130.469588,29.4540855 137.158206,38.7804499 C137.215321,38.8605707 137.165924,39.0177306 137.165924,39.7141649 C133.367011,37.3120829 129.754879,35.1765566 126.295568,32.8160758 C116.96114,26.443394 106.706699,22.3110118 95.6680858,20.0722529 C84.5059807,17.8073007 73.2867607,17.4945216 62.0320368,19.4050935 C61.66928,19.4682657 61.2972613,19.4898366 60.9267862,19.5067853 C60.6967829,19.5175707 60.465236,19.4836735 60.2336891,19.4698064 C60.1781178,19.3465437 60.1210029,19.2217402 60.0654317,19.0984775 C62.5491583,17.7549141 64.927917,16.1278464 67.5490281,15.1525302 Z M26.0681695,57.1573784 C28.6738442,51.2977776 32.3400037,46.1053361 36.2701267,41.1024111 C40.657169,35.5170698 45.464083,30.298435 51.0489947,25.8702224 C52.1110232,25.0274136 53.47715,24.4234264 54.8015984,24.0721277 C65.4064472,21.2509525 76.2027082,20.5683853 87.0715206,21.8410727 C97.4587153,23.0582919 107.355031,26.1075031 116.741943,30.74064 C117.056846,30.8962592 117.291481,31.2105791 117.734507,31.6019382 C114.469696,31.0056548 111.451867,30.1597645 108.389273,29.956381 C101.881261,29.52188 95.3470074,29.1644182 88.8312771,29.2537836 C81.2967404,29.3554754 73.8779772,30.7313953 66.6660625,32.8961965 C51.4148388,37.4723245 38.6519727,45.4844003 30.842667,59.8799434 C27.4142289,66.2002386 25.6143375,73.0474818 24.8857366,80.2275344 C23.8792793,90.1471005 24.7977487,99.8879358 27.1178489,109.525538 C28.3774641,114.7565 29.834666,119.939696 31.2548205,125.346307 C29.6355357,122.990448 27.9344377,120.710088 26.4463628,118.301843 C24.7607012,115.570033 22.4529503,113.172574 21.8941504,109.810583 C20.194596,99.5782382 19.2329045,89.3351075 20.3396987,78.9425207 C21.1485693,71.3634051 22.973159,64.1155581 26.0681695,57.1573784 Z M56.4517561,17.2557001 C56.5536367,17.4190232 56.6555174,17.5823463 56.7589417,17.7456694 C54.1393742,19.4066343 51.627862,21.2771458 48.8786282,22.6823407 C44.3727252,24.9858125 39.7109139,26.9857499 35.1170231,29.1166539 C34.8515159,29.2399166 34.6076198,29.407862 34.3374818,29.5157169 C34.2525812,29.5511549 34.118284,29.4617894 33.6845195,29.3354452 C40.6818673,23.7840011 48.2565388,19.9320416 56.4517561,17.2557001 Z M16.3817901,99.5705343 C15.5682886,93.8126252 14.4522324,88.0793687 14.0107497,82.2937255 C13.4195332,74.5512868 13.9459165,66.8042258 15.0249252,59.0972252 C15.9125217,52.7399512 19.265321,47.7123737 23.348265,43.0437987 C28.7649193,36.848307 35.2945424,32.1196415 42.8460592,28.6636634 C34.0148597,38.2535019 25.7254801,48.2131284 21.2180334,60.6826918 C16.66119,73.2924664 15.9233272,86.316712 17.3095214,99.5643712 C17.0007922,99.5674527 16.692063,99.5689935 16.3817901,99.5705343 Z M34.2016409,123.349451 C31.3103917,114.976832 29.2187512,106.420859 28.2030321,97.5875455 C27.409598,90.6802117 27.2938245,83.7913673 28.4253171,76.9626135 C30.2946726,65.6779129 35.2528639,55.9463223 44.0007065,48.3425542 C51.9396785,41.4429243 61.2648447,37.3983668 71.4158616,34.9284904 C81.0266023,32.5880398 90.746942,31.7652612 100.590773,32.2768015 C110.057955,32.7698523 119.318288,34.5525391 127.933377,38.5154351 C130.667174,39.7727147 132.808211,42.5168507 134.936899,44.8418934 C140.441542,50.860195 143.690917,58.0541146 145.513963,65.9552539 C147.756881,75.6698959 149.035019,85.3845378 147.42654,95.396551 C146.250282,102.729141 144.059848,109.711973 141.410951,116.576165 C137.355793,127.081229 133.255869,137.573967 128.90433,147.95885 C127.603037,151.068152 125.403341,153.804584 123.608081,156.70742 C117.232822,167.006019 113.690154,178.079632 114.025125,190.316537 C114.074522,192.096143 113.106656,193.968195 112.370337,195.693873 C110.235474,200.689094 105.669369,204.12042 99.3959912,205.490176 C99.0733691,203.722897 98.6426919,202.112778 98.5053074,200.476466 C97.6887186,190.79264 96.4754127,181.108813 96.3225918,171.409579 C96.2114492,164.323515 97.1824026,157.160411 98.3015461,150.132896 C99.3805547,143.367314 101.299307,136.73424 102.787382,130.028749 C103.088393,128.6744 103.898807,128.819233 104.865129,128.976393 C110.237018,129.848477 115.286284,128.9502 119.85239,125.971865 C123.30707,123.719239 125.64415,120.549847 126.570338,116.485259 C127.518136,112.328224 124.483328,108.536355 120.062325,108.283667 C113.27337,107.893848 108.389273,111.032425 105.051911,116.694806 C103.698133,118.990573 102.679326,121.495888 101.657433,123.967305 C101.217494,125.031987 100.519766,125.113648 99.7680099,124.750023 C95.9320493,122.890297 92.120787,120.978185 88.3280485,119.032175 C87.1425283,118.423565 87.0591714,117.616194 87.715221,116.340425 C90.0430393,111.816684 90.7855331,107.021765 89.4008826,102.052737 C89.0489312,100.795457 87.9575734,100.213041 86.8183626,99.4210783 C83.8221455,97.3394793 82.1781624,99.1653082 80.4431041,100.823192 C77.9038062,103.248385 76.391033,106.322249 77.595077,109.795176 C78.6154271,112.741154 80.3443108,115.440608 81.957421,118.640815 C80.5156555,119.421993 78.6787166,120.589907 76.7074805,121.443501 C74.0107307,122.611415 71.187402,123.481958 68.4674975,124.602108 C67.3884889,125.044313 66.8759984,124.702259 66.1226991,123.947275 C63.4105128,121.232414 60.7075885,118.480574 57.7499625,116.049217 C55.710806,114.372844 53.080433,113.337438 50.59825,115.098554 C48.0249919,116.922842 47.7085445,119.905799 47.9894881,122.771657 C48.373856,126.702196 51.1416134,129.262979 55.1118713,129.32307 C58.1729215,129.369293 61.2540392,129.096574 64.299653,128.739113 C65.4651058,128.603524 66.0964571,128.879324 66.7370702,129.749867 C71.1102197,135.688048 74.1265042,142.264113 76.0514309,149.3548 C77.4160141,154.383918 78.8763033,159.394547 80.0448434,164.469889 C82.2939358,174.24154 83.0966318,184.162647 82.5486374,194.176201 C82.3109159,198.535078 81.9388972,202.886252 81.6193625,207.369933 C75.968074,206.827577 71.7415709,204.177429 69.5403316,199.1668 C67.7049363,194.985112 66.4715631,190.519921 65.2212097,186.110198 C63.5123935,180.07957 61.2864558,174.289304 58.4878253,168.671607 C57.0769328,165.839646 56.286586,162.701069 55.2075773,159.705786 C53.2594959,154.297634 50.175291,149.53199 46.6511469,145.056013 C41.4289921,138.422939 36.9678548,131.363067 34.2016409,123.349451 Z M39.9532664,150.92794 C41.586444,151.625915 42.9741818,153.297666 43.789227,156.121922 C45.0719969,160.577869 46.28839,165.055387 47.4862594,169.534445 C47.6915644,170.301756 47.6653224,171.132238 47.7780085,172.269337 C45.0472986,164.822729 42.4539731,157.745909 39.9532664,150.92794 Z M49.6489076,154.91857 C46.5369171,153.400898 43.9559408,149.510419 44.0562778,146.62299 C46.0815415,149.627519 47.8659964,152.273044 49.6489076,154.91857 Z M113.842975,232.493953 C106.086153,234.278181 98.1826853,234.316701 90.2853918,234.218091 C86.2425826,234.167245 82.201317,233.925342 78.1585079,233.768182 C84.9551817,231.18891 112.802558,227.104292 118.157466,230.809877 C116.525832,231.458547 115.230713,232.17347 113.842975,232.493953 Z M114.228887,242.388867 C100.430234,245.636839 86.41084,246.929557 72.2540614,246.900282 C71.911372,246.900282 71.5671389,246.85714 71.0669976,246.821702 C76.4666717,243.67234 114.037475,235.954554 120.304678,240.217903 C118.282501,240.952857 116.308178,241.900439 114.228887,242.388867 Z M69.9756398,259.146432 C79.8148401,254.226709 113.132898,250.907861 118.943182,253.405471 C102.660803,258.417641 86.4787604,260.123289 69.9756398,259.146432 Z M89.8578018,287.409029 C95.1838169,286.081437 100.507416,286.375163 105.630778,284.649485 C109.90359,283.208853 111.309852,280.561786 109.406536,276.860823 C108.860086,275.800764 107.666847,275.062729 106.739116,274.212216 C106.427299,273.927171 106.015146,273.74844 105.479501,273.412549 C109.827952,272.295481 113.907808,271.383337 117.89659,270.173822 C120.39884,269.415756 122.820821,268.318718 125.159445,267.138477 C125.844824,266.791801 126.632083,265.489839 126.460739,264.879688 C126.210668,263.97833 125.272131,263.064645 124.392253,262.596247 C123.456803,262.100114 122.255847,262.049268 121.158314,261.919843 C111.944291,260.836672 102.781207,261.889027 93.647453,262.824283 C87.1023935,263.494524 80.5928378,264.628541 74.1295915,265.871953 C69.2609316,266.81029 64.373748,268.019806 60.1287212,270.723881 C58.4461469,271.794726 57.4304277,271.1137 56.4409506,270.127598 C55.436037,269.126089 55.6042944,267.782525 56.5181329,266.814913 C57.7669426,265.49138 59.1747479,264.306517 60.5949023,263.161714 C62.0644534,261.976852 63.6358851,261.397517 65.6796726,261.870538 C67.7589639,262.351262 69.957116,262.431383 72.1074151,262.476066 C79.7608125,262.64247 87.41421,262.748784 95.0058616,261.454526 C100.826951,260.463802 106.680457,259.650268 112.472217,258.516251 C115.703069,257.88453 118.972511,257.009365 121.547313,254.77831 C122.212625,254.200516 122.749813,252.938614 122.604711,252.120458 C122.478132,251.399371 121.400667,250.479523 120.602602,250.308496 C118.206863,249.793874 115.723136,249.240733 113.305786,249.354751 C105.732659,249.709131 98.1440942,250.12052 90.6141884,250.967951 C82.358769,251.897044 74.1697263,253.494837 66.5255907,256.887643 C62.9921847,258.45462 60.0469079,258.098699 57.1541151,255.82142 C55.5518104,254.561059 55.5193938,253.46248 57.1741825,252.34233 C59.8539522,250.528828 62.519829,248.556625 66.1211554,249.604358 C66.8142525,249.80466 67.5937938,249.769222 68.3316566,249.750732 C75.7303525,249.578164 83.1522031,249.686019 90.5184823,249.112848 C97.4417352,248.575114 104.329484,247.44572 111.187904,246.310162 C114.979099,245.683063 118.765663,244.71391 122.013494,242.45358 C124.57749,240.670893 124.369098,237.956032 121.476305,236.815852 C119.659434,236.099388 117.648063,235.875974 115.491589,235.375219 C116.20321,235.111745 116.791339,234.874464 117.391818,234.675703 C119.548291,233.96232 121.127441,232.185797 121.065695,230.524832 C120.997775,228.715952 119.535942,227.486406 117.046041,226.890123 C112.04154,225.691393 107.001536,225.941 101.947638,226.357012 C101.277696,226.410939 100.601579,226.364715 99.4515624,226.364715 C101.362596,225.474142 102.790469,224.905593 104.122636,224.162935 C106.308439,222.944175 108.284306,221.181519 110.602862,220.400341 C119.159292,217.517535 124.095873,211.29585 127.24028,203.283774 C129.044802,198.684534 129.398297,193.844932 129.453868,188.963729 C129.506352,184.418417 130.30133,179.94244 132.409951,175.948728 C135.833758,169.472814 139.662,163.209528 143.309636,156.850713 C143.484068,156.55026 143.565881,156.198962 143.596754,156.115759 C142.537813,156.468599 141.097591,157.428507 140.524898,157.055637 C138.516615,155.753675 141.123833,154.561108 141.089873,152.607395 C140.176034,153.497968 139.61106,154.048027 138.914876,154.729054 C138.496547,153.311533 139.185014,152.407093 140.179122,152.192924 C140.918528,152.034223 141.935791,152.508784 142.631975,152.987968 C143.338965,153.473315 143.803603,154.309961 144.766838,155.459385 C145.276241,153.909357 145.947727,152.81386 145.856652,151.786157 C145.802625,151.172925 144.555358,150.662925 143.508766,149.844769 C143.181513,146.183867 143.181513,146.183867 144.887242,146.404199 C144.675763,146.908035 144.464283,147.413412 144.25126,147.92033 C144.428779,148.000451 144.604755,148.083653 144.783818,148.165315 C153.533204,134.134937 162.457023,120.200089 168.748924,104.796873 C166.458153,120.217037 157.148424,132.059502 148.403668,144.259428 C149.042738,144.42121 149.575296,144.513657 150.070806,144.698551 C150.532356,144.868037 150.955315,145.139215 151.6515,145.499759 C151.577405,144.888068 151.592841,144.644624 151.515659,144.435077 C150.6188,141.969823 151.260957,141.085413 153.868176,141.057679 C154.11979,141.056138 154.454761,140.412091 154.579796,140.011487 C154.660066,139.751094 154.431606,139.392092 154.271067,138.83895 C154.993494,139.008437 155.472024,139.123995 155.626388,139.159433 C156.611235,137.948377 157.549772,136.93146 158.326226,135.802066 C159.710876,133.78518 161.013713,131.711285 162.322725,129.642012 C169.42041,118.422024 173.538858,106.354605 172.804082,92.902022 C172.74388,91.8003616 172.69294,90.6540184 172.919856,89.587796 C174.218062,83.515567 174.4882,77.4094408 174.00967,71.2231938 C173.125161,59.7813332 169.150272,49.5705589 162.234737,40.4306294 C154.999668,30.8654435 146.359881,22.8518269 136.07611,16.6563352 C130.089851,13.0493603 123.756271,10.1788801 116.984295,8.34534734 C113.958749,7.52565036 110.812798,7.03105875 107.910743,5.90320501 C100.819233,3.14674277 93.6011436,1.18840655 85.987881,0.495053838 C71.9252648,-0.783796723 58.9015225,2.42873752 46.620274,9.05873025 C36.5155664,14.5115641 27.6720178,21.646934 19.8534502,29.999523 C10.5684188,39.9190891 3.78718139,51.1791372 1.39607355,64.8320226 C-0.303480827,74.5435829 0.803313441,83.9423641 3.50932509,93.2625654 C4.53121882,96.786338 5.7923777,100.240775 6.81118414,103.764548 C8.25603691,108.759769 9.24242678,113.910609 11.0284253,118.776404 C13.8702779,126.520384 19.0229686,132.788292 25.1913785,138.17025 C26.781334,139.560037 27.5346333,141.231788 28.2508851,143.029882 C28.8868673,144.621512 29.4317744,146.250121 30.0199036,147.858699 C32.0204689,153.319237 34.4532552,158.668838 35.919719,164.269587 C38.0144468,172.273959 39.479367,180.449358 41.0662352,188.578533 C42.1143709,193.951246 43.1069354,199.328582 46.1618111,204.000238 C47.5943147,206.188152 49.6334712,208.017062 50.8436897,210.300503 C53.6376892,215.576147 57.1865317,220.152275 62.0937827,223.99499 C61.3096104,224.284657 60.6906084,224.492663 60.0870427,224.74227 C58.3952066,225.446408 56.6292754,226.025743 55.0393199,226.916316 C52.452169,228.367734 52.4459944,231.204317 55.0640182,232.532473 C57.1047184,233.566339 59.3368307,234.222713 61.5920977,235.088633 C61.0765199,235.353648 60.5069145,235.557032 60.0391897,235.899086 C58.1281558,237.295036 56.0658446,238.552315 54.4110559,240.210199 C52.7176761,241.906602 52.927612,244.602973 54.5685078,246.171491 C55.3912712,246.958832 56.4208832,247.528922 57.433515,248.251549 C55.2986524,249.972605 52.1094796,250.997226 52.8041203,254.604201 C53.4184915,257.796705 56.2263838,258.990813 58.8351457,260.437609 C57.9290254,261.157155 57.1386786,261.727245 56.4177959,262.371292 C55.6876513,263.026125 54.9698558,263.708693 54.3431355,264.459054 C52.3811613,266.801046 51.9427658,269.606813 53.6484947,271.483488 C55.2600613,273.25693 56.7419616,274.862427 56.2449075,277.489463 C56.1677252,277.897771 56.5335693,278.415474 56.757398,278.849975 C58.8336021,282.9084 62.6109041,284.569365 66.6799553,285.761931 C72.0564747,287.335072 77.599708,287.637065 83.1583776,287.692033 C84.3778581,287.700237 88.7328059,287.692033 89.8578018,287.409029 Z" id="Fill-130"></path>
                    </g>
                </g>
                <polygon id="Path-4-Copy-2" fill="#172F3B" points="197.838837 220.056454 189.935427 222.969615 199.073664 206.284814 204.7435 199.526169 208.756791 201.029921 209.981103 202.758963"></polygon>
                <polygon id="Path-22-Copy" fill="#172F3B" points="183.148949 219.134372 180.505952 227.716446 181.827451 230.116604 183.678063 228.761446 185.490278 226.429863 185.490278 222.211215"></polygon>
                <polygon id="Path-23-Copy" fill="#172F3B" points="209.251214 203.519888 214.500575 195.514197 211.875894 194.742793 207.734413 200.608183"></polygon>
                <path d="M98.4684393,189.979213 L86.6348891,177.009663 L73.8768045,149.02561 C72.8977839,128.401456 74.1345845,115.761456 77.5872063,111.105607 C82.7661391,104.121835 87.4112118,86.597937 115.209607,83.6837712 C133.741871,81.740994 151.407817,82.5392055 168.207445,86.0784058 C178.835976,88.9094431 186.784913,94.9239196 192.054254,104.121835 C197.323595,113.319751 173.890694,124.495676 121.755553,137.649609 L97.7664061,165.86387 L98.4684393,189.979213 Z" id="Path-24-Copy" fill="#FFFFFF"></path>
                <polygon id="Path-25-Copy" fill="#FFFFFF" points="97.7664061 89.3901892 121.755553 74.702405 149.587597 71.6688048 181.895649 83.4240056 194.427325 95.3889606 200.884657 105.038407 206.976013 119.990754 209.174773 130.444809 210.048764 133.951476 210.048764 153.402957 200.884657 184.272533 195.781454 193.572356 194.839478 195.514197 183.292374 210.432748 198.633613 158.923155 202.425613 133.951476 189.935427 117.993466 162.23041 109.588807 105.180781 100.488007"></polygon>
            </g>
            <path d="M975.190781,577.231489 C962.05433,574.581586 956.189318,563.847465 957.595745,545.029124 C957.64215,532.31657 954.314938,523.775473 947.614111,519.405833 C935.075702,514.730639 927.480114,503.282502 924.827347,485.061424 C911.028259,463.464291 907.273466,442.193011 913.56297,421.247585 C925.831082,396.318201 946.094887,382.095504 974.354385,378.579493 C990.97718,373.851948 999.288577,371.488176 999.288577,371.488176 C1024.49467,376.075764 1046.13133,395.451218 1064.19856,429.614538 C1071.73216,458.811689 1061.83176,488.517366 1034.49738,518.731571 C1025.88311,527.983286 1020.10393,542.100842 1017.15986,561.084242" id="Path-121" stroke="#CE4B35" stroke-width="2"></path>
            <path d="M1005.6673,494.572361 C992.573287,522.551725 989.678983,549.010352 996.98439,573.948242" id="Path-122" stroke="#1532A3" stroke-width="3" stroke-linecap="round"></path>
            <path d="M1374.92009,137 C1385.08829,142.000654 1391.98728,145.791119 1395.61707,148.371394 C1403.00241,153.621352 1407.0303,159.6051 1411.22624,163.288249" id="Path-129" stroke="#D54D35" stroke-width="4" stroke-linecap="round" transform="translate(1393.073167, 150.144125) rotate(4.000000) translate(-1393.073167, -150.144125) "></path>
            <path d="M1548.34682,347.301501 C1596.89132,419.404459 1667.24742,460.434031 1765.75889,473.036627" id="Shape" stroke="#D54D35" stroke-width="5" stroke-linecap="round"></path>
            <path d="M1534.9789,331.304136 C1570.60802,409.958503 1647.53468,454.690458 1765.75889,465.5" id="Path-131" stroke="#1532A3" stroke-width="5" stroke-linecap="round"></path>
            <path d="M1420.09174,165.484577 C1456.82201,194.741851 1493.31981,239.602561 1529.58516,300.066707" id="Path-130" stroke="#1532A3" stroke-width="5" stroke-linecap="round"></path>
            <path d="M1414.92519,167.818002 C1457.96305,202.249074 1494.39081,246.331975 1524.20847,300.066707" id="Path-132" stroke="#D54D35" stroke-width="5" stroke-linecap="round"></path>
            <path d="M-5.68434189e-14,176.468523 C281.015136,196.478494 488.002143,320.973984 620.961021,549.954993 C700.106927,643.079849 811.396924,669.103457 954.831013,628.025819" id="Path-195" stroke="#1532A3" stroke-width="5"></path>
            <path d="M0,168.136878 C186.646698,200.748291 313.41374,236.416041 380.301124,275.14013 C493.729827,340.809062 555.720119,430.723208 621.045291,555.480016 C688.625312,657.294703 799.887219,683.874893 954.831013,635.220585" id="Path-196" stroke="#D54D35" stroke-width="5"></path>
        </g>
    </g>
</svg>