<?xml version="1.0" encoding="UTF-8"?>
<svg width="1600px" height="767px" viewBox="0 0 1600 767" version="1.1" xmlns="http://www.w3.org/2000/svg" xmlns:xlink="http://www.w3.org/1999/xlink">
    <!-- Generator: Sketch 59.1 (86144) - https://sketch.com -->
    <title>screen1  copy 3</title>
    <desc>Created with Sketch.</desc>
    <g id="screen1--copy-3" stroke="none" stroke-width="1" fill="none" fill-rule="evenodd">
        <g id="Group-Copy" transform="translate(0.000000, 41.000000)">
            <path d="M810.452098,212.103224 C864.400018,164.581388 854.347041,79.710625 925.703279,102.532689 C997.059516,125.354753 937.99043,238.07884 1056.51268,258.085173 C1175.03492,278.091506 1233.3069,358.257181 1211.49192,407.685016 C1189.67694,457.112851 1059.01667,419.234172 951.26405,436.615041 C843.511433,453.99591 756.504178,259.622842 810.452098,212.103224 Z" id="Path_396" fill="#D1EFFE" fill-rule="nonzero" opacity="0.900000036" transform="translate(1005.000000, 268.211192) scale(-1, 1) translate(-1005.000000, -268.211192) "></path>
            <g id="Group-11-Copy" transform="translate(1338.038908, 168.074053) scale(1, -1) rotate(21.000000) translate(-1338.038908, -168.074053) translate(1078.538908, 88.574053)" stroke-width="5">
                <path d="M514.565807,140.838598 C382.602952,127.18268 268.783093,107.991249 148.133475,71.1049588 L3.90292014,17.851784" id="Shape" stroke="#1532A3" transform="translate(259.234364, 79.345191) scale(-1, 1) rotate(4.000000) translate(-259.234364, -79.345191) "></path>
                <path d="M512.640064,141.332293 C377.387242,128.597346 280.325675,112.194475 221.455363,92.1236775 C116.657646,57.7235312 43.580678,29.6719116 2.2244599,7.9688186" id="Shape" stroke="#D54D35" transform="translate(257.432262, 74.650556) scale(-1, 1) translate(-257.432262, -74.650556) "></path>
            </g>
            <path d="M1124,93.7111923 C1123.33333,95.08977 1122.66667,94.9985006 1122,93.7111923 L1124,93.7111923 Z" id="Fill-1" fill="#A07F9B" transform="translate(1123.000000, 94.211192) rotate(11.000000) translate(-1123.000000, -94.211192) "></path>
            <path d="M970,329.633488 C969.580409,329.789348 969.189766,329.800221 969,328.791969 C969.428363,328.591405 969.790351,328.726121 970,329.633488" id="Fill-3" fill="#936D8F" transform="translate(969.500000, 329.211192) rotate(11.000000) translate(-969.500000, -329.211192) "></path>
            <path d="M969.185521,487.711192 C969.127343,487.377859 969.069166,487.045341 969.01142,486.711192 C969.146736,486.919016 969.282914,487.12684 969.419522,487.333034 C969.341953,487.456914 969.263521,487.584053 969.185521,487.711192" id="Fill-5" fill="#9F7E9B" transform="translate(969.215471, 487.211192) rotate(11.000000) translate(-969.215471, -487.211192) "></path>
            <path d="M959.919148,206.711192 C960.123041,207.1229 959.943517,207.458169 959.355396,207.711192 C958.629992,207.194985 959.114136,206.921158 959.919148,206.711192" id="Fill-9" fill="#7B4774" transform="translate(959.500000, 207.211192) rotate(11.000000) translate(-959.500000, -207.211192) "></path>
            <path d="M998.000431,210.826194 C998.143504,210.849515 998.286577,210.872403 998.430511,210.895723 C998.252963,211.087899 998.107736,211.075807 998.000431,210.826194" id="Fill-11" fill="#A6869F" transform="translate(998.215471, 210.927121) rotate(11.000000) translate(-998.215471, -210.927121) "></path>
            <path d="M916.503983,374.778367 L918.938057,366.439202 C924.428158,371.768399 932.885195,375.962051 944.309168,379.020158 C973.619023,390.478217 998.510332,395.591519 1018.9831,394.360063 L1051.94384,393.494401 L1054.05875,393.494401 L1054.05875,401.508188 C1046.30095,404.643524 1036.94876,406.211192 1026.0022,406.211192 C1011.71162,405.335565 1004.56632,404.897751 1004.56632,404.897751 C989.530181,402.266517 982.012109,400.9509 982.012109,400.9509 C968.342226,397.25289 961.507285,395.403886 961.507285,395.403886 C947.265394,389.81643 940.144449,387.022703 940.144449,387.022703 C933.584945,383.553496 930.305194,381.818893 930.305194,381.818893 L919.581695,376.789964 L916.503983,374.778367 Z" id="Path-23" fill="#FFFFFF"></path>
            <path d="M1070.87148,335.045886 L1045.88588,339.711192 L1028.79406,339.347735 L979.24049,331.095339 L952.384178,322.732541 L926,308.647376 L934.109414,274.474586 C947.177107,233.20861 956.530636,208.489265 962.170001,200.31655 C970.629048,188.057479 1009.39473,119.057463 1037.2936,96.6422572 C1040.8202,94.3092776 1042.58349,93.1427879 1042.58349,93.1427879 C1050.35309,107.500514 1057.23584,123.69915 1063.23176,141.738695 C1073.57176,180.660125 1079.13751,207.084764 1079.92902,221.012611 C1079.84424,266.222413 1078.14032,299.018315 1074.81726,319.400318 L1071.85513,331.78797 L1070.87148,335.045886 Z" id="Path-21" fill="#FFFFFF"></path>
            <path d="M927.858618,310.711192 C923.286206,325.028094 921,338.167206 921,350.128528 L923.186661,369.89246 L950.362437,378.694038 L962.058474,384.249963 L985.281368,394.711192 L1009.72588,394.711192 L1036,394.711192 L1050.53348,350.128528 L1050.53348,328.624974 L1026.94702,329.748677 L1014.60923,331.716576 L991.462821,329.748677 L965.530077,323.926323 L949.904721,319.580033 L933.633173,314.689853 L927.858618,310.711192 Z" id="Path-24" fill="#FFFFFF"></path>
            <path d="M928.807871,310.711192 C962.766246,192.146685 997.132258,122.183077 1031.90591,100.820368" id="Path-166" stroke="#D54D35" stroke-width="3" stroke-linecap="round"></path>
            <path d="M944.29303,382.304644 C944.29303,382.304644 940,358.068878 940.285916,347.393455 C940.572261,336.718466 940,313.636495 940,313.636495 L942.289473,285.072913 C942.289473,285.072913 945.294594,236.962321 954.73926,212.293773 C954.73926,212.293773 982.071696,119.750365 1013.26786,90.8985504 C1013.26786,90.8985504 1014.12603,89.6720475 1016.27255,93.4952397 C1016.27255,93.4952397 1076.66132,170.530354 1083.53017,260.548915 C1083.53017,260.548915 1091.68692,317.676078 1085.96303,354.606625 C1085.96303,354.606625 1084.53259,373.649013 1080.52547,382.881542 C1080.52547,382.881542 1057.91494,389.806046 1045.03585,391.825838 C1032.15676,393.845629 1026.43286,394.422527 1026.43286,394.422527 L1018.70541,394.711192 L959.461594,388.940483 C959.461594,388.940483 948.300145,385.766896 944.29303,382.304644 Z" id="Stroke-13" stroke="#172F3B" stroke-width="3.5" transform="translate(1014.000000, 242.711192) rotate(11.000000) translate(-1014.000000, -242.711192) "></path>
            <path d="M922,321.468355 C922,321.468355 949.325129,333.201881 966.063471,332.066364 C966.063471,332.066364 972.072107,332.747674 973.78886,333.428984 C975.505613,334.110295 1015.20553,333.428984 1019.06822,332.747674 C1022.93092,332.066364 1039.88385,332.066364 1042.45898,331.612157 C1045.03411,331.15795 1061.34326,325.026157 1062.20164,324.799054 C1063.06002,324.571951 1069.49784,321.165399 1069.49784,321.165399 L1071,320.711192" id="Stroke-15" stroke="#172F3B" stroke-width="3.5" transform="translate(996.500000, 327.211192) rotate(11.000000) translate(-996.500000, -327.211192) "></path>
            <path d="M937.285429,319.711192 C937.285429,319.711192 937.428571,340.13996 937,343.853969 C937,343.853969 938.428429,365.568454 943,374.711192" id="Stroke-17" stroke="#172F3B" stroke-width="3.5" stroke-linecap="round" transform="translate(940.000000, 347.211192) rotate(11.000000) translate(-940.000000, -347.211192) "></path>
            <path d="M1047.03445,340.574093 C1043.64516,368.440007 1038.96701,385.392377 1033,391.431204" id="Path-168" stroke="#D54D35" stroke-width="3" stroke-linecap="round"></path>
            <path d="M1045.48442,340.610567 C1045.48442,340.610567 1044.95497,384.295771 1039.95497,394.065682" id="Stroke-19" stroke="#172F3B" stroke-width="3.5" stroke-linecap="round" transform="translate(1042.719695, 367.338125) rotate(11.000000) translate(-1042.719695, -367.338125) "></path>
            <path d="M906.730745,379.359841 C906.730745,379.359841 906.442861,385.269895 905.867524,387.287625 C905.292187,389.305787 899.824978,389.738219 899.824978,389.738219 C899.824978,389.738219 888.603108,395.936273 883.855394,400.837463 C883.855394,400.837463 873.352587,406.603084 875.223186,414.098436 C875.223186,414.098436 880.47459,429.954436 880.47459,432.116598 C880.47459,434.27876 891.69646,455.467949 892.559681,456.765246 C893.422901,458.062544 900.328668,474.062544 900.976083,476.00849 C901.623499,477.954436 908.097655,488.54903 908.097655,488.54903 C908.097655,488.54903 910.687317,490.711192 911.766343,489.846327 C911.766343,489.846327 914.1402,490.27876 913.384882,483.792273 C912.629564,477.305787 911.622617,474.062544 912.485838,471.756382 C913.349059,469.449787 910.471944,450.13476 910.471944,450.13476 L909.320839,441.774111 C909.320839,441.774111 909.032955,438.891517 910.759396,439.756382 C912.485838,440.621246 919.597051,442.709463 919.597051,442.709463 C919.597051,442.709463 950.467552,448.693463 955.646877,448.40503 C960.826202,448.116598 991.326382,448.981463 995.355033,448.981463 C999.383685,448.981463 1038.22862,442.927409 1041.6815,438.603084 C1041.6815,438.603084 1043.40751,438.386868 1042.11268,441.630111 C1040.81785,444.873354 1041.03366,450.27876 1041.03366,452.00849 C1041.03366,453.738219 1037.14916,481.413895 1037.36497,482.062544 C1037.58077,482.711192 1035.42272,490.494976 1042.11268,490.711192 C1042.11268,490.711192 1043.83912,490.27876 1045.78137,485.738219 C1047.72362,481.197679 1049.88167,477.738219 1049.88167,477.738219 L1073.40444,424.981463 L1075.77829,415.251733 C1075.77829,415.251733 1077.07312,408.116598 1073.40444,405.522003 C1069.73575,402.927409 1057.86646,393.630111 1057.86646,393.630111 L1051.39231,390.603084 C1051.39231,390.603084 1047.93942,390.386868 1047.0762,387.143625 C1046.21298,383.900382 1045.99718,380.224706 1045.99718,380.224706 L1044.48654,378.711192" id="Stroke-21" stroke="#172F3B" stroke-width="3.5" transform="translate(975.500000, 434.711192) rotate(11.000000) translate(-975.500000, -434.711192) "></path>
            <path d="M1045.01641,404.03839 C1060.79099,411.977797 1069.74897,420.689732 1071.89033,430.174195 C1074.03169,439.658657 1063.40732,455.975855 1040.01723,479.125788" id="Path-170" stroke="#1532A3" stroke-width="3" stroke-linecap="round"></path>
            <path d="M931,445.711192 C931,445.711192 934.154419,456.010888 934.441341,458.331768 C934.728263,460.652649 937.59619,461.088276 938.456525,461.668388 C939.31686,462.248499 946.199542,467.325887 955.806475,468.48611 C965.413408,469.646768 975.881106,470.08196 980.326028,469.356495 C984.77095,468.631464 997.389486,464.42446 997.389486,464.42446 C997.389486,464.42446 1000.54391,462.393418 1000.97407,461.958226 C1001.40424,461.523033 1004.12849,455.865534 1004.12849,455.865534 L1006.7095,448.177427 L1008,446.146385" id="Stroke-23" stroke="#172F3B" stroke-width="3.5" transform="translate(969.500000, 457.711192) rotate(11.000000) translate(-969.500000, -457.711192) "></path>
            <path d="M920.514102,376.357975 C906.170018,385.266563 897.630004,394.437895 894.89406,403.87197 C893.683371,410.606742 895.814898,422.204403 901.28864,438.664954" id="Path-169" stroke="#D54D35" stroke-width="3"></path>
            <path d="M907.555197,374.711192 C907.555197,374.711192 893.354032,390.827572 891.808843,396.247831 C890.263654,401.668089 891.367361,406.871538 891.588102,408.1724 C891.808843,409.473262 891.423958,407.741739 893.574773,413.809469 C895.725588,419.877198 898.187789,426.079165 899.732977,431.716234 C901.278166,437.353303 907.702211,453.052141 908.143693,455.003434 C908.585176,456.954727 913,466.711192 913,466.711192" id="Stroke-25" stroke="#172F3B" stroke-width="3.5" transform="translate(902.000000, 420.711192) rotate(11.000000) translate(-902.000000, -420.711192) "></path>
            <path d="M915,388.625262 C915,388.625262 953.94582,399.822618 960.400929,399.822618 C966.856037,399.822618 975.247678,402.107793 985.145511,401.650758 C995.043344,401.193723 999.346749,402.107793 1006.66254,400.736688 C1013.97833,399.365583 1022.58514,397.765961 1031.40712,397.080409 C1040.2291,396.394856 1047.76006,392.281542 1049.69659,390.910437 C1051.63313,389.539332 1054,387.711192 1054,387.711192" id="Stroke-27" stroke="#172F3B" stroke-width="3" transform="translate(984.500000, 394.711192) rotate(11.000000) translate(-984.500000, -394.711192) "></path>
            <path d="M939,385.711192 C938.785968,386.355171 925.729995,398.590773 920.807251,402.669308 C915.884508,406.747842 913.31612,408.250459 913.530152,410.826376 C913.744184,413.402292 912.674023,415.978208 913.102087,419.627423 C913.530152,423.276637 913.530152,426.711192 913.530152,426.711192" id="Stroke-29" stroke="#172F3B" stroke-width="3" transform="translate(926.000000, 406.211192) rotate(11.000000) translate(-926.000000, -406.211192) "></path>
            <path d="M1019,407.711192 C1019,407.711192 1030.13678,417.838264 1035.84759,423.153038 C1041.5584,428.468242 1043.7,430.335502 1043.98569,432.777634 C1044.27139,435.219336 1045.41329,435.506772 1044.84234,439.672662 C1044.27139,443.838121 1044.27139,446.711192 1044.27139,446.711192" id="Stroke-31" stroke="#172F3B" stroke-width="3.5" stroke-linecap="round" transform="translate(1032.000000, 427.211192) rotate(11.000000) translate(-1032.000000, -427.211192) "></path>
            <path d="M953.851138,310.098371 C953.851138,310.098371 965.055687,140.101639 1009.48096,111.731414 C1009.48096,111.731414 1013.60008,106.93348 1010.12457,116.311899 C1006.64906,125.690319 994.083961,159.453111 988.068883,187.588771" id="Stroke-33" stroke="#172F3B" stroke-width="3.25500003" stroke-linecap="round" transform="translate(982.684761, 210.301325) rotate(11.000000) translate(-982.684761, -210.301325) "></path>
            <path d="M999.267841,268.879502 C986.67052,261.327722 979.540471,251.438286 977.877692,239.211192 C976.422004,221.162357 982.555895,208.520891 996.279365,201.286794 C1010.74252,195.627299 1023.05338,195.792569 1033.21195,201.782605 C1046.98732,209.172398 1053.09552,221.534656 1051.53653,238.869379 C1048.88314,253.893343 1041.40568,263.890928 1029.10413,268.862133 C1020.13369,271.733198 1011.54846,272.234551 1003.34844,270.366192 L1000.85125,269.884742 L999.267841,268.879502 Z" id="Path-22" fill="#D5F0FE"></path>
            <path d="M997.671656,267.539223 C997.671656,267.539223 973.17941,253.820643 977.514321,228.343278 C977.514321,228.343278 981.849232,203.083669 1000.2726,200.688361 C1000.2726,200.688361 1018.26248,191.760396 1037.98632,204.825711 C1037.98632,204.825711 1047.73987,210.269592 1051.2078,225.730215 C1051.2078,225.730215 1056.40969,247.07023 1040.15378,261.006566 C1040.15378,261.006566 1025.84857,273.63637 1008.72568,271.458818 C1008.72568,271.458818 1004.39077,270.370042 1003.74053,270.370042 C1003.09029,270.370042 997.671656,267.539223 997.671656,267.539223 Z" id="Stroke-35" stroke="#172F3B" stroke-width="3.5" transform="translate(1014.500000, 234.711192) rotate(11.000000) translate(-1014.500000, -234.711192) "></path>
            <path d="M996.6439,248.686817 C996.6439,248.686817 987.094518,236.754537 992.838708,224.464713 C992.838708,224.464713 998.223617,212.961143 1007.05487,210.746 C1007.05487,210.746 1018.04008,207.959386 1024.71737,211.531825 C1024.71737,211.531825 1032.75855,214.961503 1034.76905,220.606325 C1034.76905,220.606325 1038,227.179732 1038,231.395665 C1038,235.611168 1035.95373,244.399719 1034.44596,246.221735 C1032.93819,248.043752 1025.72241,254.367222 1025.72241,254.367222 C1025.72241,254.367222 1019.15282,257.261013 1014.091,256.617948 C1009.02919,255.974883 1008.4907,256.725125 1005.79825,254.795931 C1003.10579,252.866737 1003.10579,254.152867 1000.84413,252.009318 C998.582467,249.865769 998.582467,250.616011 997.613184,249.651414 L996.6439,248.686817 Z" id="Stroke-37" stroke="#172F3B" stroke-width="3" transform="translate(1014.500000, 233.211192) rotate(11.000000) translate(-1014.500000, -233.211192) "></path>
            <path d="M1016.94115,215.799668 C1016.94115,215.799668 1003.97004,214.734964 999.573712,224.577165 C999.573712,224.577165 998.712835,226.649093 998.180338,227.739603 C997.647841,228.830113 997.440473,233.183435 997.440473,233.183435 C997.440473,233.183435 997.418728,236.145821 998.590221,238.145089 C999.761715,240.144358 1000.92869,244.001445 1006.78616,246.000714 C1012.64363,247.999982 1017.51923,247.892656 1020.15914,247.613122 C1022.79862,247.333588 1022.69212,246.243078 1019.07114,245.334319 C1019.07114,245.334319 1008.11585,244.931374 1004.60137,236.570796 C1004.60137,236.570796 1002.00773,228.240899 1007.66081,222.910918 L1011.36853,220.121146 L1016.29023,218.101372 C1016.29023,218.101372 1020.62863,216.057223 1016.94115,215.799668 Z" id="Stroke-39" stroke="#172F3B" stroke-width="2" transform="translate(1009.712367, 231.765983) rotate(11.000000) translate(-1009.712367, -231.765983) "></path>
            <path d="M998.019013,206.95835 C998.027912,206.881611 998.040218,206.803337 998.056538,206.728913 C998.062897,206.699917 998.069079,206.675301 998.073522,206.65555 C998.062301,206.640888 998.051826,206.625882 998.042152,206.610595 C998.037095,206.613655 998.031448,206.61733 998.025159,206.621636 C998.003981,206.636138 997.981698,206.648912 997.958751,206.659936 C997.948806,206.719296 997.934627,206.793145 997.914386,206.881018 L998.019013,206.95835 Z M998.00007,207.251319 C997.997257,207.229035 997.994184,207.205752 997.990824,207.18143 L998,207.296895 L998.000052,207.299324 C997.999882,207.284026 997.999884,207.26799 998.00007,207.251319 Z M998.573183,204.927204 C998.660628,204.925182 998.750824,204.93129 998.844307,204.947207 C999.792857,205.10871 1000.10795,205.940834 999.916571,207.064981 C999.916709,207.065559 999.916847,207.066137 999.916985,207.066715 C999.988644,207.367223 1000.02083,207.677789 999.986752,207.996029 C999.927176,208.552404 999.667065,209.04697 999.164624,209.362211 C997.754989,210.246643 996.285607,209.453199 996.009632,207.455065 L996.000456,207.3396 C996.000329,207.333297 996.000329,207.333297 996.000176,207.321587 C995.996954,207.032126 996.021322,206.672804 996.102956,206.300527 C996.227449,205.732795 996.451957,205.274935 996.895191,204.971432 C997.407496,204.620634 997.995942,204.633675 998.573183,204.927204 Z" id="Stroke-41" stroke="#172F3B" stroke-width="2" transform="translate(998.000000, 207.211192) rotate(11.000000) translate(-998.000000, -207.211192) "></path>
            <path d="M983.198827,231.34089 C983.041371,231.23033 982.83802,231.057272 982.632484,230.82116 C981.889993,229.968216 981.687245,228.885974 982.550265,227.917902 C983.773447,226.545828 984.768986,226.293905 985.974544,227.357151 C987.074654,228.32801 987.301971,229.092432 986.624438,230.298002 C985.894227,231.597305 984.825115,232.064229 983.377914,231.44093 L983.198827,231.34089 Z" id="Stroke-43" stroke="#172F3B" stroke-width="2" transform="translate(984.500000, 229.211192) rotate(11.000000) translate(-984.500000, -229.211192) "></path>
            <path d="M992.245368,255.58791 C992.180309,255.604081 992.10209,255.621399 992.012582,255.638232 C991.659867,255.704561 991.29658,255.731956 990.93376,255.69501 C989.780742,255.577597 988.958359,254.804339 989.001607,253.467087 C989.068207,251.407824 989.42022,250.762634 990.808075,250.718459 C991.440799,250.69832 991.842479,250.713516 992.29403,250.824407 C993.103773,251.023261 993.703119,251.528573 993.787015,252.353459 C993.811955,252.428104 993.838359,252.514776 993.864369,252.61169 C993.950702,252.933366 994.00241,253.260235 993.999917,253.58782 C993.991944,254.635278 993.397286,255.462724 992.245368,255.58791 Z" id="Stroke-45" stroke="#172F3B" stroke-width="2" transform="translate(991.500000, 253.211192) rotate(11.000000) translate(-991.500000, -253.211192) "></path>
            <path d="M1007.09115,263.774636 C1007.07595,263.724249 1007.06071,263.66463 1007.04685,263.596344 C1006.94537,263.096587 1006.98817,262.54698 1007.28769,262.013859 C1007.59841,261.460801 1008.13823,261.04272 1008.88664,260.792687 L1009.04249,260.754204 C1009.08573,260.74715 1009.14894,260.738721 1009.2289,260.73091 C1009.54445,260.70009 1009.87863,260.700758 1010.21428,260.757309 C1011.1413,260.913493 1011.84625,261.485231 1011.89067,262.478554 C1011.9021,262.523815 1011.91372,262.573886 1011.92507,262.628359 C1011.99881,262.982137 1012.02573,263.348996 1011.97344,263.719815 C1011.881,264.375279 1011.54664,264.93798 1010.98189,265.235672 C1010.8693,265.304352 1010.70102,265.391405 1010.48741,265.476133 C1010.03967,265.653735 1009.57508,265.747057 1009.09743,265.699172 C1008.12117,265.601301 1007.38567,264.926847 1007.09115,263.774636 Z" id="Stroke-47" stroke="#172F3B" stroke-width="2" transform="translate(1009.500000, 263.211192) rotate(11.000000) translate(-1009.500000, -263.211192) "></path>
            <path d="M1030.99946,258.687906 C1030.98979,258.701395 1030.97798,258.715325 1030.96393,258.729213 C1030.97707,258.734442 1030.98918,258.740311 1030.9997,258.746127 L1031.01227,258.737799 C1030.99978,258.720479 1030.99691,258.716111 1030.99447,258.7116 C1030.99802,258.721081 1031.00045,258.731459 1031.00147,258.747113 C1031.00227,258.747564 1031.00306,258.748013 1031.00384,258.748462 L1031.00616,258.723812 C1031.00617,258.723622 1031.00779,258.713056 1031.01059,258.698768 C1031.00781,258.697554 1031.00486,258.696251 1031.00176,258.694851 C1030.98375,258.686724 1030.9781,258.682163 1030.99033,258.698068 C1030.99782,258.708496 1030.99488,258.704198 1030.99695,258.708343 C1031.00048,258.715409 1031.00324,258.698861 1030.99946,258.687906 Z M1030.98987,258.679175 C1030.98571,258.679171 1030.98021,258.681934 1030.97302,258.689122 C1030.96433,258.697812 1030.95459,258.706928 1030.94373,258.716449 C1030.96613,258.698826 1030.98091,258.686892 1030.98987,258.679175 Z M1029.01015,258.596983 C1029.02221,258.402457 1029.06343,258.168409 1029.16231,257.914546 C1029.33342,257.475214 1029.63606,257.116832 1030.10156,256.954546 C1030.15635,256.926182 1030.21793,256.897497 1030.28618,256.869692 C1030.76454,256.674812 1031.29322,256.632218 1031.82426,256.871805 C1032.11284,257.002003 1032.36677,257.207129 1032.54783,257.44418 C1032.62248,257.532804 1032.70679,257.655777 1032.78609,257.814487 C1033.14649,258.535864 1033.09628,259.394003 1032.38752,260.103047 C1032.34755,260.143039 1032.30575,260.182143 1032.18402,260.282253 C1032.09334,260.346999 1031.96478,260.424348 1031.80147,260.499092 C1031.40609,260.680048 1030.98363,260.765706 1030.53323,260.677917 C1030.07363,260.588336 1029.6732,260.321677 1029.44135,259.974338 C1029.3735,259.89205 1029.29518,259.778611 1029.21953,259.633365 C1029.05578,259.318989 1028.96631,258.974749 1029.01015,258.596983 Z" id="Stroke-49" stroke="#172F3B" stroke-width="2" transform="translate(1031.000000, 258.711192) rotate(11.000000) translate(-1031.000000, -258.711192) "></path>
            <path d="M1021.04669,203.778219 C1021.05469,203.74633 1021.06254,203.721204 1021.06885,203.703729 C1021.065,203.70293 1021.06115,203.702076 1021.05728,203.701164 C1021.01297,203.741445 1020.94676,203.772822 1020.8973,203.77759 C1020.89734,203.7778 1020.89739,203.778009 1020.89744,203.778219 L1021.04669,203.778219 Z M1020.99914,204.383469 C1020.9991,204.384374 1020.99906,204.385279 1020.99902,204.386184 L1021.00942,204.452065 C1021.00971,204.455498 1021.00834,204.440955 1021.00679,204.420094 C1021.00426,204.408273 1021.00171,204.396068 1020.99914,204.383469 Z M1020.66892,201.788864 C1021.06759,201.660316 1021.51424,201.670574 1021.94385,201.926737 C1022.40552,202.20202 1022.70138,202.689385 1022.85146,203.353013 C1022.87334,203.422893 1022.89696,203.510093 1022.91946,203.612507 C1023.01854,204.063446 1023.03846,204.538336 1022.92011,205.016369 C1022.76181,205.655794 1022.36967,206.194377 1021.66816,206.571787 C1021.60601,206.599373 1021.52776,206.627533 1021.43384,206.652052 C1021.00853,206.763087 1020.53737,206.737182 1020.08376,206.468508 C1019.54678,206.150455 1019.19688,205.569679 1019.03553,204.763587 L1019.02275,204.68257 C1019.01838,204.643735 1019.01445,204.601682 1019.01031,204.540232 C1018.98799,204.209138 1018.99705,203.850598 1019.06347,203.491081 C1019.2313,202.582766 1019.74376,201.882429 1020.66892,201.788864 Z" id="Stroke-51" stroke="#172F3B" stroke-width="2" transform="translate(1021.000000, 204.211192) rotate(11.000000) translate(-1021.000000, -204.211192) "></path>
            <path d="M1041.99963,217.579459 C1041.99964,217.577684 1041.99972,217.57619 1041.99987,217.574999 C1041.99943,217.57857 1041.99883,217.582164 1041.9981,217.585773 Z M1041.99948,217.664152 C1041.99947,217.664079 1041.99946,217.664004 1041.99946,217.663928 C1041.99946,217.664001 1041.99947,217.664074 1041.99948,217.664147 Z M1042.06337,217.823213 C1042.07543,217.849417 1042.08625,217.879563 1042.09449,217.913837 L1042.06337,217.823213 Z M1040.174,218.471297 C1040.15015,218.410193 1040.12504,218.337494 1040.10086,218.254333 C1040.01514,217.959577 1039.97544,217.652783 1040.01466,217.332163 C1040.11705,216.495162 1040.73445,215.900041 1041.70079,215.782116 C1041.73129,215.774558 1041.76445,215.767032 1041.80012,215.759762 C1042.05769,215.707264 1042.32679,215.691114 1042.60791,215.739061 C1043.43362,215.879892 1043.98997,216.535656 1043.9929,217.502308 C1043.99294,217.502692 1043.99298,217.503079 1043.99301,217.503468 C1044.0184,217.818936 1043.9859,218.1672 1043.84082,218.525572 C1043.61175,219.091426 1043.14608,219.517561 1042.47905,219.680709 L1042.30744,219.707164 C1042.28972,219.708272 1042.28972,219.708272 1042.25743,219.709625 C1041.99794,219.718933 1041.70289,219.695738 1041.39385,219.606228 C1040.81895,219.439716 1040.35343,219.076562 1040.174,218.471297 Z" id="Stroke-53" stroke="#172F3B" stroke-width="2" transform="translate(1042.000000, 217.711192) rotate(11.000000) translate(-1042.000000, -217.711192) "></path>
            <path d="M1044.31859,239.707218 C1044.3187,239.707198 1044.31882,239.707177 1044.31893,239.707157 C1044.31887,239.707169 1044.31825,239.707317 1044.31704,239.707634 Z M1044.00192,238.964197 C1044.00201,238.964726 1044.0021,238.965252 1044.0022,238.965775 C1044.00197,238.964542 1044.00161,238.962875 1044.00109,238.960734 Z M1042.05211,239.409957 C1042.04648,239.385236 1042.04101,239.358881 1042.03582,239.330933 C1041.95518,238.896715 1041.99326,238.420262 1042.24513,237.952929 C1042.55516,237.377702 1043.12665,236.97051 1043.95507,236.764811 C1044.00065,236.755084 1044.06318,236.744301 1044.1406,236.734657 C1044.52783,236.686422 1044.94544,236.702511 1045.36811,236.836912 C1046.13116,237.079544 1046.69805,237.663435 1046.89251,238.550486 C1046.90874,238.607005 1046.92574,238.675589 1046.94174,238.755027 C1047.02278,239.15731 1047.03063,239.583829 1046.90799,240.016402 C1046.65248,240.917665 1045.90122,241.524174 1044.75614,241.658936 C1044.72955,241.664831 1044.70095,241.670579 1044.6704,241.676033 C1044.26449,241.748491 1043.82322,241.723765 1043.38187,241.5216 C1042.64605,241.184557 1042.17944,240.45663 1042.05211,239.409957 Z" id="Stroke-55" stroke="#172F3B" stroke-width="2" transform="translate(1044.500000, 239.211192) rotate(11.000000) translate(-1044.500000, -239.211192) "></path>
            <path d="M925.018876,527.438042 C925.018876,527.438042 917.198462,514.092299 918.067397,499.88554 C918.067397,499.88554 920.891435,489.338097 922.194837,486.539796 C923.49824,483.741495 924.149941,481.373702 925.236109,481.158448 C926.322278,480.943194 931.318653,475.561846 932.622056,475.346592 C932.897858,475.301044 933.275792,475.175981 933.755856,474.971405 L933.755859,474.971411 C934.772005,474.538386 935.946791,475.011099 936.379817,476.027246 C936.573293,476.481261 936.592071,476.990779 936.432541,477.457804 C935.535331,480.084387 935.134104,481.820194 935.22886,482.665225 C935.446094,484.602511 941.311404,501.607571 941.528638,502.468587 C941.745872,503.329602 947.828416,514.522807 947.393949,520.119409 C946.959481,525.716011 949.783519,523.993979 951.304155,522.271948 C952.824791,520.549916 957.821167,514.522807 958.038401,513.877045 C958.255634,513.231283 961.079673,500.531301 961.296906,497.087239 C961.51414,493.643176 959.77627,483.526241 958.472868,481.373702 C957.169466,479.221163 959.341803,479.005909 962.383075,483.526241 C962.383075,483.526241 969.11732,489.983859 970.637956,486.539796 L969.986255,479.866924 L966.510516,472.763545 C966.510516,472.763545 966.510516,470.395752 970.85519,472.763545 C975.199864,475.131338 981.716876,478.360147 981.716876,478.360147 C981.716876,478.360147 989.971757,483.956749 985.844317,502.253333 C985.844317,502.253333 973.896462,531.097359 972.810294,532.388882 C971.724125,533.680406 968.900087,534.756676 968.900087,534.756676 C968.900087,534.756676 964.140419,535.681861 961.062117,540.169831 C961.270768,541.243248 958.472868,540.999039 953.042025,559.510877 C953.042025,559.510877 949.783519,566.829511 954.128194,578.88373 C954.128194,578.88373 953.91096,584.480333 948.914585,576.085429 C948.914585,576.085429 928.277381,549.609196 929.798017,523.348217 C929.798017,523.348217 929.581218,516.172943 927.626115,519.545542 L926.250156,524.281128 C926.250156,524.281128 926.394399,529.160073 925.018876,527.438042 Z" id="Stroke-57" stroke="#172F3B" stroke-width="3.5" transform="translate(952.500000, 526.211192) rotate(11.000000) translate(-952.500000, -526.211192) "></path>
            <path d="M956.117296,536.640525 C948.567,549.326693 944.390334,559.755883 943.587298,567.928095" id="Path-162" stroke="#D54D35" stroke-width="2" stroke-linecap="round" transform="translate(949.852297, 552.284310) rotate(10.000000) translate(-949.852297, -552.284310) "></path>
            <path d="M921.5,537.566903 C921.134399,546.759091 920.48285,552.687548 919.545355,555.352272" id="Path-165" stroke="#D54D35" stroke-width="2" stroke-linecap="round"></path>
            <path d="M918.982804,535.55674 C918.982804,535.55674 918.513803,536.405659 918.647746,538.527959 C918.647746,538.527959 916.703763,542.701672 917.038821,545.319316 C917.37388,547.93696 917.574995,555.789466 923.273404,558.053111 C923.273404,558.053111 926.826311,559.96318 925.820733,557.275076 C925.820733,557.275076 925.150616,554.516087 924.278982,550.483719 C923.407347,546.45135 922.535712,543.975052 921.999538,541.286947 C921.463364,538.598843 920.99396,536.830119 920.591729,535.910315 C920.189498,534.990935 919.451806,533.929785 918.982804,535.55674 Z" id="Stroke-59" stroke="#172F3B" stroke-width="3.5" transform="translate(921.500000, 546.711192) rotate(11.000000) translate(-921.500000, -546.711192) "></path>
            <path d="M912,418.711192 C912,418.711192 983.101364,439.639004 1026,423.762258" id="Stroke-61" stroke="#172F3B" stroke-width="3.5" stroke-linecap="round" transform="translate(969.000000, 424.211192) rotate(11.000000) translate(-969.000000, -424.211192) "></path>
            <path d="M1047.17244,100.892815 C1068.70409,170.408626 1079.46991,233.19513 1079.46991,289.252328" id="Path-167" stroke="#1532A3" stroke-width="3" stroke-linecap="round" transform="translate(1063.321176, 195.072572) rotate(1.000000) translate(-1063.321176, -195.072572) "></path>
            <path d="M1001.5,477.566903 C1001.1344,486.759091 1000.48285,492.687548 999.545355,495.352272" id="Path-165" stroke="#1532A3" stroke-width="2" stroke-linecap="round"></path>
            <path d="M994,477.079648 C994,477.079648 996.33619,485.893663 998.999439,491.467007 C1001.66309,497.039927 1001.82239,498.473496 1001.23239,499.532262 C1000.64199,500.591028 1004.47313,497.0971 1002.35592,485.133045 C1002.35592,485.133045 997.036684,474.63771 994,477.079648 Z" id="Stroke-63" stroke="#172F3B" stroke-width="3.5" transform="translate(998.500000, 488.211192) rotate(11.000000) translate(-998.500000, -488.211192) "></path>
            <path d="M1040.82756,94.2111923 C1062.13696,158.323262 1075.17078,207.823262 1079.92902,242.711192" id="Path-25" stroke="#172F3B" stroke-width="3"></path>
            <path d="M1075.46991,191.235649 C1076.61714,232.130934 1073.33542,279.622782 1065.62475,333.711192" id="Path-148" stroke="#172F3B" stroke-width="3"></path>
            <path d="M970.629048,319.644018 C1025.00024,335.828199 1059.94719,337.010903 1075.46991,323.19213" id="Path-149" stroke="#172F3B" stroke-width="3" stroke-linecap="round"></path>
            <path d="M957.492557,315.209868 C961.911157,317.39243 965.017047,318.48371 966.810228,318.48371" id="Path-150" stroke="#172F3B" stroke-width="3" stroke-linecap="round"></path>
            <path d="M949.702778,322.42297 C944.974768,325.621835 941.396908,343.60017 938.969198,376.357975" id="Path-151" stroke="#172F3B" stroke-width="3" stroke-linecap="round"></path>
            <path d="M982.741346,261.452538 C988.807936,272.811305 1001.13821,277.698595 1019.73216,276.114407" id="Path-152" stroke="#172F3B" stroke-width="3" stroke-linecap="round"></path>
            <path d="M977.304326,252.787594 C977.842259,255.103264 978.822252,256.651912 980.244304,257.433536" id="Path-153" stroke="#172F3B" stroke-width="3" stroke-linecap="round" transform="translate(978.774315, 255.110565) rotate(9.000000) translate(-978.774315, -255.110565) "></path>
            <path d="M988.697738,187.073238 C945.340198,228.030281 912.006132,285.640845 888.695539,359.904928" id="Path-155" stroke="#172F3B" stroke-width="2" stroke-linecap="round" transform="translate(938.696639, 273.489083) rotate(-14.000000) translate(-938.696639, -273.489083) "></path>
            <path d="M1048.48193,405.588945 C1063.50118,414.561523 1072.49718,425.491708 1075.46991,438.379502" id="Path-156" stroke="#172F3B" stroke-width="2" stroke-linecap="round"></path>
            <path d="M1071.06423,428.065037 C1053.77208,464.839311 1039.83231,488.687138 1029.2449,499.608516" id="Path-157" stroke="#172F3B" stroke-width="2" stroke-linecap="round" transform="translate(1050.154565, 463.836776) rotate(5.000000) translate(-1050.154565, -463.836776) "></path>
            <path d="M919.514102,403.87197 C954.320313,424.431451 985.469304,433.356253 1012.96108,430.646374" id="Path-158" stroke="#172F3B" stroke-width="2" stroke-linecap="round"></path>
            <path d="M886.493305,388.960939 C884.239399,431.384858 886.706317,459.650724 893.89406,473.758538" id="Path-154" stroke="#172F3B" stroke-width="2.5" stroke-linecap="round"></path>
            <path d="M935.227862,447.841728 C952.903503,465.414672 976.19809,470.413021 1005.11163,462.836776" id="Path-159-Copy" stroke="#1532A3" stroke-width="2"></path>
            <path d="M935.227862,448.841728 C952.903503,466.414672 976.19809,471.413021 1005.11163,463.836776" id="Path-159" stroke="#172F3B" stroke-width="2"></path>
            <path d="M944.672738,477.711192 C933.557579,484.801412 928,498.348526 928,518.352534" id="Path-161-Copy" stroke="#D54D35" stroke-width="3" stroke-linecap="round"></path>
            <path d="M942.672738,476.063839 C931.557579,483.154059 926,496.701173 926,516.705181" id="Path-161" stroke="#172F3B" stroke-width="3" stroke-linecap="round"></path>
            <path d="M940.962758,576.082662 C936.504304,553.508665 947.412427,538.923276 973.687128,532.326494" id="Path-162-Copy" stroke="#172F3B" stroke-width="3" stroke-linecap="round"></path>
            <path d="M982.724779,478.711192 C987.939832,499.876458 981.031573,520.097613 962,539.374657" id="Path-163-Copy" stroke="#D54D35" stroke-width="3" stroke-linecap="round"></path>
            <path d="M984.5,479.047728 C989.715054,500.212994 982.806794,520.434149 963.775221,539.711192" id="Path-163" stroke="#172F3B" stroke-width="3" stroke-linecap="round"></path>
            <path d="M940.201439,499.02058 C942.959725,515.680938 943.44548,528.521139 941.658706,537.541182" id="Path-164" stroke="#D54D35" stroke-width="3" stroke-linecap="round" transform="translate(941.456891, 518.280881) rotate(-6.000000) translate(-941.456891, -518.280881) "></path>
            <path d="M940,498.711192 C942.758285,515.37155 943.244041,528.211751 941.457267,537.231795" id="Path-164-Copy" stroke="#172F3B" stroke-width="3" stroke-linecap="round"></path>
            <path d="M1016.12314,430.544613 C1017.8029,430.446456 1019.69408,430.208273 1021.79669,429.830065" id="Path-171" stroke="#172F3B" stroke-width="2" stroke-linecap="round"></path>
            <path d="M1046.25865,113.675978 C1067.70895,180.247853 1073.784,252.092924 1064.48379,329.211192" id="Path-172" stroke="#172F3B" stroke-width="2"></path>
            <path d="M1043.17244,340.574093 C1041.00655,351.971143 1039.31114,360.892487 1038.08622,367.338125 C1036.86129,373.783763 1035.16589,382.705107 1033,394.102157" id="Path-173" stroke="#172F3B" stroke-width="2"></path>
            <path d="M945.783409,386.325197 C972.763859,400.248527 1008.85564,404.16865 1054.05875,398.085565" id="Path-174" stroke="#172F3B" stroke-width="2" stroke-linecap="round"></path>
            <path d="M1026.90756,220.453429 C1032.99048,227.464374 1034.02199,234.362235 1030.00208,241.147013" id="Path-175" stroke="#172F3B" stroke-width="2"></path>
            <path d="M0,71.9351862 C191.82031,133.452524 347.82031,240.841514 468,394.102157 C588.17969,547.3628 739.371394,589.565811 921.575113,520.711192" id="Path-119" stroke="#D54D35" stroke-width="5"></path>
            <path d="" id="Path-192" stroke="#979797"></path>
            <path d="M0,61.4215997 C80.1,78.9083699 185.463974,141.671567 316.091923,249.711192 C483.957236,388.549056 521.084909,464.418235 624,520.711192 C767.765568,599.348727 896.874516,542.545636 923,532.326494" id="Path-197" stroke="#1532A3" stroke-width="5"></path>
        </g>
    </g>
</svg>